{"glyphs":{"0":{"ha":833,"x_min":183,"x_max":650,"o":"m 417 783 q 650 426 640 783 q 650 392 650 410 q 465 3 650 40 q 417 -1 442 -1 q 183 356 193 -1 q 183 390 183 372 q 371 779 183 744 q 417 783 392 783 m 417 732 q 244 535 274 732 q 235 392 235 474 q 356 61 235 108 q 417 50 382 50 q 582 229 539 50 q 599 390 599 303 q 417 732 599 732 z "},"1":{"ha":833,"x_min":169,"x_max":664,"o":"m 176 43 l 397 43 l 397 719 l 197 575 l 169 608 l 411 781 l 443 781 l 443 43 l 664 43 l 664 0 l 443 0 l 397 0 l 176 0 l 176 43 z "},"2":{"ha":833,"x_min":176,"x_max":657,"o":"m 176 503 l 176 568 q 324 763 218 721 q 432 781 371 781 q 615 708 551 781 q 657 596 657 663 q 546 393 657 478 q 429 315 528 379 l 325 250 q 246 111 246 192 l 246 47 l 610 47 l 610 171 l 657 171 l 657 0 l 194 0 l 194 111 q 315 306 194 219 l 499 421 q 547 461 526 442 q 606 596 606 519 q 521 713 606 676 q 425 731 479 731 q 238 586 274 731 q 228 503 228 547 l 176 503 z "},"3":{"ha":833,"x_min":161,"x_max":672,"o":"m 572 432 q 671 246 664 372 q 671 231 671 239 q 565 46 671 114 q 403 0 493 0 q 215 82 297 0 q 167 133 211 86 l 204 169 q 292 83 267 101 q 403 51 339 51 q 576 121 511 51 q 619 231 619 168 q 558 381 619 325 q 489 410 526 410 l 397 410 l 397 461 l 489 461 q 603 522 564 461 q 621 582 621 550 q 515 715 621 681 q 415 731 472 731 q 203 607 293 731 l 161 636 q 400 782 257 774 q 415 782 407 782 q 638 692 569 782 q 672 582 672 644 q 596 446 672 496 q 572 432 585 438 z "},"4":{"ha":833,"x_min":121,"x_max":713,"o":"m 538 683 l 196 271 l 538 271 l 538 683 m 589 271 l 701 271 l 701 219 l 589 219 l 589 47 l 713 47 l 713 0 l 413 0 l 413 47 l 538 47 l 538 219 l 121 219 l 121 260 q 550 781 121 261 l 589 781 l 589 271 z "},"5":{"ha":833,"x_min":121,"x_max":713,"o":"m 151 146 q 383 51 265 60 q 417 50 400 50 q 617 129 546 50 q 661 249 661 181 q 536 418 661 383 q 453 429 499 429 l 240 429 l 240 781 l 713 781 l 713 729 l 292 729 l 292 481 l 453 481 q 681 374 615 481 q 713 249 713 321 q 586 40 713 111 q 417 -1 510 -1 q 132 96 267 -1 q 121 104 126 100 l 151 146 z "},"6":{"ha":833,"x_min":186,"x_max":649,"o":"m 238 251 q 333 65 238 111 q 415 49 369 49 q 576 142 531 49 q 596 233 596 183 q 522 382 596 328 q 421 415 476 415 q 279 351 339 415 q 238 251 238 306 m 238 383 q 404 465 310 458 q 421 467 413 467 q 600 376 532 467 q 647 233 647 314 q 558 42 647 110 q 415 -3 500 -3 q 214 119 271 -3 q 186 251 186 176 l 186 525 q 286 721 186 643 q 460 781 363 781 l 649 781 l 649 729 l 460 729 q 285 650 353 729 q 238 525 238 594 q 238 383 238 383 z "},"7":{"ha":833,"x_min":174,"x_max":660,"o":"m 371 0 l 600 729 l 221 729 l 221 600 l 174 600 l 174 781 l 660 781 l 660 749 l 424 0 l 371 0 z "},"8":{"ha":833,"x_min":182,"x_max":651,"o":"m 600 247 q 525 408 600 358 q 457 431 493 431 l 376 431 q 257 357 297 431 q 233 247 233 311 q 289 82 233 124 q 417 50 332 50 q 600 247 600 50 m 376 482 l 457 482 q 568 540 528 482 q 589 607 589 571 q 503 718 589 685 q 417 732 464 732 q 264 668 308 732 q 244 606 244 640 q 307 501 244 539 q 376 482 339 482 m 651 247 q 511 14 651 60 q 417 0 469 0 q 188 174 215 0 q 182 247 182 207 q 276 453 182 389 q 283 457 279 454 q 196 579 208 499 q 193 606 193 592 q 304 760 193 713 q 417 782 357 782 q 596 717 531 782 q 640 607 640 672 q 565 467 640 519 q 547 456 557 461 q 649 289 632 403 q 651 247 651 268 z "},"9":{"ha":833,"x_min":110,"x_max":569,"o":"m 518 535 q 419 722 518 678 q 342 738 385 738 q 181 644 226 738 q 161 553 161 603 q 236 404 161 460 q 336 371 281 371 q 478 435 419 371 q 518 535 518 481 m 518 403 q 356 321 450 331 q 336 319 346 319 q 158 410 226 319 q 111 553 111 474 q 200 744 111 679 q 342 789 258 789 q 543 665 488 789 q 569 535 569 608 l 569 260 q 472 63 569 142 q 299 0 396 0 l 110 0 l 110 51 l 299 51 q 469 132 403 51 q 518 260 518 189 l 518 403 z "},"\r":{"ha":463,"x_min":0,"x_max":0,"o":""}," ":{"ha":833,"x_min":0,"x_max":0,"o":""},"!":{"ha":833,"x_min":282,"x_max":461,"o":"m 413 847 l 399 217 l 347 217 l 333 847 l 413 847 m 282 53 q 332 122 282 101 q 372 131 350 131 q 453 86 428 131 q 461 53 461 71 q 413 -17 461 6 q 372 -25 393 -25 q 290 19 315 -25 q 282 53 282 35 z "},"\"":{"ha":833,"x_min":232,"x_max":510,"o":"m 283 821 l 283 568 l 232 568 l 232 821 l 283 821 m 510 821 l 510 568 l 458 568 l 458 821 l 510 821 z "},"#":{"ha":833,"x_min":0,"x_max":769,"o":"m 329 560 l 260 292 l 415 292 l 485 560 l 329 560 m 407 856 l 343 611 l 497 611 l 561 856 l 614 856 l 550 611 l 769 611 l 769 560 l 536 560 l 467 292 l 640 292 l 640 240 l 453 240 l 390 0 l 339 0 l 401 240 l 246 240 l 183 0 l 132 0 l 194 240 l 0 240 l 0 292 l 208 292 l 278 560 l 126 560 l 126 611 l 290 611 l 354 856 l 407 856 z "},"$":{"ha":833,"x_min":172,"x_max":661,"o":"m 654 806 l 625 733 q 621 711 621 721 q 656 596 621 642 l 607 596 q 510 700 579 661 q 422 725 467 725 q 250 661 303 725 q 225 590 225 631 q 329 451 225 497 q 474 404 346 444 q 638 303 600 364 q 661 211 661 264 q 540 40 661 92 q 442 15 494 21 l 442 -103 l 390 -103 l 390 14 q 244 82 308 22 q 219 0 235 32 l 172 0 q 192 58 172 0 q 204 119 204 96 q 176 207 204 154 q 172 214 174 211 l 219 214 q 238 174 219 214 q 381 67 289 85 q 414 64 397 64 q 581 131 526 64 q 610 211 610 165 q 508 339 610 296 q 368 385 496 344 q 199 490 239 426 q 174 589 174 532 q 303 754 174 706 q 390 775 343 769 l 390 908 l 442 908 l 442 775 q 578 715 515 768 q 607 806 579 750 l 654 806 z "},"%":{"ha":833,"x_min":90,"x_max":743,"o":"m 510 288 q 671 228 613 288 q 706 146 706 192 q 619 28 706 69 q 510 4 568 4 q 350 64 408 4 q 315 146 315 100 q 403 264 315 222 q 510 288 453 288 m 510 236 q 392 190 442 236 q 367 146 367 168 q 424 74 367 103 q 510 56 461 56 q 640 108 600 56 q 654 146 654 126 q 594 218 660 189 q 510 236 553 236 m 314 786 q 474 726 414 786 q 508 646 508 692 q 421 528 508 569 q 314 504 371 504 q 153 564 211 504 q 118 644 118 600 q 204 763 118 721 q 314 786 256 786 m 314 735 q 182 682 222 735 q 169 646 169 664 q 225 575 169 603 q 314 556 264 556 q 443 608 404 556 q 457 644 457 626 q 400 717 457 688 q 314 735 363 735 m 90 224 l 717 619 l 743 576 l 117 181 l 90 224 z "},"&":{"ha":833,"x_min":64,"x_max":769,"o":"m 311 406 q 115 208 117 308 q 194 86 115 129 q 299 60 242 60 q 413 110 365 60 q 474 181 414 110 q 499 211 482 192 l 311 406 m 747 464 l 590 244 q 568 215 579 231 l 769 18 l 733 -18 l 536 175 l 513 147 q 432 57 447 69 q 299 8 376 8 q 121 78 192 8 q 64 208 64 132 q 260 436 64 335 q 275 444 267 440 l 263 458 l 196 528 q 165 615 165 565 q 267 761 165 729 q 333 771 297 771 l 422 771 l 422 719 l 333 719 q 218 639 232 719 q 217 615 217 628 q 278 515 217 581 q 307 485 303 490 q 532 251 435 347 q 657 426 556 282 q 706 494 681 460 l 747 464 z "},"'":{"ha":833,"x_min":346,"x_max":397,"o":"m 397 821 l 397 568 l 346 568 l 346 821 l 397 821 z "},"(":{"ha":833,"x_min":347,"x_max":629,"o":"m 617 854 l 574 800 q 400 361 414 599 q 399 322 399 342 q 500 -37 399 151 q 629 -214 558 -144 l 563 -214 q 538 -187 563 -214 q 349 271 367 17 q 347 322 347 296 q 451 713 347 524 q 554 854 497 796 l 617 854 z "},")":{"ha":833,"x_min":100,"x_max":381,"o":"m 113 854 l 175 854 q 357 507 304 722 q 381 322 381 411 q 219 -151 381 67 q 190 -187 206 -169 q 167 -214 167 -214 l 100 -214 q 290 108 224 -93 q 329 322 329 224 q 176 772 329 563 q 154 800 165 786 l 113 854 z "},"*":{"ha":833,"x_min":57,"x_max":683,"o":"m 160 214 l 328 446 l 57 532 l 74 581 l 343 494 l 343 782 l 394 782 l 394 494 l 667 581 l 683 532 l 411 446 l 578 214 l 536 185 l 369 415 l 201 185 l 160 214 z "},"+":{"ha":833,"x_min":107,"x_max":640,"o":"m 396 640 l 396 401 l 640 401 l 640 350 l 396 350 l 396 108 l 344 108 l 344 350 l 107 350 l 107 401 l 344 401 l 344 640 l 396 640 z "},",":{"ha":833,"x_min":86,"x_max":317,"o":"m 317 156 l 150 -186 l 86 -186 l 200 156 l 317 156 z "},"-":{"ha":833,"x_min":107,"x_max":642,"o":"m 107 403 l 642 403 l 642 351 l 107 351 l 107 403 z "},".":{"ha":833,"x_min":165,"x_max":363,"o":"m 165 64 q 218 140 165 115 q 264 150 239 150 q 351 103 324 150 q 363 64 363 85 q 310 -12 363 13 q 264 -22 289 -22 q 176 25 204 -22 q 165 64 165 43 z "},"/":{"ha":833,"x_min":114,"x_max":681,"o":"m 114 -117 l 625 878 l 681 878 l 171 -117 l 114 -117 z "},":":{"ha":833,"x_min":269,"x_max":467,"o":"m 269 488 q 322 564 269 539 q 368 574 343 574 q 456 526 429 574 q 467 488 467 508 q 414 411 467 436 q 368 401 393 401 q 281 449 308 401 q 269 488 269 467 m 269 64 q 322 140 269 115 q 368 150 343 150 q 457 101 431 150 q 467 64 467 83 q 415 -12 467 13 q 368 -22 393 -22 q 281 25 308 -22 q 269 64 269 43 z "},";":{"ha":833,"x_min":211,"x_max":467,"o":"m 269 488 q 322 564 269 539 q 368 574 343 574 q 456 526 429 574 q 467 488 467 508 q 414 411 467 436 q 368 401 393 401 q 281 449 308 401 q 269 488 269 467 m 442 156 l 275 -186 l 211 -186 l 325 156 l 442 156 z "},"<":{"ha":833,"x_min":85,"x_max":757,"o":"m 757 611 l 204 350 l 757 74 l 757 21 l 85 350 l 757 668 l 757 611 z "},"=":{"ha":833,"x_min":164,"x_max":596,"o":"m 164 511 l 596 511 l 596 460 l 164 460 l 164 511 m 164 344 l 596 344 l 596 293 l 164 293 l 164 344 z "},">":{"ha":833,"x_min":72,"x_max":744,"o":"m 72 611 l 72 668 l 744 350 l 72 21 l 72 74 l 625 350 l 72 611 z "},"?":{"ha":833,"x_min":89,"x_max":581,"o":"m 315 204 l 315 285 q 392 413 315 347 l 471 479 q 529 599 529 536 q 425 719 529 685 q 328 735 381 735 q 164 681 214 735 q 140 624 140 656 l 140 599 l 89 599 l 89 624 q 203 763 89 719 q 326 783 258 783 q 536 710 465 783 q 581 599 581 664 q 488 431 581 511 l 406 358 q 367 285 367 319 l 367 204 l 315 204 m 246 64 q 299 140 246 115 q 344 150 319 150 q 432 103 404 150 q 443 64 443 85 q 390 -12 443 13 q 344 -22 369 -22 q 257 25 285 -22 q 246 64 246 43 z "},"@":{"ha":833,"x_min":125,"x_max":638,"o":"m 569 578 q 469 718 546 690 q 382 731 435 731 q 201 603 243 731 q 176 386 176 526 q 247 97 176 165 q 381 51 293 51 l 531 51 l 531 0 l 382 0 q 146 181 194 0 q 125 386 125 258 q 224 731 125 647 q 382 782 283 782 q 618 593 571 782 q 638 386 638 514 l 638 242 q 586 192 625 196 l 490 192 q 367 306 400 192 q 354 392 354 347 q 411 547 354 496 q 490 578 443 578 l 569 578 m 586 243 l 586 386 q 578 526 586 461 l 490 526 q 414 456 436 526 q 406 392 406 426 q 453 257 406 294 q 490 243 471 243 l 586 243 z "},"A":{"ha":833,"x_min":40,"x_max":793,"o":"m 314 393 l 525 393 l 419 724 l 314 393 m 501 47 l 635 47 l 539 342 l 300 342 l 204 47 l 336 47 l 336 0 l 40 0 l 40 47 l 150 47 l 369 733 l 169 733 l 169 781 l 457 781 l 689 47 l 793 47 l 793 0 l 501 0 l 501 47 z "},"B":{"ha":833,"x_min":113,"x_max":719,"o":"m 288 501 l 532 501 q 649 560 611 501 q 665 617 665 586 q 600 718 665 685 q 533 733 569 733 l 288 733 l 288 501 m 288 47 l 532 47 q 642 121 601 47 q 672 256 672 175 q 601 424 672 361 q 533 454 567 454 l 288 454 l 288 47 m 617 472 q 715 304 697 414 q 719 256 719 279 q 633 36 719 107 q 533 0 589 0 l 113 0 l 113 47 l 236 47 l 236 733 l 113 733 l 113 781 l 532 781 q 676 717 621 781 q 713 617 713 674 q 617 472 713 518 z "},"C":{"ha":833,"x_min":121,"x_max":713,"o":"m 451 783 q 625 722 567 783 q 640 722 639 713 q 657 781 644 756 l 704 781 q 686 683 686 731 q 713 592 686 658 l 664 592 q 547 713 640 674 q 451 732 500 732 q 249 625 332 732 q 172 390 172 526 q 274 126 172 229 q 451 49 351 49 q 614 107 540 49 q 646 139 632 122 l 689 110 q 515 6 626 32 q 451 -3 482 -3 q 210 121 307 -3 q 121 390 121 235 q 226 679 121 563 q 451 783 321 783 z "},"D":{"ha":833,"x_min":72,"x_max":761,"o":"m 257 47 l 482 47 q 643 158 571 47 q 713 394 713 268 q 658 600 713 496 q 482 733 589 733 l 257 733 l 257 47 m 72 47 l 206 47 l 206 733 l 72 733 l 72 781 l 482 781 q 708 613 628 781 q 761 397 761 506 q 701 154 761 269 q 482 0 622 0 l 72 0 l 72 47 z "},"E":{"ha":833,"x_min":103,"x_max":731,"o":"m 604 558 l 604 360 l 557 360 l 557 446 l 288 446 l 288 47 l 667 47 l 683 168 l 731 168 l 714 0 l 103 0 l 103 47 l 238 47 l 238 733 l 103 733 l 103 781 l 714 781 l 726 621 l 679 621 l 667 733 l 288 733 l 288 493 l 557 493 l 557 558 l 604 558 z "},"F":{"ha":833,"x_min":101,"x_max":732,"o":"m 288 733 l 288 493 l 454 493 l 454 558 l 503 558 l 503 360 l 456 360 l 456 446 l 288 446 l 288 47 l 522 47 l 522 0 l 101 0 l 101 47 l 236 47 l 236 733 l 101 733 l 101 781 l 713 781 l 732 560 l 685 560 l 667 733 l 288 733 z "},"G":{"ha":833,"x_min":111,"x_max":722,"o":"m 442 783 q 613 729 554 783 q 619 722 617 726 q 636 722 633 711 q 653 781 640 761 l 700 781 q 682 683 682 731 q 708 592 682 658 l 660 592 q 539 713 636 672 q 442 732 490 732 q 239 625 322 732 q 163 390 163 526 q 260 122 163 222 q 426 49 332 49 q 628 171 557 49 q 674 344 669 246 l 521 344 l 521 392 l 722 392 l 722 344 q 610 67 715 163 q 426 -3 535 -3 q 188 129 279 -3 q 111 390 111 239 q 218 679 111 563 q 442 783 313 783 z "},"H":{"ha":833,"x_min":43,"x_max":790,"o":"m 228 510 l 607 510 l 607 733 l 471 733 l 471 781 l 790 781 l 790 733 l 658 733 l 658 47 l 789 47 l 789 0 l 469 0 l 469 47 l 607 47 l 607 458 l 228 458 l 228 47 l 363 47 l 363 0 l 43 0 l 43 47 l 176 47 l 176 733 l 43 733 l 43 781 l 363 781 l 363 733 l 228 733 l 228 510 z "},"I":{"ha":833,"x_min":124,"x_max":710,"o":"m 396 733 l 125 733 l 125 781 l 710 781 l 710 733 l 446 733 l 446 47 l 708 47 l 708 0 l 124 0 l 124 47 l 396 47 l 396 733 z "},"J":{"ha":833,"x_min":161,"x_max":672,"o":"m 213 315 q 221 158 213 194 q 350 50 244 50 q 476 143 446 50 q 486 199 486 171 l 486 733 l 246 733 l 246 781 l 672 781 l 672 733 l 538 733 l 538 199 q 481 51 538 111 q 350 -1 431 -1 q 183 104 235 -1 q 161 199 161 151 l 161 315 l 213 315 z "},"K":{"ha":833,"x_min":44,"x_max":789,"o":"m 436 781 l 726 781 l 726 733 l 558 733 q 282 401 433 544 q 513 228 413 365 q 625 47 561 164 l 789 47 l 789 0 l 596 0 q 397 282 481 208 q 236 360 328 343 q 208 338 219 346 l 208 47 l 335 47 l 335 0 l 44 0 l 44 47 l 158 47 l 158 733 l 44 733 l 44 781 l 335 781 l 335 733 l 208 733 l 208 404 q 494 733 357 533 l 436 733 l 436 781 z "},"L":{"ha":833,"x_min":136,"x_max":725,"o":"m 254 733 l 138 733 l 138 781 l 426 781 l 426 733 l 306 733 l 306 47 l 649 47 l 678 310 l 725 310 l 697 0 l 136 0 l 136 47 l 254 47 l 254 733 z "},"M":{"ha":833,"x_min":11,"x_max":822,"o":"m 753 733 l 753 47 l 817 47 l 817 0 l 556 0 l 556 47 l 701 47 l 701 733 l 694 733 l 433 168 l 404 168 l 138 733 l 126 733 l 126 47 l 271 47 l 271 0 l 11 0 l 11 47 l 76 47 l 76 733 l 11 733 l 11 781 l 178 781 l 178 765 l 417 260 l 654 769 l 654 781 l 822 781 l 822 733 l 753 733 z "},"N":{"ha":833,"x_min":13,"x_max":821,"o":"m 706 75 l 706 733 l 560 733 l 560 781 l 821 781 l 821 733 l 757 733 l 757 -10 l 706 -10 l 131 733 l 128 733 l 128 47 l 272 47 l 272 0 l 13 0 l 13 47 l 78 47 l 78 733 l 13 733 l 13 781 l 161 781 q 706 75 161 779 z "},"O":{"ha":833,"x_min":86,"x_max":747,"o":"m 417 783 q 657 660 560 783 q 747 390 747 546 q 640 101 747 218 q 417 -3 546 -3 q 176 121 274 -3 q 86 390 86 235 q 193 679 86 563 q 417 783 288 783 m 417 732 q 214 625 297 732 q 138 390 138 526 q 239 126 138 229 q 417 49 317 49 q 619 156 536 49 q 696 390 696 254 q 594 654 696 551 q 417 732 517 732 z "},"P":{"ha":833,"x_min":74,"x_max":774,"o":"m 258 340 l 536 340 q 663 394 601 340 q 726 536 726 453 q 626 710 726 656 q 536 733 582 733 l 258 733 l 258 340 m 74 47 l 207 47 l 207 733 l 74 733 l 74 781 l 536 781 q 700 714 628 781 q 774 536 774 646 q 660 335 774 407 q 536 293 596 293 l 258 293 l 258 47 l 447 47 l 447 0 l 74 0 l 74 47 z "},"Q":{"ha":833,"x_min":86,"x_max":747,"o":"m 417 732 q 214 625 297 732 q 138 390 138 526 q 239 126 138 229 q 417 49 317 49 q 619 156 536 49 q 696 390 696 254 q 594 654 696 551 q 417 732 517 732 m 322 14 l 271 -50 q 322 -46 294 -46 q 415 -94 361 -46 q 476 -131 456 -131 q 561 -89 513 -131 q 576 -75 571 -79 l 607 -111 l 551 -157 q 478 -178 519 -178 q 383 -129 439 -178 q 324 -93 343 -93 q 150 -162 251 -93 q 144 -167 147 -165 l 126 -154 l 278 33 q 107 251 154 101 q 86 390 86 318 q 193 679 86 563 q 417 783 288 783 q 657 660 560 783 q 747 390 747 546 q 640 101 747 218 q 417 -3 546 -3 q 322 14 372 -3 z "},"R":{"ha":833,"x_min":13,"x_max":736,"o":"m 199 390 l 499 390 q 638 442 581 390 q 689 561 689 488 q 568 724 689 689 q 499 733 535 733 l 199 733 l 199 390 m 461 343 q 603 138 550 263 q 639 47 617 107 l 736 47 l 736 0 l 606 0 q 515 206 547 153 q 388 343 469 279 l 197 343 l 197 47 l 378 47 l 378 0 l 13 0 l 13 47 l 147 47 l 147 733 l 13 733 l 13 781 l 499 781 q 682 710 614 781 q 736 561 736 653 q 610 369 736 428 q 499 343 554 343 l 461 343 z "},"S":{"ha":833,"x_min":172,"x_max":661,"o":"m 639 792 q 622 713 622 746 q 656 608 622 644 l 611 608 q 607 611 608 610 q 510 715 579 676 q 422 740 467 740 q 253 675 308 740 q 225 600 225 642 q 329 461 225 507 q 474 414 346 454 q 638 313 600 374 q 661 221 661 274 q 553 47 661 107 q 414 13 489 13 q 256 72 326 13 q 240 63 244 83 q 219 0 232 31 l 172 0 q 192 58 172 0 q 204 119 204 96 q 176 207 204 154 q 172 214 174 211 l 219 214 q 238 174 219 214 q 381 67 289 85 q 414 64 397 64 q 576 132 519 64 q 610 221 610 171 q 508 349 610 306 q 368 396 496 354 q 200 500 239 436 q 174 600 174 542 q 290 764 174 711 q 422 792 351 792 q 563 742 494 792 q 579 743 576 731 q 592 792 583 774 l 639 792 z "},"T":{"ha":833,"x_min":61,"x_max":772,"o":"m 725 497 l 711 733 l 442 733 l 442 47 l 649 47 l 649 0 l 186 0 l 186 47 l 392 47 l 392 733 l 124 733 l 110 497 l 61 497 l 75 781 l 757 781 l 772 497 l 725 497 z "},"U":{"ha":833,"x_min":39,"x_max":794,"o":"m 794 733 l 696 733 l 696 249 q 624 85 696 165 q 417 -10 538 -10 q 201 99 290 -10 q 138 249 138 176 l 138 733 l 39 733 l 39 781 l 322 781 l 322 733 l 183 733 l 183 249 q 244 125 183 194 q 415 38 322 38 q 600 133 524 38 q 649 249 649 194 l 649 733 l 511 733 l 511 781 l 794 781 l 794 733 z "},"V":{"ha":833,"x_min":18,"x_max":815,"o":"m 815 733 l 746 733 l 440 -22 l 394 -22 l 88 733 l 18 733 l 18 781 l 290 781 l 290 733 l 143 733 l 417 54 l 690 733 l 543 733 l 543 781 l 815 781 l 815 733 z "},"W":{"ha":833,"x_min":0,"x_max":833,"o":"m 558 781 l 833 781 l 833 733 l 800 733 l 603 -21 l 572 -21 l 417 514 l 261 -21 l 231 -21 l 33 733 l 0 733 l 0 781 l 275 781 l 275 733 l 86 733 l 247 117 l 399 635 l 435 635 l 586 117 l 747 733 l 558 733 l 558 781 z "},"X":{"ha":833,"x_min":72,"x_max":761,"o":"m 703 733 l 449 390 l 703 47 l 761 47 l 761 0 l 565 0 l 565 47 l 639 47 l 417 347 l 194 47 l 268 47 l 268 0 l 72 0 l 72 47 l 131 47 l 385 390 l 131 733 l 82 733 l 82 781 l 278 781 l 278 733 l 194 733 l 417 433 l 639 733 l 556 733 l 556 781 l 751 781 l 751 733 l 703 733 z "},"Y":{"ha":833,"x_min":82,"x_max":751,"o":"m 440 47 l 521 47 l 521 0 l 310 0 l 310 47 l 389 47 l 389 379 l 131 733 l 82 733 l 82 781 l 278 781 l 278 733 l 194 733 l 417 433 l 639 733 l 556 733 l 556 781 l 751 781 l 751 733 l 703 733 l 440 379 l 440 47 z "},"Z":{"ha":833,"x_min":169,"x_max":664,"o":"m 600 47 l 615 264 l 664 264 l 644 0 l 174 0 l 174 28 l 572 733 l 228 733 l 218 521 l 169 521 l 182 781 l 642 781 l 642 749 l 244 47 l 600 47 z "},"[":{"ha":833,"x_min":313,"x_max":486,"o":"m 314 781 l 486 781 l 486 733 l 365 733 l 365 -144 l 485 -144 l 485 -192 l 313 -192 l 314 779 l 314 781 z "},"\\":{"ha":833,"x_min":169,"x_max":736,"o":"m 736 -117 l 678 -117 l 169 878 l 225 878 l 736 -117 z "},"]":{"ha":833,"x_min":197,"x_max":371,"o":"m 369 781 l 371 -190 l 371 -192 l 199 -192 l 199 -144 l 318 -144 l 318 733 l 197 733 l 197 781 l 369 781 z "},"^":{"ha":833,"x_min":132,"x_max":701,"o":"m 701 496 l 671 465 l 422 668 l 163 465 l 132 496 l 418 781 l 701 496 z "},"_":{"ha":833,"x_min":49,"x_max":786,"o":"m 49 -100 l 786 -100 l 786 -147 l 49 -147 l 49 -100 z "},"`":{"ha":833,"x_min":265,"x_max":564,"o":"m 265 913 l 394 913 l 564 669 l 499 669 l 265 913 z "},"a":{"ha":833,"x_min":57,"x_max":749,"o":"m 568 332 q 310 369 422 369 q 146 299 206 369 q 108 199 108 254 q 204 61 108 110 q 332 32 263 32 q 517 99 443 32 q 568 153 540 119 l 568 332 m 619 47 l 749 47 l 749 0 l 568 0 l 568 75 q 364 -18 482 -11 q 332 -19 349 -19 q 125 53 208 -19 q 57 199 57 113 q 161 378 57 314 q 310 421 228 421 q 568 385 426 421 l 568 408 q 489 514 568 468 q 329 556 418 556 q 107 496 242 556 l 88 543 q 169 575 88 543 q 329 607 268 607 q 554 533 465 607 q 619 408 619 479 l 619 47 z "},"b":{"ha":833,"x_min":49,"x_max":789,"o":"m 478 542 q 279 456 358 542 q 217 296 217 388 q 315 103 217 176 q 476 50 388 50 q 681 142 601 50 q 738 296 738 210 q 643 485 738 411 q 478 542 572 542 m 165 821 l 57 800 l 49 847 l 217 878 l 217 460 q 426 589 293 568 q 476 593 451 593 q 713 490 619 593 q 789 296 789 407 q 683 72 789 161 q 478 -1 596 -1 q 243 100 336 -1 q 218 132 229 115 l 218 0 l 54 0 l 54 47 l 165 47 l 165 821 z "},"c":{"ha":833,"x_min":96,"x_max":693,"o":"m 631 524 l 638 554 l 683 544 q 667 467 683 544 q 693 417 679 449 l 644 400 q 488 531 596 497 q 408 542 449 542 q 204 450 283 542 q 147 296 147 382 q 243 110 147 183 q 421 51 321 51 q 590 101 499 51 q 624 122 610 111 l 651 76 q 465 3 582 19 q 421 0 442 0 q 171 104 267 0 q 96 296 96 186 q 201 518 96 429 q 408 593 290 593 q 611 521 518 593 q 631 524 628 510 z "},"d":{"ha":833,"x_min":74,"x_max":808,"o":"m 808 0 l 646 0 l 646 132 q 436 3 569 24 q 386 -1 411 -1 q 150 101 243 -1 q 74 296 74 185 q 179 519 74 431 q 385 593 267 593 q 619 492 526 593 q 644 460 633 476 l 644 818 l 422 776 l 422 824 l 696 878 l 696 47 l 808 47 l 808 0 m 646 296 q 547 489 646 415 q 386 542 475 542 q 182 450 261 542 q 125 296 125 382 q 219 107 125 181 q 385 50 290 50 q 583 136 504 50 q 646 296 646 204 z "},"e":{"ha":833,"x_min":96,"x_max":721,"o":"m 664 343 q 543 507 642 450 q 408 542 481 542 q 206 450 283 542 q 153 343 165 403 l 664 343 m 721 296 l 147 296 q 243 110 147 183 q 415 51 318 51 q 629 118 526 51 q 643 128 636 124 l 676 89 q 458 3 590 17 q 415 0 436 0 q 178 99 275 0 q 96 296 96 183 q 201 518 96 429 q 408 593 290 593 q 644 493 551 593 q 721 296 721 410 z "},"f":{"ha":833,"x_min":156,"x_max":669,"o":"m 257 47 l 257 544 l 156 544 l 156 592 l 256 592 l 256 701 q 346 842 256 786 q 464 878 404 878 q 669 810 575 878 l 639 768 q 464 826 560 826 q 339 769 390 826 q 307 701 307 736 l 307 592 l 654 592 l 654 544 l 307 544 l 307 47 l 539 47 l 539 0 l 156 0 l 156 47 l 257 47 z "},"g":{"ha":833,"x_min":61,"x_max":799,"o":"m 374 542 q 169 450 249 542 q 113 296 113 382 q 207 107 113 181 q 372 50 278 50 q 576 142 497 50 q 633 296 633 210 q 539 485 633 411 q 374 542 468 542 m 799 592 l 799 544 l 685 544 l 685 -43 q 581 -204 685 -131 q 369 -274 481 -274 q 101 -193 239 -274 l 124 -147 q 299 -214 188 -192 q 368 -222 338 -222 q 556 -156 463 -222 q 633 -43 633 -99 l 633 133 q 435 4 561 29 q 374 -1 404 -1 q 138 101 231 -1 q 61 296 61 185 q 167 519 61 431 q 372 593 254 593 q 608 490 514 593 q 633 458 622 475 l 633 592 l 799 592 z "},"h":{"ha":833,"x_min":31,"x_max":800,"o":"m 203 522 q 344 593 310 581 q 446 611 397 611 q 625 532 549 611 q 682 411 682 474 l 682 49 l 800 49 l 800 0 l 511 0 l 511 49 l 632 49 l 632 411 q 569 511 632 460 q 446 560 510 560 q 208 465 354 560 q 201 461 204 464 l 201 49 l 319 49 l 319 0 l 31 0 l 31 49 l 151 49 l 151 819 l 31 789 l 31 836 l 203 878 l 203 522 z "},"i":{"ha":833,"x_min":143,"x_max":693,"o":"m 478 811 l 478 676 l 375 676 l 375 811 l 478 811 m 401 544 l 143 544 l 143 592 l 453 592 l 453 47 l 693 47 l 693 0 l 143 0 l 143 47 l 401 47 l 401 544 z "},"j":{"ha":833,"x_min":83,"x_max":479,"o":"m 479 810 l 479 675 l 376 675 l 376 810 l 479 810 m 106 -186 q 242 -222 151 -218 q 257 -222 250 -222 q 372 -144 325 -222 q 403 -43 403 -93 l 403 544 l 221 544 l 221 592 l 454 592 l 454 -43 q 394 -203 454 -129 q 257 -274 336 -274 q 83 -232 144 -274 l 106 -186 z "},"k":{"ha":833,"x_min":76,"x_max":732,"o":"m 486 47 l 535 47 l 311 322 l 267 285 l 267 0 l 76 0 l 76 47 l 215 47 l 215 813 l 76 763 l 76 810 l 267 878 l 267 353 l 496 544 l 450 544 l 450 592 l 686 592 l 686 544 l 575 544 l 350 356 l 601 47 l 732 47 l 732 0 l 486 0 l 486 47 z "},"l":{"ha":833,"x_min":128,"x_max":706,"o":"m 354 818 l 128 763 l 128 810 l 406 878 l 406 47 l 706 47 l 706 0 l 128 0 l 128 47 l 354 47 l 354 818 z "},"m":{"ha":833,"x_min":0,"x_max":833,"o":"m 435 518 q 557 606 483 579 q 582 611 572 611 q 711 493 693 611 q 715 411 715 464 l 715 49 l 833 49 l 833 0 l 663 0 l 663 411 q 647 525 663 497 q 583 560 629 560 q 443 463 531 560 l 443 49 l 561 49 l 561 0 l 392 0 l 392 411 q 311 560 392 560 q 178 468 257 560 q 171 461 175 465 l 171 49 l 289 49 l 289 0 l 0 0 l 0 49 l 121 49 l 121 544 l 0 544 l 0 592 l 171 592 l 171 522 q 268 599 193 564 q 311 611 296 611 q 435 518 410 611 z "},"n":{"ha":833,"x_min":31,"x_max":800,"o":"m 201 522 q 256 551 247 547 q 446 611 367 611 q 619 535 540 611 q 682 411 682 474 l 682 47 l 800 47 l 800 0 l 511 0 l 511 47 l 632 47 l 632 411 q 569 511 632 460 q 446 560 510 560 q 208 465 354 560 q 201 461 204 464 l 201 47 l 319 47 l 319 0 l 31 0 l 31 47 l 151 47 l 151 544 l 31 544 l 31 592 l 203 592 q 201 522 199 572 z "},"o":{"ha":833,"x_min":104,"x_max":729,"o":"m 417 593 q 651 493 557 593 q 729 296 729 408 q 624 74 729 163 q 417 -1 535 -1 q 182 99 276 -1 q 104 296 104 183 q 210 518 104 429 q 417 593 299 593 m 417 542 q 215 451 294 542 q 156 296 156 383 q 249 107 156 181 q 417 50 321 50 q 624 143 549 50 q 678 296 678 208 q 576 492 678 419 q 417 542 507 542 z "},"p":{"ha":833,"x_min":54,"x_max":789,"o":"m 476 50 q 678 140 599 50 q 738 296 738 208 q 643 485 738 411 q 478 542 572 542 q 278 454 357 542 q 217 296 217 388 q 317 100 217 172 q 476 50 386 50 m 165 -203 q 167 544 165 -200 l 54 544 l 54 592 l 217 592 l 217 460 q 426 589 293 568 q 476 593 451 593 q 713 490 619 593 q 789 296 789 407 q 683 72 789 161 q 478 -1 596 -1 q 240 103 335 -1 q 217 132 228 117 l 217 -203 l 388 -203 l 388 -250 l 56 -250 l 56 -203 l 165 -203 z "},"q":{"ha":833,"x_min":44,"x_max":779,"o":"m 357 50 q 561 140 485 50 q 617 296 617 207 q 517 489 617 417 q 356 542 446 542 q 154 450 232 542 q 96 296 96 383 q 190 107 96 182 q 357 50 263 50 m 668 -203 l 778 -203 l 778 -250 l 446 -250 l 446 -203 l 617 -203 l 617 132 q 404 3 539 22 q 356 -1 381 -1 q 121 100 214 -1 q 44 296 44 183 q 151 519 44 431 q 357 593 239 593 q 592 490 497 593 q 617 460 606 476 l 617 592 l 779 592 l 779 544 l 667 544 q 668 -203 667 -17 z "},"r":{"ha":833,"x_min":76,"x_max":685,"o":"m 642 504 q 558 549 624 525 q 503 560 525 560 q 275 478 414 560 q 249 461 261 469 l 249 49 l 367 49 l 367 0 l 76 0 l 76 49 l 197 49 l 197 544 l 76 544 l 76 592 l 249 592 l 249 522 q 303 551 299 549 q 501 611 407 610 q 667 553 590 611 q 685 538 676 546 l 642 504 z "},"s":{"ha":833,"x_min":172,"x_max":661,"o":"m 639 600 q 622 532 622 567 q 656 446 622 476 l 608 446 q 507 531 579 500 q 422 549 464 549 q 236 489 278 549 q 225 451 225 472 q 328 346 225 381 l 531 294 q 660 171 651 256 q 661 156 661 164 q 553 19 661 67 q 414 -7 489 -7 q 256 39 326 -7 q 240 32 244 47 q 219 -17 235 14 l 172 -17 q 192 29 172 -17 q 204 83 204 57 q 178 153 204 110 q 172 161 175 158 l 219 161 q 238 131 219 161 q 394 46 292 54 q 414 44 404 44 q 592 106 544 44 q 610 156 610 128 q 514 251 610 219 l 313 300 q 175 431 186 340 q 174 451 174 440 q 290 579 174 538 q 422 600 351 600 q 563 563 492 600 q 579 563 576 553 q 592 600 583 588 l 639 600 z "},"t":{"ha":833,"x_min":74,"x_max":738,"o":"m 74 592 l 182 592 l 182 775 l 233 775 l 233 592 l 583 592 l 583 544 l 233 544 l 233 196 q 308 68 233 122 q 439 25 368 25 q 699 185 539 25 l 738 151 q 522 -8 633 36 q 439 -26 476 -26 q 250 51 331 -26 q 183 196 183 115 l 183 544 l 74 544 l 74 592 z "},"u":{"ha":833,"x_min":31,"x_max":800,"o":"m 629 71 q 575 42 583 46 q 385 -18 464 -18 q 211 58 290 -18 q 149 182 149 119 l 149 544 l 31 544 l 31 592 l 200 592 l 199 183 l 199 182 q 261 82 199 133 q 385 33 321 33 q 622 128 476 33 q 629 132 626 129 l 629 544 l 511 544 l 511 592 l 681 592 l 681 49 l 800 49 l 800 0 l 629 0 l 629 71 z "},"v":{"ha":833,"x_min":14,"x_max":819,"o":"m 819 544 l 714 544 l 436 -18 l 397 -18 l 119 544 l 14 544 l 14 592 l 279 592 l 279 544 l 176 544 l 417 58 l 657 544 l 554 544 l 554 592 l 819 592 l 819 544 z "},"w":{"ha":833,"x_min":0,"x_max":833,"o":"m 106 544 l 253 78 l 397 451 l 436 451 l 581 78 l 728 544 l 554 544 l 554 592 l 833 592 l 833 544 l 782 544 l 601 -33 l 568 -33 l 417 358 l 265 -33 l 232 -33 l 51 544 l 0 544 l 0 592 l 279 592 l 279 544 l 106 544 z "},"x":{"ha":833,"x_min":18,"x_max":815,"o":"m 239 0 l 18 0 l 18 47 l 97 47 l 378 294 l 93 544 l 18 544 l 18 592 l 239 592 l 239 544 l 171 544 l 417 329 l 663 544 l 594 544 l 594 592 l 815 592 l 815 544 l 740 544 l 456 294 l 736 47 l 815 47 l 815 0 l 594 0 l 594 47 l 658 47 l 417 260 l 175 47 l 239 47 l 239 0 z "},"y":{"ha":833,"x_min":0,"x_max":819,"o":"m 394 -233 l 0 -233 l 0 -186 l 296 -186 l 388 0 l 119 544 l 14 544 l 14 592 l 279 592 l 279 544 l 176 544 l 417 58 l 657 544 l 554 544 l 554 592 l 819 592 l 819 544 l 714 544 l 353 -186 l 394 -186 l 394 -233 z "},"z":{"ha":833,"x_min":115,"x_max":718,"o":"m 693 544 l 210 47 l 671 47 l 671 97 l 718 97 l 718 0 l 138 0 l 138 47 l 621 544 l 163 544 l 163 494 l 115 494 l 115 592 l 693 592 l 693 544 z "},"{":{"ha":833,"x_min":203,"x_max":522,"o":"m 288 340 q 353 215 346 289 l 353 26 q 438 -106 353 -76 q 494 -114 464 -114 l 522 -114 l 522 -167 l 494 -167 q 328 -75 378 -167 q 303 26 303 -31 l 303 215 q 260 296 303 267 q 203 314 235 314 l 203 365 q 293 426 268 365 q 301 465 301 446 l 301 654 q 389 821 301 769 q 494 847 435 847 l 522 847 l 522 796 l 494 796 q 363 710 392 796 q 354 654 354 685 l 354 465 q 304 354 354 401 q 288 340 296 346 z "},"|":{"ha":833,"x_min":390,"x_max":443,"o":"m 443 781 l 443 -199 l 390 -199 l 390 781 l 443 781 z "},"}":{"ha":833,"x_min":210,"x_max":529,"o":"m 444 340 q 379 465 386 392 l 379 654 q 296 786 379 756 q 238 796 269 796 l 210 796 l 210 847 l 238 847 q 407 754 357 847 q 431 654 431 711 l 431 465 q 474 382 431 413 q 529 365 497 365 l 529 314 q 439 253 464 314 q 431 215 431 233 l 431 26 q 342 -142 431 -90 q 238 -167 296 -167 l 210 -167 l 210 -114 l 238 -114 q 371 -29 342 -114 q 379 26 379 -4 l 379 215 q 431 329 379 283 q 444 340 438 335 z "},"~":{"ha":833,"x_min":54,"x_max":779,"o":"m 54 350 q 178 435 129 418 q 243 444 208 444 q 411 379 324 444 q 510 311 486 322 q 590 292 549 292 q 731 358 656 292 q 749 375 736 364 l 779 339 q 649 253 699 269 q 590 244 621 244 q 421 311 508 244 q 321 379 344 368 q 243 397 283 397 q 110 336 178 397 q 85 314 104 331 l 54 350 z "}," ":{"ha":833,"x_min":0,"x_max":0,"o":""},"¡":{"ha":833,"x_min":282,"x_max":461,"o":"m 331 -25 l 344 606 l 396 606 l 410 -25 l 331 -25 m 461 769 q 413 700 461 722 q 372 692 393 692 q 290 736 315 692 q 282 769 282 751 q 332 839 282 818 q 372 847 350 847 q 453 803 428 847 q 461 769 461 788 z "},"¢":{"ha":833,"x_min":28,"x_max":625,"o":"m 563 600 l 569 632 l 615 622 q 599 544 615 622 q 625 494 611 526 l 576 478 q 419 607 528 574 q 340 618 381 618 q 136 526 215 618 q 79 374 79 460 q 175 186 79 261 q 353 128 253 128 q 525 179 431 128 q 556 199 543 189 l 583 153 q 397 81 514 96 q 364 78 381 78 l 364 -86 l 317 -86 l 317 79 q 88 200 171 93 q 28 372 28 276 q 135 596 28 507 q 317 668 214 661 l 317 858 l 364 858 l 364 668 q 543 599 461 663 q 563 600 561 585 z "},"£":{"ha":833,"x_min":111,"x_max":718,"o":"m 111 458 l 207 458 q 176 581 176 522 q 301 792 176 718 q 475 839 379 839 q 661 769 576 839 q 718 718 683 751 l 685 685 q 549 781 603 764 q 475 792 517 792 q 276 714 351 792 q 224 581 224 658 q 260 458 224 525 l 568 458 l 568 411 l 285 411 q 317 285 317 342 q 256 76 317 183 q 333 86 290 86 q 443 43 381 86 q 528 6 496 6 q 643 51 599 6 q 660 69 651 60 l 696 39 q 550 -40 636 -35 q 528 -42 539 -42 q 418 1 481 -42 q 333 39 365 39 q 192 -10 240 39 l 185 -17 l 185 -17 l 151 17 l 151 17 l 158 24 q 258 203 229 97 q 269 285 269 246 q 232 411 269 339 l 111 411 l 111 458 z "},"¤":{"ha":833,"x_min":106,"x_max":728,"o":"m 417 621 q 607 550 525 621 l 694 638 l 728 603 l 640 517 q 710 329 710 436 q 638 138 710 221 l 721 56 l 688 21 l 604 104 q 417 36 525 36 q 228 106 311 36 l 146 22 l 113 54 l 194 139 q 124 328 124 221 q 193 517 124 433 l 106 603 l 139 638 l 226 550 q 417 621 306 621 m 417 569 q 229 479 301 569 q 175 329 175 414 q 265 142 175 214 q 417 88 331 88 q 604 178 532 88 q 658 328 658 243 q 568 515 658 443 q 417 569 503 569 z "},"¥":{"ha":833,"x_min":82,"x_max":751,"o":"m 440 47 l 521 47 l 521 0 l 310 0 l 310 47 l 389 47 l 389 239 l 143 239 l 143 286 l 389 286 l 389 379 l 358 421 l 143 421 l 143 468 l 324 468 l 131 733 l 82 733 l 82 781 l 278 781 l 278 733 l 194 733 l 392 468 l 442 468 l 639 733 l 556 733 l 556 781 l 751 781 l 751 733 l 703 733 l 506 468 l 689 468 l 689 421 l 471 421 l 440 379 l 440 286 l 689 286 l 689 239 l 440 239 l 440 47 z "},"¦":{"ha":833,"x_min":390,"x_max":443,"o":"m 443 232 l 443 -199 l 390 -199 l 390 232 l 443 232 m 390 446 l 390 781 l 443 781 l 443 446 l 390 446 z "},"§":{"ha":833,"x_min":172,"x_max":615,"o":"m 306 515 l 303 513 q 219 399 219 449 q 369 232 219 326 q 403 211 328 258 l 482 158 l 485 161 q 568 275 568 225 q 425 439 568 344 l 385 464 q 306 515 308 513 m 236 14 l 236 -81 l 494 -81 q 558 -43 550 -81 q 560 -22 560 -35 q 449 124 560 46 l 285 233 q 172 399 172 317 q 268 546 172 468 q 181 697 181 618 q 293 803 181 803 l 614 803 l 614 661 l 567 661 l 567 756 l 293 756 q 229 718 238 756 q 228 697 228 710 q 340 550 228 629 l 503 442 q 615 275 615 357 q 526 133 615 207 q 521 129 524 131 q 607 -22 607 53 q 494 -128 607 -128 l 189 -128 l 189 14 l 236 14 z "},"¨":{"ha":833,"x_min":179,"x_max":503,"o":"m 179 722 q 214 772 179 760 q 232 775 222 775 q 282 740 269 775 q 285 722 285 732 q 250 672 285 685 q 232 669 242 669 q 182 704 194 669 q 179 722 179 713 m 397 722 q 432 772 397 760 q 450 775 440 775 q 500 740 488 775 q 503 722 503 732 q 468 672 503 685 q 450 669 460 669 q 400 704 413 669 q 397 722 397 713 z "},"©":{"ha":833,"x_min":22,"x_max":811,"o":"m 417 769 q 700 650 583 769 q 811 376 811 535 q 692 93 811 210 q 417 -18 576 -18 q 133 101 250 -18 q 22 375 22 217 q 142 658 22 542 q 417 769 257 769 m 417 722 q 161 610 264 722 q 69 376 69 511 q 182 121 69 224 q 417 29 282 29 q 672 142 569 29 q 764 375 764 240 q 651 631 764 528 q 417 722 551 722 m 569 215 q 419 147 508 147 q 253 233 315 147 q 208 369 208 294 q 289 544 208 478 q 418 592 346 592 q 576 515 515 592 l 540 486 q 419 544 490 544 q 286 471 335 544 q 256 369 256 426 q 326 225 256 276 q 418 194 368 194 q 535 247 489 194 l 569 215 z "},"ª":{"ha":833,"x_min":213,"x_max":628,"o":"m 624 225 l 224 225 l 224 272 l 624 272 l 624 225 m 519 600 q 364 622 435 622 q 258 568 292 622 q 244 519 244 546 q 313 433 244 461 q 378 421 343 421 q 500 471 451 421 q 519 492 510 479 l 519 600 m 550 429 l 628 429 l 628 400 l 519 400 l 519 446 q 378 389 465 389 q 243 443 292 389 q 213 519 213 476 q 288 635 213 597 q 364 653 324 653 q 519 632 429 653 l 519 646 q 463 714 519 686 q 376 733 424 733 q 243 699 325 733 l 231 726 q 281 746 231 726 q 376 764 340 764 q 522 710 469 764 q 550 646 550 681 l 550 429 z "},"«":{"ha":833,"x_min":18,"x_max":724,"o":"m 458 586 l 161 333 l 458 82 l 418 38 l 18 333 l 418 629 l 458 586 m 724 586 l 426 333 l 724 82 l 683 38 l 283 333 l 683 629 l 724 586 z "},"¬":{"ha":833,"x_min":99,"x_max":610,"o":"m 99 482 l 610 482 l 610 244 l 558 244 l 558 429 l 99 429 l 99 482 z "},"­":{"ha":833,"x_min":164,"x_max":596,"o":"m 164 403 l 596 403 l 596 351 l 164 351 l 164 403 z "},"®":{"ha":833,"x_min":22,"x_max":811,"o":"m 357 417 l 465 417 q 510 463 503 417 q 511 478 511 469 q 478 546 511 531 q 461 550 469 550 l 357 550 l 357 417 m 461 369 l 553 200 l 501 200 l 407 369 l 357 369 l 357 196 l 310 196 l 310 597 l 461 597 q 549 531 525 597 q 558 481 558 507 q 507 379 558 406 q 465 369 489 369 l 461 369 m 417 769 q 700 650 583 769 q 811 376 811 535 q 692 93 811 210 q 417 -18 576 -18 q 133 101 250 -18 q 22 375 22 217 q 142 658 22 542 q 417 769 257 769 m 417 722 q 161 610 264 722 q 69 376 69 511 q 182 121 69 224 q 417 29 282 29 q 672 142 569 29 q 764 375 764 240 q 651 631 764 528 q 417 722 551 722 z "},"¯":{"ha":833,"x_min":99,"x_max":581,"o":"m 99 781 l 581 781 l 581 733 l 99 733 l 99 781 z "},"°":{"ha":833,"x_min":394,"x_max":750,"o":"m 572 851 q 717 776 664 851 q 750 675 750 731 q 675 531 750 583 q 572 497 629 497 q 428 572 481 497 q 394 674 394 618 q 469 818 394 765 q 572 851 515 851 m 572 804 q 461 743 500 804 q 442 675 442 711 q 503 564 442 603 q 572 544 535 544 q 683 606 644 544 q 703 674 703 638 q 642 785 703 746 q 572 804 610 804 z "},"±":{"ha":833,"x_min":107,"x_max":642,"o":"m 394 579 l 394 442 l 640 442 l 640 390 l 396 390 l 396 268 l 344 268 l 344 390 l 107 390 l 107 442 l 343 442 l 343 579 l 394 579 m 107 172 l 642 172 l 642 121 l 107 121 l 107 172 z "},"²":{"ha":833,"x_min":272,"x_max":561,"o":"m 272 704 l 272 743 q 426 871 308 871 q 546 815 510 871 q 561 760 561 792 q 483 629 561 685 q 424 592 482 629 l 356 547 q 314 469 314 515 l 314 431 l 532 431 l 532 504 l 561 504 l 561 403 l 283 403 l 283 469 q 368 594 283 538 l 471 658 q 494 679 485 669 q 531 760 531 713 q 468 833 531 814 q 422 840 447 840 q 306 742 324 840 q 303 704 303 724 l 272 704 z "},"³":{"ha":833,"x_min":264,"x_max":569,"o":"m 510 663 q 569 542 569 626 q 493 424 569 464 q 408 404 454 404 q 286 463 340 404 q 267 485 283 467 l 289 506 q 354 447 333 458 q 408 435 378 435 q 521 488 483 435 q 539 542 539 511 q 494 638 539 607 q 460 650 478 650 l 406 650 l 406 681 l 460 681 q 532 724 513 681 q 539 753 539 738 q 460 838 539 819 q 415 842 439 842 q 289 768 339 842 l 264 786 q 415 874 324 874 q 557 806 521 874 q 569 753 569 782 q 510 663 569 692 z "},"´":{"ha":833,"x_min":261,"x_max":560,"o":"m 560 913 l 325 669 l 261 669 l 431 913 l 560 913 z "},"µ":{"ha":833,"x_min":39,"x_max":771,"o":"m 39 592 l 207 592 l 207 158 q 303 42 215 69 q 376 31 336 31 q 589 146 482 31 q 601 161 594 154 l 601 544 l 483 544 l 483 592 l 653 592 l 653 47 l 771 47 l 771 0 l 601 0 l 601 92 q 394 -19 506 -10 q 375 -21 385 -21 q 208 40 265 -21 l 208 -267 l 156 -267 l 156 544 l 39 544 l 39 592 z "},"¶":{"ha":833,"x_min":83,"x_max":797,"o":"m 471 364 l 471 733 l 378 733 q 189 672 263 733 q 131 549 131 622 q 272 378 131 418 q 369 364 318 364 l 471 364 m 522 733 l 522 -82 l 293 -82 l 293 -35 l 471 -35 l 471 317 l 369 317 q 156 385 236 317 q 83 549 83 444 q 233 751 83 690 q 378 781 303 781 l 760 781 l 760 733 l 707 733 l 707 -35 l 797 -35 l 797 -82 l 657 -82 l 657 733 l 522 733 z "},"·":{"ha":833,"x_min":322,"x_max":519,"o":"m 322 344 q 375 421 322 396 q 421 431 396 431 q 508 383 481 431 q 519 344 519 365 q 467 268 519 293 q 421 258 446 258 q 333 306 361 258 q 322 344 322 324 z "},"¸":{"ha":833,"x_min":372,"x_max":611,"o":"m 464 36 l 450 -39 q 586 -79 536 -21 q 611 -147 611 -110 q 531 -251 611 -218 q 372 -267 469 -276 l 379 -219 q 550 -181 507 -236 q 560 -156 560 -168 q 476 -82 560 -83 q 431 -87 456 -82 l 396 -96 l 413 35 l 464 36 z "},"¹":{"ha":833,"x_min":268,"x_max":565,"o":"m 272 432 l 404 432 l 404 836 l 285 751 l 268 771 l 414 874 l 433 874 l 433 432 l 565 432 l 565 407 l 433 407 l 404 407 l 272 407 l 272 432 z "},"º":{"ha":833,"x_min":224,"x_max":624,"o":"m 624 225 l 224 225 l 224 272 l 624 272 l 624 225 m 414 761 q 564 688 508 761 q 600 583 600 640 q 522 439 600 493 q 414 406 474 406 q 261 479 318 406 q 226 583 226 526 q 304 726 226 674 q 414 761 353 761 m 414 731 q 282 663 328 731 q 257 583 257 626 q 325 463 257 506 q 414 436 365 436 q 544 503 497 436 q 569 583 569 540 q 501 706 569 661 q 414 731 461 731 z "},"»":{"ha":833,"x_min":101,"x_max":808,"o":"m 368 586 l 408 629 l 808 333 l 408 38 l 368 82 l 665 333 l 368 586 m 101 586 l 142 629 l 542 333 l 142 38 l 101 82 l 399 333 l 101 586 z "},"¼":{"ha":833,"x_min":38,"x_max":813,"o":"m 274 7 l 561 878 l 606 864 l 318 -7 l 274 7 m 696 460 l 468 183 l 696 183 l 696 460 m 729 183 l 806 183 l 806 149 l 729 149 l 729 32 l 813 32 l 813 0 l 613 0 l 613 32 l 696 32 l 696 149 l 418 149 l 418 176 l 704 524 l 729 524 l 729 183 m 42 429 l 174 429 l 174 832 l 54 747 l 38 768 l 182 869 l 201 869 l 201 429 l 333 429 l 333 403 l 201 403 l 174 403 l 42 403 l 42 429 z "},"½":{"ha":833,"x_min":38,"x_max":808,"o":"m 274 7 l 561 878 l 606 865 l 318 -7 l 274 7 m 42 429 l 174 429 l 174 832 l 54 747 l 38 768 l 182 869 l 201 869 l 201 429 l 333 429 l 333 403 l 201 403 l 174 403 l 42 403 l 42 429 m 519 300 l 519 339 q 672 467 556 467 q 793 411 757 467 q 808 356 808 388 q 731 225 808 281 q 671 188 729 225 l 601 143 q 561 67 561 113 l 561 28 l 779 28 l 779 101 l 808 101 l 808 0 l 531 0 l 531 67 q 615 190 531 135 l 717 254 q 742 275 731 264 q 778 356 778 308 q 715 429 778 411 q 668 436 693 436 q 553 338 571 436 q 550 300 550 319 l 519 300 z "},"¾":{"ha":833,"x_min":40,"x_max":813,"o":"m 269 7 l 557 878 l 601 865 l 314 -7 l 269 7 m 696 460 l 468 183 l 696 183 l 696 460 m 729 183 l 806 183 l 806 149 l 729 149 l 729 32 l 813 32 l 813 0 l 613 0 l 613 32 l 696 32 l 696 149 l 418 149 l 418 176 l 704 524 l 729 524 l 729 183 m 288 663 q 347 542 347 626 q 271 424 347 464 q 186 404 232 404 q 64 463 118 404 q 44 485 61 467 l 67 506 q 132 447 111 458 q 186 435 156 435 q 297 486 261 435 q 315 542 315 511 q 272 638 315 607 q 238 650 256 650 l 182 650 l 182 681 l 238 681 q 310 724 290 681 q 317 753 317 738 q 242 836 317 818 q 193 842 219 842 q 67 768 117 842 l 40 786 q 193 874 104 874 q 335 806 299 874 q 347 753 347 782 q 288 663 347 692 z "},"¿":{"ha":833,"x_min":89,"x_max":581,"o":"m 354 560 l 354 479 q 278 351 354 417 l 199 285 q 140 165 140 228 q 240 46 140 81 q 340 29 286 29 q 507 85 456 29 q 529 140 529 108 l 529 165 l 581 165 l 581 140 q 469 0 581 44 q 342 -22 413 -22 q 136 51 208 -22 q 89 165 89 99 q 182 333 89 253 l 264 406 q 303 479 303 444 l 303 560 l 354 560 m 424 700 q 371 624 424 649 q 325 614 350 614 q 238 661 265 614 q 226 700 226 679 q 279 776 226 751 q 325 786 300 786 q 413 739 385 786 q 424 700 424 721 z "},"À":{"ha":833,"x_min":40,"x_max":793,"o":"m 151 1110 l 281 1110 l 450 867 l 385 867 l 151 1110 m 314 393 l 525 393 l 419 724 l 314 393 m 501 47 l 635 47 l 539 342 l 300 342 l 204 47 l 336 47 l 336 0 l 40 0 l 40 47 l 150 47 l 369 733 l 169 733 l 169 781 l 457 781 l 689 47 l 793 47 l 793 0 l 501 0 l 501 47 z "},"Á":{"ha":833,"x_min":40,"x_max":793,"o":"m 692 1110 l 457 867 l 393 867 l 563 1110 l 692 1110 m 314 393 l 525 393 l 419 724 l 314 393 m 501 47 l 635 47 l 539 342 l 300 342 l 204 47 l 336 47 l 336 0 l 40 0 l 40 47 l 150 47 l 369 733 l 169 733 l 169 781 l 457 781 l 689 47 l 793 47 l 793 0 l 501 0 l 501 47 z "},"Â":{"ha":833,"x_min":40,"x_max":793,"o":"m 599 886 l 579 867 l 419 996 l 254 867 l 235 886 l 403 1054 l 432 1054 l 599 886 m 314 393 l 525 393 l 419 724 l 314 393 m 501 47 l 635 47 l 539 342 l 300 342 l 204 47 l 336 47 l 336 0 l 40 0 l 40 47 l 150 47 l 369 733 l 169 733 l 169 781 l 457 781 l 689 47 l 793 47 l 793 0 l 501 0 l 501 47 z "},"Ã":{"ha":833,"x_min":40,"x_max":793,"o":"m 285 867 q 339 960 286 926 q 389 975 364 975 q 450 944 410 976 q 485 928 472 926 q 560 969 532 932 l 567 969 q 532 882 571 914 q 488 867 513 867 q 421 897 456 868 q 385 915 400 915 q 299 867 329 914 l 285 867 m 314 393 l 525 393 l 419 724 l 314 393 m 501 47 l 635 47 l 539 342 l 300 342 l 204 47 l 336 47 l 336 0 l 40 0 l 40 47 l 150 47 l 369 733 l 169 733 l 169 781 l 457 781 l 689 47 l 793 47 l 793 0 l 501 0 l 501 47 z "},"Ä":{"ha":833,"x_min":40,"x_max":793,"o":"m 256 919 q 290 969 256 957 q 308 972 299 972 q 358 938 346 972 q 361 919 361 929 q 326 869 361 882 q 308 867 318 867 q 258 901 271 867 q 256 919 256 910 m 474 919 q 508 969 474 957 q 526 972 517 972 q 576 938 564 972 q 579 919 579 929 q 544 869 579 882 q 526 867 536 867 q 476 901 489 867 q 474 919 474 910 m 314 393 l 525 393 l 419 724 l 314 393 m 501 47 l 635 47 l 539 342 l 300 342 l 204 47 l 336 47 l 336 0 l 40 0 l 40 47 l 150 47 l 369 733 l 169 733 l 169 781 l 457 781 l 689 47 l 793 47 l 793 0 l 501 0 l 501 47 z "},"Å":{"ha":833,"x_min":40,"x_max":793,"o":"m 417 1092 q 524 1032 486 1092 q 543 965 543 1001 q 483 858 543 896 q 417 839 453 839 q 310 899 347 839 q 290 965 290 929 q 350 1072 290 1035 q 417 1092 381 1092 m 417 1044 q 346 1001 369 1044 q 338 965 338 985 q 381 894 338 918 q 417 886 397 886 q 488 929 464 886 q 496 965 496 946 q 453 1036 496 1013 q 417 1044 436 1044 m 314 393 l 525 393 l 419 724 l 314 393 m 501 47 l 635 47 l 539 342 l 300 342 l 204 47 l 336 47 l 336 0 l 40 0 l 40 47 l 150 47 l 369 733 l 169 733 l 169 781 l 457 781 l 689 47 l 793 47 l 793 0 l 501 0 l 501 47 z "},"Æ":{"ha":833,"x_min":33,"x_max":801,"o":"m 433 393 l 433 724 l 318 393 l 433 393 m 675 558 l 675 360 l 628 360 l 628 446 l 485 446 l 485 47 l 738 47 l 754 168 l 801 168 l 785 0 l 433 0 l 433 342 l 300 342 l 197 47 l 329 47 l 329 0 l 33 0 l 33 47 l 143 47 l 383 733 l 163 733 l 163 781 l 785 781 l 797 621 l 750 621 l 738 733 l 485 733 l 485 493 l 628 493 l 628 558 l 675 558 z "},"Ç":{"ha":833,"x_min":121,"x_max":713,"o":"m 476 7 l 463 -68 q 599 -108 549 -50 q 624 -176 624 -139 q 543 -281 624 -247 q 385 -296 482 -306 l 392 -249 q 563 -210 519 -265 q 572 -185 572 -197 q 489 -111 572 -112 q 443 -117 468 -111 l 408 -125 l 425 6 l 476 7 m 451 783 q 625 722 567 783 q 640 722 639 713 q 657 781 644 756 l 704 781 q 686 683 686 731 q 713 592 686 658 l 664 592 q 547 713 640 674 q 451 732 500 732 q 249 625 332 732 q 172 390 172 526 q 274 126 172 229 q 451 49 351 49 q 614 107 540 49 q 646 139 632 122 l 689 110 q 515 6 626 32 q 451 -3 482 -3 q 210 121 307 -3 q 121 390 121 235 q 226 679 121 563 q 451 783 321 783 z "},"È":{"ha":833,"x_min":103,"x_max":731,"o":"m 142 1110 l 271 1110 l 440 867 l 375 867 l 142 1110 m 604 558 l 604 360 l 557 360 l 557 446 l 288 446 l 288 47 l 667 47 l 683 168 l 731 168 l 714 0 l 103 0 l 103 47 l 238 47 l 238 733 l 103 733 l 103 781 l 714 781 l 726 621 l 679 621 l 667 733 l 288 733 l 288 493 l 557 493 l 557 558 l 604 558 z "},"É":{"ha":833,"x_min":103,"x_max":731,"o":"m 675 1110 l 440 867 l 376 867 l 546 1110 l 675 1110 m 604 558 l 604 360 l 557 360 l 557 446 l 288 446 l 288 47 l 667 47 l 683 168 l 731 168 l 714 0 l 103 0 l 103 47 l 238 47 l 238 733 l 103 733 l 103 781 l 714 781 l 726 621 l 679 621 l 667 733 l 288 733 l 288 493 l 557 493 l 557 558 l 604 558 z "},"Ê":{"ha":833,"x_min":103,"x_max":731,"o":"m 590 886 l 571 867 l 411 996 l 246 867 l 226 886 l 394 1054 l 424 1054 l 590 886 m 604 558 l 604 360 l 557 360 l 557 446 l 288 446 l 288 47 l 667 47 l 683 168 l 731 168 l 714 0 l 103 0 l 103 47 l 238 47 l 238 733 l 103 733 l 103 781 l 714 781 l 726 621 l 679 621 l 667 733 l 288 733 l 288 493 l 557 493 l 557 558 l 604 558 z "},"Ë":{"ha":833,"x_min":103,"x_max":731,"o":"m 246 919 q 281 969 246 957 q 299 972 289 972 q 349 938 336 972 q 351 919 351 929 q 317 869 351 882 q 299 867 308 867 q 249 901 261 867 q 246 919 246 910 m 464 919 q 499 969 464 957 q 517 972 507 972 q 567 938 554 972 q 569 919 569 929 q 535 869 569 882 q 517 867 526 867 q 467 901 479 867 q 464 919 464 910 m 604 558 l 604 360 l 557 360 l 557 446 l 288 446 l 288 47 l 667 47 l 683 168 l 731 168 l 714 0 l 103 0 l 103 47 l 238 47 l 238 733 l 103 733 l 103 781 l 714 781 l 726 621 l 679 621 l 667 733 l 288 733 l 288 493 l 557 493 l 557 558 l 604 558 z "},"Ì":{"ha":833,"x_min":124,"x_max":710,"o":"m 151 1110 l 281 1110 l 450 867 l 385 867 l 151 1110 m 396 733 l 125 733 l 125 781 l 710 781 l 710 733 l 446 733 l 446 47 l 708 47 l 708 0 l 124 0 l 124 47 l 396 47 l 396 733 z "},"Í":{"ha":833,"x_min":124,"x_max":710,"o":"m 683 1110 l 449 867 l 385 867 l 554 1110 l 683 1110 m 396 733 l 125 733 l 125 781 l 710 781 l 710 733 l 446 733 l 446 47 l 708 47 l 708 0 l 124 0 l 124 47 l 396 47 l 396 733 z "},"Î":{"ha":833,"x_min":124,"x_max":710,"o":"m 599 886 l 579 867 l 419 996 l 254 867 l 235 886 l 403 1054 l 432 1054 l 599 886 m 396 733 l 125 733 l 125 781 l 710 781 l 710 733 l 446 733 l 446 47 l 708 47 l 708 0 l 124 0 l 124 47 l 396 47 l 396 733 z "},"Ï":{"ha":833,"x_min":124,"x_max":710,"o":"m 256 919 q 290 969 256 957 q 308 972 299 972 q 358 938 346 972 q 361 919 361 929 q 326 869 361 882 q 308 867 318 867 q 258 901 271 867 q 256 919 256 910 m 474 919 q 508 969 474 957 q 526 972 517 972 q 576 938 564 972 q 579 919 579 929 q 544 869 579 882 q 526 867 536 867 q 476 901 489 867 q 474 919 474 910 m 396 733 l 125 733 l 125 781 l 710 781 l 710 733 l 446 733 l 446 47 l 708 47 l 708 0 l 124 0 l 124 47 l 396 47 l 396 733 z "},"Ð":{"ha":833,"x_min":72,"x_max":761,"o":"m 257 47 l 482 47 q 643 158 571 47 q 713 394 713 268 q 658 600 713 496 q 482 733 589 733 l 257 733 l 257 439 l 353 439 l 353 392 l 257 392 l 257 47 m 72 47 l 206 47 l 206 392 l 114 392 l 114 439 l 206 439 l 206 733 l 72 733 l 72 781 l 482 781 q 708 613 628 781 q 761 397 761 506 q 701 154 761 269 q 482 0 622 0 l 72 0 l 72 47 z "},"Ñ":{"ha":833,"x_min":13,"x_max":821,"o":"m 275 867 q 329 960 276 926 q 379 975 354 975 q 440 944 400 976 q 475 928 463 926 q 550 969 522 932 l 557 969 q 522 882 561 914 q 478 867 503 867 q 411 897 446 868 q 375 915 390 915 q 289 867 319 914 l 275 867 m 706 75 l 706 733 l 560 733 l 560 781 l 821 781 l 821 733 l 757 733 l 757 -10 l 706 -10 l 131 733 l 128 733 l 128 47 l 272 47 l 272 0 l 13 0 l 13 47 l 78 47 l 78 733 l 13 733 l 13 781 l 161 781 q 706 75 161 779 z "},"Ò":{"ha":833,"x_min":86,"x_max":747,"o":"m 150 1110 l 279 1110 l 449 867 l 383 867 l 150 1110 m 417 783 q 657 660 560 783 q 747 390 747 546 q 640 101 747 218 q 417 -3 546 -3 q 176 121 274 -3 q 86 390 86 235 q 193 679 86 563 q 417 783 288 783 m 417 732 q 214 625 297 732 q 138 390 138 526 q 239 126 138 229 q 417 49 317 49 q 619 156 536 49 q 696 390 696 254 q 594 654 696 551 q 417 732 517 732 z "},"Ó":{"ha":833,"x_min":86,"x_max":747,"o":"m 683 1110 l 449 867 l 385 867 l 554 1110 l 683 1110 m 417 783 q 657 660 560 783 q 747 390 747 546 q 640 101 747 218 q 417 -3 546 -3 q 176 121 274 -3 q 86 390 86 235 q 193 679 86 563 q 417 783 288 783 m 417 732 q 214 625 297 732 q 138 390 138 526 q 239 126 138 229 q 417 49 317 49 q 619 156 536 49 q 696 390 696 254 q 594 654 696 551 q 417 732 517 732 z "},"Ô":{"ha":833,"x_min":86,"x_max":747,"o":"m 599 886 l 579 867 l 419 996 l 254 867 l 235 886 l 403 1054 l 432 1054 l 599 886 m 417 783 q 657 660 560 783 q 747 390 747 546 q 640 101 747 218 q 417 -3 546 -3 q 176 121 274 -3 q 86 390 86 235 q 193 679 86 563 q 417 783 288 783 m 417 732 q 214 625 297 732 q 138 390 138 526 q 239 126 138 229 q 417 49 317 49 q 619 156 536 49 q 696 390 696 254 q 594 654 696 551 q 417 732 517 732 z "},"Õ":{"ha":833,"x_min":86,"x_max":747,"o":"m 275 867 q 329 960 276 926 q 379 975 354 975 q 440 944 400 976 q 475 928 463 926 q 550 969 522 932 l 557 969 q 522 882 561 914 q 478 867 503 867 q 411 897 446 868 q 375 915 390 915 q 289 867 319 914 l 275 867 m 417 783 q 657 660 560 783 q 747 390 747 546 q 640 101 747 218 q 417 -3 546 -3 q 176 121 274 -3 q 86 390 86 235 q 193 679 86 563 q 417 783 288 783 m 417 732 q 214 625 297 732 q 138 390 138 526 q 239 126 138 229 q 417 49 317 49 q 619 156 536 49 q 696 390 696 254 q 594 654 696 551 q 417 732 517 732 z "},"Ö":{"ha":833,"x_min":86,"x_max":747,"o":"m 254 919 q 289 969 254 957 q 307 972 297 972 q 357 938 344 972 q 360 919 360 929 q 325 869 360 882 q 307 867 317 867 q 257 901 269 867 q 254 919 254 910 m 472 919 q 507 969 472 957 q 525 972 515 972 q 575 938 563 972 q 578 919 578 929 q 543 869 578 882 q 525 867 535 867 q 475 901 488 867 q 472 919 472 910 m 417 783 q 657 660 560 783 q 747 390 747 546 q 640 101 747 218 q 417 -3 546 -3 q 176 121 274 -3 q 86 390 86 235 q 193 679 86 563 q 417 783 288 783 m 417 732 q 214 625 297 732 q 138 390 138 526 q 239 126 138 229 q 417 49 317 49 q 619 156 536 49 q 696 390 696 254 q 594 654 696 551 q 417 732 517 732 z "},"×":{"ha":833,"x_min":261,"x_max":572,"o":"m 572 496 l 450 374 l 572 251 l 539 218 l 417 340 l 294 218 l 261 251 l 383 374 l 261 496 l 294 529 l 417 407 l 539 529 l 572 496 z "},"Ø":{"ha":833,"x_min":86,"x_max":747,"o":"m 417 783 q 607 711 522 783 l 685 825 l 724 797 l 642 679 q 747 390 747 560 q 642 101 747 218 q 417 -3 547 -3 q 221 74 308 -3 l 143 -39 l 104 -11 l 188 108 q 86 390 86 225 q 192 679 86 563 q 417 783 286 783 m 250 117 q 417 49 325 49 q 619 156 536 49 q 696 390 696 254 q 611 635 696 533 l 250 117 m 417 732 q 214 625 297 732 q 138 390 138 526 q 218 151 138 250 l 576 669 q 417 732 503 732 z "},"Ù":{"ha":833,"x_min":39,"x_max":794,"o":"m 150 1110 l 279 1110 l 449 867 l 383 867 l 150 1110 m 794 733 l 696 733 l 696 249 q 624 85 696 165 q 417 -10 538 -10 q 201 99 290 -10 q 138 249 138 176 l 138 733 l 39 733 l 39 781 l 322 781 l 322 733 l 183 733 l 183 249 q 244 125 183 194 q 415 38 322 38 q 600 133 524 38 q 649 249 649 194 l 649 733 l 511 733 l 511 781 l 794 781 l 794 733 z "},"Ú":{"ha":833,"x_min":39,"x_max":794,"o":"m 683 1110 l 449 867 l 385 867 l 554 1110 l 683 1110 m 794 733 l 696 733 l 696 249 q 624 85 696 165 q 417 -10 538 -10 q 201 99 290 -10 q 138 249 138 176 l 138 733 l 39 733 l 39 781 l 322 781 l 322 733 l 183 733 l 183 249 q 244 125 183 194 q 415 38 322 38 q 600 133 524 38 q 649 249 649 194 l 649 733 l 511 733 l 511 781 l 794 781 l 794 733 z "},"Û":{"ha":833,"x_min":39,"x_max":794,"o":"m 599 886 l 579 867 l 419 996 l 254 867 l 235 886 l 403 1054 l 432 1054 l 599 886 m 794 733 l 696 733 l 696 249 q 624 85 696 165 q 417 -10 538 -10 q 201 99 290 -10 q 138 249 138 176 l 138 733 l 39 733 l 39 781 l 322 781 l 322 733 l 183 733 l 183 249 q 244 125 183 194 q 415 38 322 38 q 600 133 524 38 q 649 249 649 194 l 649 733 l 511 733 l 511 781 l 794 781 l 794 733 z "},"Ü":{"ha":833,"x_min":39,"x_max":794,"o":"m 254 919 q 289 969 254 957 q 307 972 297 972 q 357 938 344 972 q 360 919 360 929 q 325 869 360 882 q 307 867 317 867 q 257 901 269 867 q 254 919 254 910 m 472 919 q 507 969 472 957 q 525 972 515 972 q 575 938 563 972 q 578 919 578 929 q 543 869 578 882 q 525 867 535 867 q 475 901 488 867 q 472 919 472 910 m 794 733 l 696 733 l 696 249 q 624 85 696 165 q 417 -10 538 -10 q 201 99 290 -10 q 138 249 138 176 l 138 733 l 39 733 l 39 781 l 322 781 l 322 733 l 183 733 l 183 249 q 244 125 183 194 q 415 38 322 38 q 600 133 524 38 q 649 249 649 194 l 649 733 l 511 733 l 511 781 l 794 781 l 794 733 z "},"Ý":{"ha":833,"x_min":82,"x_max":751,"o":"m 683 1110 l 449 867 l 385 867 l 554 1110 l 683 1110 m 440 47 l 521 47 l 521 0 l 310 0 l 310 47 l 389 47 l 389 379 l 131 733 l 82 733 l 82 781 l 278 781 l 278 733 l 194 733 l 417 433 l 639 733 l 556 733 l 556 781 l 751 781 l 751 733 l 703 733 l 440 379 l 440 47 z "},"Þ":{"ha":833,"x_min":74,"x_max":774,"o":"m 258 326 l 536 326 q 726 467 726 326 q 594 606 726 592 q 536 608 572 608 l 258 608 l 258 326 m 74 47 l 207 47 l 207 733 l 74 733 l 74 781 l 393 781 l 393 731 l 260 731 l 260 656 l 536 656 q 774 467 774 656 q 610 286 774 317 q 536 279 575 279 l 258 279 l 258 47 l 392 47 l 392 0 l 74 0 l 74 47 z "},"ß":{"ha":833,"x_min":46,"x_max":794,"o":"m 442 875 q 644 799 563 875 q 700 693 700 747 q 638 596 700 633 q 550 568 601 575 q 376 494 426 551 q 358 451 358 474 q 461 346 358 381 l 664 294 q 793 171 785 256 q 794 156 794 164 q 685 19 794 65 q 546 -7 622 -7 q 389 39 460 -7 q 374 32 378 47 l 351 -17 l 304 -17 l 325 29 q 338 83 338 57 q 310 153 338 108 q 304 161 307 158 l 353 161 q 371 131 353 161 q 528 46 425 54 q 547 44 538 44 q 725 106 678 44 q 743 156 743 128 q 647 251 743 219 l 446 300 q 308 431 319 340 q 307 451 307 440 q 508 611 307 568 q 551 619 528 615 q 636 693 636 635 q 568 789 636 746 q 440 824 511 824 q 247 776 324 824 q 197 701 197 744 l 199 1 l 199 0 l 46 0 l 46 47 l 147 47 l 147 544 l 46 544 l 46 592 l 147 592 l 147 701 q 294 854 147 810 q 442 875 363 875 z "},"à":{"ha":833,"x_min":57,"x_max":749,"o":"m 64 933 l 193 933 l 363 690 l 297 690 l 64 933 m 568 332 q 310 369 422 369 q 146 299 206 369 q 108 199 108 254 q 204 61 108 110 q 332 32 263 32 q 517 99 443 32 q 568 153 540 119 l 568 332 m 619 47 l 749 47 l 749 0 l 568 0 l 568 75 q 364 -18 482 -11 q 332 -19 349 -19 q 125 53 208 -19 q 57 199 57 113 q 161 378 57 314 q 310 421 228 421 q 568 385 426 421 l 568 408 q 489 514 568 468 q 329 556 418 556 q 107 496 242 556 l 88 543 q 169 575 88 543 q 329 607 268 607 q 554 533 465 607 q 619 408 619 479 l 619 47 z "},"á":{"ha":833,"x_min":57,"x_max":749,"o":"m 596 933 l 361 690 l 297 690 l 467 933 l 596 933 m 568 332 q 310 369 422 369 q 146 299 206 369 q 108 199 108 254 q 204 61 108 110 q 332 32 263 32 q 517 99 443 32 q 568 153 540 119 l 568 332 m 619 47 l 749 47 l 749 0 l 568 0 l 568 75 q 364 -18 482 -11 q 332 -19 349 -19 q 125 53 208 -19 q 57 199 57 113 q 161 378 57 314 q 310 421 228 421 q 568 385 426 421 l 568 408 q 489 514 568 468 q 329 556 418 556 q 107 496 242 556 l 88 543 q 169 575 88 543 q 329 607 268 607 q 554 533 465 607 q 619 408 619 479 l 619 47 z "},"â":{"ha":833,"x_min":57,"x_max":749,"o":"m 511 710 l 492 690 l 332 819 l 167 690 l 147 710 l 315 878 l 344 878 l 511 710 m 568 332 q 310 369 422 369 q 146 299 206 369 q 108 199 108 254 q 204 61 108 110 q 332 32 263 32 q 517 99 443 32 q 568 153 540 119 l 568 332 m 619 47 l 749 47 l 749 0 l 568 0 l 568 75 q 364 -18 482 -11 q 332 -19 349 -19 q 125 53 208 -19 q 57 199 57 113 q 161 378 57 314 q 310 421 228 421 q 568 385 426 421 l 568 408 q 489 514 568 468 q 329 556 418 556 q 107 496 242 556 l 88 543 q 169 575 88 543 q 329 607 268 607 q 554 533 465 607 q 619 408 619 479 l 619 47 z "},"ã":{"ha":833,"x_min":57,"x_max":749,"o":"m 188 690 q 242 783 189 750 q 292 799 267 799 q 353 768 313 800 q 388 751 375 750 q 463 793 435 756 l 469 793 q 435 706 474 738 q 390 690 415 690 q 324 721 358 692 q 288 739 303 739 q 201 690 232 738 l 188 690 m 568 332 q 310 369 422 369 q 146 299 206 369 q 108 199 108 254 q 204 61 108 110 q 332 32 263 32 q 517 99 443 32 q 568 153 540 119 l 568 332 m 619 47 l 749 47 l 749 0 l 568 0 l 568 75 q 364 -18 482 -11 q 332 -19 349 -19 q 125 53 208 -19 q 57 199 57 113 q 161 378 57 314 q 310 421 228 421 q 568 385 426 421 l 568 408 q 489 514 568 468 q 329 556 418 556 q 107 496 242 556 l 88 543 q 169 575 88 543 q 329 607 268 607 q 554 533 465 607 q 619 408 619 479 l 619 47 z "},"ä":{"ha":833,"x_min":57,"x_max":749,"o":"m 167 743 q 201 793 167 781 q 219 796 210 796 q 269 761 257 796 q 272 743 272 753 q 238 693 272 706 q 219 690 229 690 q 169 725 182 690 q 167 743 167 733 m 385 743 q 419 793 385 781 q 438 796 428 796 q 488 761 475 796 q 490 743 490 753 q 456 693 490 706 q 438 690 447 690 q 388 725 400 690 q 385 743 385 733 m 568 332 q 310 369 422 369 q 146 299 206 369 q 108 199 108 254 q 204 61 108 110 q 332 32 263 32 q 517 99 443 32 q 568 153 540 119 l 568 332 m 619 47 l 749 47 l 749 0 l 568 0 l 568 75 q 364 -18 482 -11 q 332 -19 349 -19 q 125 53 208 -19 q 57 199 57 113 q 161 378 57 314 q 310 421 228 421 q 568 385 426 421 l 568 408 q 489 514 568 468 q 329 556 418 556 q 107 496 242 556 l 88 543 q 169 575 88 543 q 329 607 268 607 q 554 533 465 607 q 619 408 619 479 l 619 47 z "},"å":{"ha":833,"x_min":57,"x_max":749,"o":"m 329 943 q 436 883 399 943 q 456 817 456 853 q 396 710 456 747 q 329 690 365 690 q 222 750 260 690 q 203 817 203 781 q 263 924 203 886 q 329 943 293 943 m 329 896 q 258 853 282 896 q 250 817 250 836 q 293 746 250 769 q 329 738 310 738 q 400 781 376 738 q 408 817 408 797 q 365 888 408 864 q 329 896 349 896 m 568 332 q 310 369 422 369 q 146 299 206 369 q 108 199 108 254 q 204 61 108 110 q 332 32 263 32 q 517 99 443 32 q 568 153 540 119 l 568 332 m 619 47 l 749 47 l 749 0 l 568 0 l 568 75 q 364 -18 482 -11 q 332 -19 349 -19 q 125 53 208 -19 q 57 199 57 113 q 161 378 57 314 q 310 421 228 421 q 568 385 426 421 l 568 408 q 489 514 568 468 q 329 556 418 556 q 107 496 242 556 l 88 543 q 169 575 88 543 q 329 607 268 607 q 554 533 465 607 q 619 408 619 479 l 619 47 z "},"æ":{"ha":833,"x_min":26,"x_max":807,"o":"m 753 343 q 700 508 743 468 q 601 542 665 542 q 449 376 471 542 q 446 343 447 361 l 753 343 m 394 332 l 304 361 q 222 369 265 369 q 99 272 131 369 q 88 199 88 238 q 150 64 88 113 q 243 32 189 32 q 351 92 304 32 q 394 153 364 108 l 394 332 m 431 110 q 356 18 376 36 q 243 -19 311 -19 q 54 79 110 -19 q 26 199 26 129 q 131 401 26 350 q 222 421 171 421 q 363 394 282 421 q 394 385 381 389 l 394 408 q 240 556 394 556 q 94 508 171 556 q 76 497 88 504 l 57 544 q 179 597 93 575 q 240 607 215 607 q 432 492 392 607 q 601 593 483 593 q 797 422 763 593 q 807 296 807 369 l 446 296 q 563 60 446 97 q 615 51 586 51 q 733 107 685 51 q 757 135 715 86 l 789 96 q 632 1 717 8 q 615 0 624 0 q 431 110 483 0 z "},"ç":{"ha":833,"x_min":96,"x_max":693,"o":"m 447 10 l 433 -65 q 569 -106 519 -47 q 594 -174 594 -136 q 514 -278 594 -244 q 356 -293 453 -303 l 363 -246 q 533 -207 490 -262 q 543 -182 543 -194 q 460 -108 543 -110 q 414 -114 439 -108 l 379 -122 l 396 8 l 447 10 m 631 524 l 638 554 l 683 544 q 667 467 683 544 q 693 417 679 449 l 644 400 q 488 531 596 497 q 408 542 449 542 q 204 450 283 542 q 147 296 147 382 q 243 110 147 183 q 421 51 321 51 q 590 101 499 51 q 624 122 610 111 l 651 76 q 465 3 582 19 q 421 0 442 0 q 171 104 267 0 q 96 296 96 186 q 201 518 96 429 q 408 593 290 593 q 611 521 518 593 q 631 524 628 510 z "},"è":{"ha":833,"x_min":96,"x_max":721,"o":"m 142 919 l 271 919 l 440 676 l 375 676 l 142 919 m 664 343 q 543 507 642 450 q 408 542 481 542 q 206 450 283 542 q 153 343 165 403 l 664 343 m 721 296 l 147 296 q 243 110 147 183 q 415 51 318 51 q 629 118 526 51 q 643 128 636 124 l 676 89 q 458 3 590 17 q 415 0 436 0 q 178 99 275 0 q 96 296 96 183 q 201 518 96 429 q 408 593 290 593 q 644 493 551 593 q 721 296 721 410 z "},"é":{"ha":833,"x_min":96,"x_max":721,"o":"m 675 919 l 440 676 l 376 676 l 546 919 l 675 919 m 664 343 q 543 507 642 450 q 408 542 481 542 q 206 450 283 542 q 153 343 165 403 l 664 343 m 721 296 l 147 296 q 243 110 147 183 q 415 51 318 51 q 629 118 526 51 q 643 128 636 124 l 676 89 q 458 3 590 17 q 415 0 436 0 q 178 99 275 0 q 96 296 96 183 q 201 518 96 429 q 408 593 290 593 q 644 493 551 593 q 721 296 721 410 z "},"ê":{"ha":833,"x_min":96,"x_max":721,"o":"m 590 696 l 571 676 l 411 806 l 246 676 l 226 696 l 394 864 l 424 864 l 590 696 m 664 343 q 543 507 642 450 q 408 542 481 542 q 206 450 283 542 q 153 343 165 403 l 664 343 m 721 296 l 147 296 q 243 110 147 183 q 415 51 318 51 q 629 118 526 51 q 643 128 636 124 l 676 89 q 458 3 590 17 q 415 0 436 0 q 178 99 275 0 q 96 296 96 183 q 201 518 96 429 q 408 593 290 593 q 644 493 551 593 q 721 296 721 410 z "},"ë":{"ha":833,"x_min":96,"x_max":721,"o":"m 246 729 q 281 779 246 767 q 299 782 289 782 q 349 747 336 782 q 351 729 351 739 q 317 679 351 692 q 299 676 308 676 q 249 711 261 676 q 246 729 246 719 m 464 729 q 499 779 464 767 q 517 782 507 782 q 567 747 554 782 q 569 729 569 739 q 535 679 569 692 q 517 676 526 676 q 467 711 479 676 q 464 729 464 719 m 664 343 q 543 507 642 450 q 408 542 481 542 q 206 450 283 542 q 153 343 165 403 l 664 343 m 721 296 l 147 296 q 243 110 147 183 q 415 51 318 51 q 629 118 526 51 q 643 128 636 124 l 676 89 q 458 3 590 17 q 415 0 436 0 q 178 99 275 0 q 96 296 96 183 q 201 518 96 429 q 408 593 290 593 q 644 493 551 593 q 721 296 721 410 z "},"ì":{"ha":833,"x_min":143,"x_max":693,"o":"m 160 919 l 289 919 l 458 676 l 393 676 l 160 919 m 401 544 l 143 544 l 143 592 l 453 592 l 453 47 l 693 47 l 693 0 l 143 0 l 143 47 l 401 47 l 401 544 z "},"í":{"ha":833,"x_min":143,"x_max":693,"o":"m 693 919 l 458 676 l 394 676 l 564 919 l 693 919 m 401 544 l 143 544 l 143 592 l 453 592 l 453 47 l 693 47 l 693 0 l 143 0 l 143 47 l 401 47 l 401 544 z "},"î":{"ha":833,"x_min":143,"x_max":693,"o":"m 608 696 l 589 676 l 429 806 l 264 676 l 244 696 l 413 864 l 442 864 l 608 696 m 401 544 l 143 544 l 143 592 l 453 592 l 453 47 l 693 47 l 693 0 l 143 0 l 143 47 l 401 47 l 401 544 z "},"ï":{"ha":833,"x_min":143,"x_max":693,"o":"m 264 729 q 299 779 264 767 q 317 782 307 782 q 367 747 354 782 q 369 729 369 739 q 335 679 369 692 q 317 676 326 676 q 267 711 279 676 q 264 729 264 719 m 482 729 q 517 779 482 767 q 535 782 525 782 q 585 747 572 782 q 588 729 588 739 q 553 679 588 692 q 535 676 544 676 q 485 711 497 676 q 482 729 482 719 m 401 544 l 143 544 l 143 592 l 453 592 l 453 47 l 693 47 l 693 0 l 143 0 l 143 47 l 401 47 l 401 544 z "},"ð":{"ha":833,"x_min":96,"x_max":721,"o":"m 408 542 q 204 450 283 542 q 147 296 147 382 q 240 107 147 181 q 408 50 313 50 q 613 142 533 50 q 669 296 669 210 q 576 485 669 411 q 408 542 504 542 m 610 522 q 444 736 547 646 l 331 663 l 306 701 l 406 768 q 307 819 353 806 l 324 869 q 451 797 385 849 l 558 868 l 583 829 l 489 767 q 693 460 633 636 q 721 299 721 376 l 721 296 q 615 74 721 163 q 408 -1 526 -1 q 174 99 268 -1 q 96 296 96 183 q 201 518 96 429 q 408 593 290 593 q 610 522 521 593 z "},"ñ":{"ha":833,"x_min":31,"x_max":800,"o":"m 274 694 q 328 788 275 754 q 378 803 353 803 q 439 772 399 804 q 474 756 461 754 q 549 797 521 760 l 556 797 q 521 710 560 742 q 476 694 501 694 q 410 725 444 696 q 374 743 389 743 q 288 694 318 742 l 274 694 m 201 522 q 256 551 247 547 q 446 611 367 611 q 619 535 540 611 q 682 411 682 474 l 682 47 l 800 47 l 800 0 l 511 0 l 511 47 l 632 47 l 632 411 q 569 511 632 460 q 446 560 510 560 q 208 465 354 560 q 201 461 204 464 l 201 47 l 319 47 l 319 0 l 31 0 l 31 47 l 151 47 l 151 544 l 31 544 l 31 592 l 203 592 q 201 522 199 572 z "},"ò":{"ha":833,"x_min":104,"x_max":729,"o":"m 150 919 l 279 919 l 449 676 l 383 676 l 150 919 m 417 593 q 651 493 557 593 q 729 296 729 408 q 624 74 729 163 q 417 -1 535 -1 q 182 99 276 -1 q 104 296 104 183 q 210 518 104 429 q 417 593 299 593 m 417 542 q 215 451 294 542 q 156 296 156 383 q 249 107 156 181 q 417 50 321 50 q 624 143 549 50 q 678 296 678 208 q 576 492 678 419 q 417 542 507 542 z "},"ó":{"ha":833,"x_min":104,"x_max":729,"o":"m 683 919 l 449 676 l 385 676 l 554 919 l 683 919 m 417 593 q 651 493 557 593 q 729 296 729 408 q 624 74 729 163 q 417 -1 535 -1 q 182 99 276 -1 q 104 296 104 183 q 210 518 104 429 q 417 593 299 593 m 417 542 q 215 451 294 542 q 156 296 156 383 q 249 107 156 181 q 417 50 321 50 q 624 143 549 50 q 678 296 678 208 q 576 492 678 419 q 417 542 507 542 z "},"ô":{"ha":833,"x_min":104,"x_max":729,"o":"m 599 696 l 579 676 l 419 806 l 254 676 l 235 696 l 403 864 l 432 864 l 599 696 m 417 593 q 651 493 557 593 q 729 296 729 408 q 624 74 729 163 q 417 -1 535 -1 q 182 99 276 -1 q 104 296 104 183 q 210 518 104 429 q 417 593 299 593 m 417 542 q 215 451 294 542 q 156 296 156 383 q 249 107 156 181 q 417 50 321 50 q 624 143 549 50 q 678 296 678 208 q 576 492 678 419 q 417 542 507 542 z "},"õ":{"ha":833,"x_min":104,"x_max":729,"o":"m 275 676 q 329 769 276 736 q 379 785 354 785 q 440 754 400 786 q 475 738 463 736 q 550 779 522 742 l 557 779 q 522 692 561 724 q 478 676 503 676 q 411 707 446 678 q 375 725 390 725 q 289 676 319 724 l 275 676 m 417 593 q 651 493 557 593 q 729 296 729 408 q 624 74 729 163 q 417 -1 535 -1 q 182 99 276 -1 q 104 296 104 183 q 210 518 104 429 q 417 593 299 593 m 417 542 q 215 451 294 542 q 156 296 156 383 q 249 107 156 181 q 417 50 321 50 q 624 143 549 50 q 678 296 678 208 q 576 492 678 419 q 417 542 507 542 z "},"ö":{"ha":833,"x_min":104,"x_max":729,"o":"m 254 729 q 289 779 254 767 q 307 782 297 782 q 357 747 344 782 q 360 729 360 739 q 325 679 360 692 q 307 676 317 676 q 257 711 269 676 q 254 729 254 719 m 472 729 q 507 779 472 767 q 525 782 515 782 q 575 747 563 782 q 578 729 578 739 q 543 679 578 692 q 525 676 535 676 q 475 711 488 676 q 472 729 472 719 m 417 593 q 651 493 557 593 q 729 296 729 408 q 624 74 729 163 q 417 -1 535 -1 q 182 99 276 -1 q 104 296 104 183 q 210 518 104 429 q 417 593 299 593 m 417 542 q 215 451 294 542 q 156 296 156 383 q 249 107 156 181 q 417 50 321 50 q 624 143 549 50 q 678 296 678 208 q 576 492 678 419 q 417 542 507 542 z "},"÷":{"ha":833,"x_min":107,"x_max":642,"o":"m 336 514 q 363 550 336 540 q 375 553 368 553 q 411 526 401 553 q 414 514 414 521 q 388 478 414 488 q 375 475 382 475 q 339 501 349 475 q 336 514 336 507 m 336 239 q 363 275 336 265 q 375 278 368 278 q 411 251 401 278 q 414 239 414 246 q 388 203 414 213 q 375 200 382 200 q 339 226 349 200 q 336 239 336 232 m 107 403 l 642 403 l 642 351 l 107 351 l 107 403 z "},"ø":{"ha":833,"x_min":104,"x_max":729,"o":"m 417 593 q 594 539 514 593 l 676 632 l 713 601 l 632 510 q 729 296 729 422 q 624 74 729 163 q 417 -1 535 -1 q 233 56 317 -1 l 150 -40 l 114 -10 l 197 85 q 104 296 104 174 q 210 518 104 429 q 417 593 299 593 m 268 94 q 417 50 335 50 q 621 142 542 50 q 678 296 678 210 q 599 471 678 399 l 268 94 m 417 542 q 213 450 292 542 q 156 296 156 382 q 231 124 156 196 l 561 500 q 417 542 496 542 z "},"ù":{"ha":833,"x_min":31,"x_max":800,"o":"m 90 919 l 219 919 l 389 676 l 324 676 l 90 919 m 629 71 q 575 42 583 46 q 385 -18 464 -18 q 211 58 290 -18 q 149 182 149 119 l 149 544 l 31 544 l 31 592 l 200 592 l 199 183 l 199 182 q 261 82 199 133 q 385 33 321 33 q 622 128 476 33 q 629 132 626 129 l 629 544 l 511 544 l 511 592 l 681 592 l 681 49 l 800 49 l 800 0 l 629 0 l 629 71 z "},"ú":{"ha":833,"x_min":31,"x_max":800,"o":"m 622 919 l 388 676 l 324 676 l 493 919 l 622 919 m 629 71 q 575 42 583 46 q 385 -18 464 -18 q 211 58 290 -18 q 149 182 149 119 l 149 544 l 31 544 l 31 592 l 200 592 l 199 183 l 199 182 q 261 82 199 133 q 385 33 321 33 q 622 128 476 33 q 629 132 626 129 l 629 544 l 511 544 l 511 592 l 681 592 l 681 49 l 800 49 l 800 0 l 629 0 l 629 71 z "},"û":{"ha":833,"x_min":31,"x_max":800,"o":"m 538 696 l 518 676 l 358 806 l 193 676 l 174 696 l 342 864 l 371 864 l 538 696 m 629 71 q 575 42 583 46 q 385 -18 464 -18 q 211 58 290 -18 q 149 182 149 119 l 149 544 l 31 544 l 31 592 l 200 592 l 199 183 l 199 182 q 261 82 199 133 q 385 33 321 33 q 622 128 476 33 q 629 132 626 129 l 629 544 l 511 544 l 511 592 l 681 592 l 681 49 l 800 49 l 800 0 l 629 0 l 629 71 z "},"ü":{"ha":833,"x_min":31,"x_max":800,"o":"m 193 729 q 228 779 193 767 q 246 782 236 782 q 296 747 283 782 q 299 729 299 739 q 264 679 299 692 q 246 676 256 676 q 196 711 208 676 q 193 729 193 719 m 411 729 q 446 779 411 767 q 464 782 454 782 q 514 747 501 782 q 517 729 517 739 q 482 679 517 692 q 464 676 474 676 q 414 711 426 676 q 411 729 411 719 m 629 71 q 575 42 583 46 q 385 -18 464 -18 q 211 58 290 -18 q 149 182 149 119 l 149 544 l 31 544 l 31 592 l 200 592 l 199 183 l 199 182 q 261 82 199 133 q 385 33 321 33 q 622 128 476 33 q 629 132 626 129 l 629 544 l 511 544 l 511 592 l 681 592 l 681 49 l 800 49 l 800 0 l 629 0 l 629 71 z "},"ý":{"ha":833,"x_min":0,"x_max":819,"o":"m 683 919 l 449 676 l 385 676 l 554 919 l 683 919 m 394 -233 l 0 -233 l 0 -186 l 296 -186 l 388 0 l 119 544 l 14 544 l 14 592 l 279 592 l 279 544 l 176 544 l 417 58 l 657 544 l 554 544 l 554 592 l 819 592 l 819 544 l 714 544 l 353 -186 l 394 -186 l 394 -233 z "},"þ":{"ha":833,"x_min":49,"x_max":789,"o":"m 476 50 q 678 140 599 50 q 738 296 738 208 q 643 485 738 411 q 478 542 572 542 q 278 454 357 542 q 217 296 217 388 q 317 100 217 172 q 476 50 386 50 m 165 -203 l 165 819 l 57 799 l 49 846 l 217 878 l 217 460 q 426 589 293 568 q 476 593 451 593 q 713 490 619 593 q 789 296 789 407 q 683 72 789 161 q 478 -1 596 -1 q 240 103 335 -1 q 217 132 228 117 l 217 -203 l 388 -203 l 388 -250 l 56 -250 l 56 -203 l 165 -203 z "},"ÿ":{"ha":833,"x_min":0,"x_max":819,"o":"m 254 729 q 289 779 254 767 q 307 782 297 782 q 357 747 344 782 q 360 729 360 739 q 325 679 360 692 q 307 676 317 676 q 257 711 269 676 q 254 729 254 719 m 472 729 q 507 779 472 767 q 525 782 515 782 q 575 747 563 782 q 578 729 578 739 q 543 679 578 692 q 525 676 535 676 q 475 711 488 676 q 472 729 472 719 m 394 -233 l 0 -233 l 0 -186 l 296 -186 l 388 0 l 119 544 l 14 544 l 14 592 l 279 592 l 279 544 l 176 544 l 417 58 l 657 544 l 554 544 l 554 592 l 819 592 l 819 544 l 714 544 l 353 -186 l 394 -186 l 394 -233 z "},"Ā":{"ha":833,"x_min":40,"x_max":793,"o":"m 175 914 l 657 914 l 657 867 l 175 867 l 175 914 m 314 393 l 525 393 l 419 724 l 314 393 m 501 47 l 635 47 l 539 342 l 300 342 l 204 47 l 336 47 l 336 0 l 40 0 l 40 47 l 150 47 l 369 733 l 169 733 l 169 781 l 457 781 l 689 47 l 793 47 l 793 0 l 501 0 l 501 47 z "},"ā":{"ha":833,"x_min":57,"x_max":749,"o":"m 89 738 l 571 738 l 571 690 l 89 690 l 89 738 m 568 332 q 310 369 422 369 q 146 299 206 369 q 108 199 108 254 q 204 61 108 110 q 332 32 263 32 q 517 99 443 32 q 568 153 540 119 l 568 332 m 619 47 l 749 47 l 749 0 l 568 0 l 568 75 q 364 -18 482 -11 q 332 -19 349 -19 q 125 53 208 -19 q 57 199 57 113 q 161 378 57 314 q 310 421 228 421 q 568 385 426 421 l 568 408 q 489 514 568 468 q 329 556 418 556 q 107 496 242 556 l 88 543 q 169 575 88 543 q 329 607 268 607 q 554 533 465 607 q 619 408 619 479 l 619 47 z "},"Ă":{"ha":833,"x_min":40,"x_max":793,"o":"m 563 1000 q 481 879 551 913 q 419 867 451 867 q 296 938 336 867 q 275 1000 279 965 l 308 1000 q 419 939 326 939 q 529 1000 501 939 l 563 1000 m 314 393 l 525 393 l 419 724 l 314 393 m 501 47 l 635 47 l 539 342 l 300 342 l 204 47 l 336 47 l 336 0 l 40 0 l 40 47 l 150 47 l 369 733 l 169 733 l 169 781 l 457 781 l 689 47 l 793 47 l 793 0 l 501 0 l 501 47 z "},"ă":{"ha":833,"x_min":57,"x_max":749,"o":"m 474 824 q 392 703 463 736 q 331 690 363 690 q 207 761 247 690 q 186 824 190 789 l 219 824 q 331 763 238 763 q 440 824 413 763 l 474 824 m 568 332 q 310 369 422 369 q 146 299 206 369 q 108 199 108 254 q 204 61 108 110 q 332 32 263 32 q 517 99 443 32 q 568 153 540 119 l 568 332 m 619 47 l 749 47 l 749 0 l 568 0 l 568 75 q 364 -18 482 -11 q 332 -19 349 -19 q 125 53 208 -19 q 57 199 57 113 q 161 378 57 314 q 310 421 228 421 q 568 385 426 421 l 568 408 q 489 514 568 468 q 329 556 418 556 q 107 496 242 556 l 88 543 q 169 575 88 543 q 329 607 268 607 q 554 533 465 607 q 619 408 619 479 l 619 47 z "},"Ą":{"ha":833,"x_min":40,"x_max":793,"o":"m 160 8 l 218 8 q 151 -60 165 0 q 149 -103 146 -81 q 239 -165 156 -151 q 357 -117 313 -178 l 385 -151 q 246 -228 336 -229 q 117 -169 160 -226 q 93 -103 93 -140 q 160 8 93 -28 m 314 393 l 525 393 l 419 724 l 314 393 m 501 47 l 635 47 l 539 342 l 300 342 l 204 47 l 336 47 l 336 0 l 40 0 l 40 47 l 150 47 l 369 733 l 169 733 l 169 781 l 457 781 l 689 47 l 793 47 l 793 0 l 501 0 l 501 47 z "},"ą":{"ha":833,"x_min":57,"x_max":797,"o":"m 572 8 l 631 8 q 564 -60 578 0 q 561 -103 558 -81 q 651 -165 568 -151 q 769 -117 725 -178 l 797 -151 q 658 -228 749 -229 q 529 -169 572 -226 q 506 -103 506 -140 q 572 8 506 -28 m 568 332 q 310 369 422 369 q 146 299 206 369 q 108 199 108 254 q 204 61 108 110 q 332 32 263 32 q 517 99 443 32 q 568 153 540 119 l 568 332 m 619 47 l 749 47 l 749 0 l 568 0 l 568 75 q 364 -18 482 -11 q 332 -19 349 -19 q 125 53 208 -19 q 57 199 57 113 q 161 378 57 314 q 310 421 228 421 q 568 385 426 421 l 568 408 q 489 514 568 468 q 329 556 418 556 q 107 496 242 556 l 88 543 q 169 575 88 543 q 329 607 268 607 q 554 533 465 607 q 619 408 619 479 l 619 47 z "},"Ć":{"ha":833,"x_min":121,"x_max":718,"o":"m 718 1110 l 483 867 l 419 867 l 589 1110 l 718 1110 m 451 783 q 625 722 567 783 q 640 722 639 713 q 657 781 644 756 l 704 781 q 686 683 686 731 q 713 592 686 658 l 664 592 q 547 713 640 674 q 451 732 500 732 q 249 625 332 732 q 172 390 172 526 q 274 126 172 229 q 451 49 351 49 q 614 107 540 49 q 646 139 632 122 l 689 110 q 515 6 626 32 q 451 -3 482 -3 q 210 121 307 -3 q 121 390 121 235 q 226 679 121 563 q 451 783 321 783 z "},"ć":{"ha":833,"x_min":96,"x_max":693,"o":"m 675 919 l 440 676 l 376 676 l 546 919 l 675 919 m 631 524 l 638 554 l 683 544 q 667 467 683 544 q 693 417 679 449 l 644 400 q 488 531 596 497 q 408 542 449 542 q 204 450 283 542 q 147 296 147 382 q 243 110 147 183 q 421 51 321 51 q 590 101 499 51 q 624 122 610 111 l 651 76 q 465 3 582 19 q 421 0 442 0 q 171 104 267 0 q 96 296 96 186 q 201 518 96 429 q 408 593 290 593 q 611 521 518 593 q 631 524 628 510 z "},"Ĉ":{"ha":833,"x_min":121,"x_max":713,"o":"m 633 886 l 614 867 l 454 996 l 289 867 l 269 886 l 438 1054 l 467 1054 l 633 886 m 451 783 q 625 722 567 783 q 640 722 639 713 q 657 781 644 756 l 704 781 q 686 683 686 731 q 713 592 686 658 l 664 592 q 547 713 640 674 q 451 732 500 732 q 249 625 332 732 q 172 390 172 526 q 274 126 172 229 q 451 49 351 49 q 614 107 540 49 q 646 139 632 122 l 689 110 q 515 6 626 32 q 451 -3 482 -3 q 210 121 307 -3 q 121 390 121 235 q 226 679 121 563 q 451 783 321 783 z "},"ĉ":{"ha":833,"x_min":96,"x_max":693,"o":"m 590 696 l 571 676 l 411 806 l 246 676 l 226 696 l 394 864 l 424 864 l 590 696 m 631 524 l 638 554 l 683 544 q 667 467 683 544 q 693 417 679 449 l 644 400 q 488 531 596 497 q 408 542 449 542 q 204 450 283 542 q 147 296 147 382 q 243 110 147 183 q 421 51 321 51 q 590 101 499 51 q 624 122 610 111 l 651 76 q 465 3 582 19 q 421 0 442 0 q 171 104 267 0 q 96 296 96 186 q 201 518 96 429 q 408 593 290 593 q 611 521 518 593 q 631 524 628 510 z "},"Ċ":{"ha":833,"x_min":121,"x_max":713,"o":"m 503 1001 l 503 867 l 400 867 l 400 1001 l 503 1001 m 451 783 q 625 722 567 783 q 640 722 639 713 q 657 781 644 756 l 704 781 q 686 683 686 731 q 713 592 686 658 l 664 592 q 547 713 640 674 q 451 732 500 732 q 249 625 332 732 q 172 390 172 526 q 274 126 172 229 q 451 49 351 49 q 614 107 540 49 q 646 139 632 122 l 689 110 q 515 6 626 32 q 451 -3 482 -3 q 210 121 307 -3 q 121 390 121 235 q 226 679 121 563 q 451 783 321 783 z "},"ċ":{"ha":833,"x_min":96,"x_max":693,"o":"m 460 811 l 460 676 l 357 676 l 357 811 l 460 811 m 631 524 l 638 554 l 683 544 q 667 467 683 544 q 693 417 679 449 l 644 400 q 488 531 596 497 q 408 542 449 542 q 204 450 283 542 q 147 296 147 382 q 243 110 147 183 q 421 51 321 51 q 590 101 499 51 q 624 122 610 111 l 651 76 q 465 3 582 19 q 421 0 442 0 q 171 104 267 0 q 96 296 96 186 q 201 518 96 429 q 408 593 290 593 q 611 521 518 593 q 631 524 628 510 z "},"Č":{"ha":833,"x_min":121,"x_max":713,"o":"m 633 1035 l 467 867 l 438 867 l 269 1035 l 289 1054 l 454 925 l 614 1054 l 633 1035 m 451 783 q 625 722 567 783 q 640 722 639 713 q 657 781 644 756 l 704 781 q 686 683 686 731 q 713 592 686 658 l 664 592 q 547 713 640 674 q 451 732 500 732 q 249 625 332 732 q 172 390 172 526 q 274 126 172 229 q 451 49 351 49 q 614 107 540 49 q 646 139 632 122 l 689 110 q 515 6 626 32 q 451 -3 482 -3 q 210 121 307 -3 q 121 390 121 235 q 226 679 121 563 q 451 783 321 783 z "},"č":{"ha":833,"x_min":96,"x_max":693,"o":"m 590 844 l 424 676 l 394 676 l 226 844 l 246 864 l 411 735 l 571 864 l 590 844 m 631 524 l 638 554 l 683 544 q 667 467 683 544 q 693 417 679 449 l 644 400 q 488 531 596 497 q 408 542 449 542 q 204 450 283 542 q 147 296 147 382 q 243 110 147 183 q 421 51 321 51 q 590 101 499 51 q 624 122 610 111 l 651 76 q 465 3 582 19 q 421 0 442 0 q 171 104 267 0 q 96 296 96 186 q 201 518 96 429 q 408 593 290 593 q 611 521 518 593 q 631 524 628 510 z "},"Ď":{"ha":833,"x_min":72,"x_max":761,"o":"m 599 1035 l 432 867 l 403 867 l 235 1035 l 254 1054 l 419 925 l 579 1054 l 599 1035 m 257 47 l 482 47 q 643 158 571 47 q 713 394 713 268 q 658 600 713 496 q 482 733 589 733 l 257 733 l 257 47 m 72 47 l 206 47 l 206 733 l 72 733 l 72 781 l 482 781 q 708 613 628 781 q 761 397 761 506 q 701 154 761 269 q 482 0 622 0 l 72 0 l 72 47 z "},"ď":{"ha":833,"x_min":74,"x_max":808,"o":"m 624 1129 l 457 961 l 428 961 l 260 1129 l 279 1149 l 444 1019 l 604 1149 l 624 1129 m 808 0 l 646 0 l 646 132 q 436 3 569 24 q 386 -1 411 -1 q 150 101 243 -1 q 74 296 74 185 q 179 519 74 431 q 385 593 267 593 q 619 492 526 593 q 644 460 633 476 l 644 818 l 422 776 l 422 824 l 696 878 l 696 47 l 808 47 l 808 0 m 646 296 q 547 489 646 415 q 386 542 475 542 q 182 450 261 542 q 125 296 125 382 q 219 107 125 181 q 385 50 290 50 q 583 136 504 50 q 646 296 646 204 z "},"Đ":{"ha":833,"x_min":72,"x_max":761,"o":"m 257 47 l 482 47 q 643 158 571 47 q 713 394 713 268 q 658 600 713 496 q 482 733 589 733 l 257 733 l 257 439 l 353 439 l 353 392 l 257 392 l 257 47 m 72 47 l 206 47 l 206 392 l 114 392 l 114 439 l 206 439 l 206 733 l 72 733 l 72 781 l 482 781 q 710 615 629 781 q 761 397 761 508 q 701 154 761 269 q 482 0 622 0 l 72 0 l 72 47 z "},"đ":{"ha":833,"x_min":74,"x_max":811,"o":"m 386 542 q 182 450 261 542 q 125 296 125 382 q 219 107 125 181 q 385 50 290 50 q 583 136 504 50 q 644 296 644 204 q 546 489 644 415 q 386 542 475 542 m 644 461 l 644 640 l 510 640 l 510 688 l 644 688 l 644 818 l 422 776 l 422 824 l 696 878 l 696 688 l 811 688 l 811 640 l 696 640 l 696 47 l 807 47 l 807 0 l 644 0 l 644 132 q 432 1 567 21 q 386 -1 410 -1 q 150 101 243 -1 q 74 296 74 185 q 179 519 74 431 q 385 593 267 593 q 625 486 532 593 q 644 461 635 474 z "},"Ē":{"ha":833,"x_min":103,"x_max":731,"o":"m 168 914 l 650 914 l 650 867 l 168 867 l 168 914 m 604 558 l 604 360 l 557 360 l 557 446 l 288 446 l 288 47 l 667 47 l 683 168 l 731 168 l 714 0 l 103 0 l 103 47 l 238 47 l 238 733 l 103 733 l 103 781 l 714 781 l 726 621 l 679 621 l 667 733 l 288 733 l 288 493 l 557 493 l 557 558 l 604 558 z "},"ē":{"ha":833,"x_min":96,"x_max":721,"o":"m 168 724 l 650 724 l 650 676 l 168 676 l 168 724 m 664 343 q 543 507 642 450 q 408 542 481 542 q 206 450 283 542 q 153 343 165 403 l 664 343 m 721 296 l 147 296 q 243 110 147 183 q 415 51 318 51 q 629 118 526 51 q 643 128 636 124 l 676 89 q 458 3 590 17 q 415 0 436 0 q 178 99 275 0 q 96 296 96 183 q 201 518 96 429 q 408 593 290 593 q 644 493 551 593 q 721 296 721 410 z "},"Ĕ":{"ha":833,"x_min":103,"x_max":731,"o":"m 553 1000 q 471 879 542 913 q 410 867 442 867 q 286 938 326 867 q 265 1000 269 965 l 299 1000 q 410 939 317 939 q 519 1000 492 939 l 553 1000 m 604 558 l 604 360 l 557 360 l 557 446 l 288 446 l 288 47 l 667 47 l 683 168 l 731 168 l 714 0 l 103 0 l 103 47 l 238 47 l 238 733 l 103 733 l 103 781 l 714 781 l 726 621 l 679 621 l 667 733 l 288 733 l 288 493 l 557 493 l 557 558 l 604 558 z "},"ĕ":{"ha":833,"x_min":96,"x_max":721,"o":"m 551 810 q 469 689 540 722 q 408 676 440 676 q 285 747 325 676 q 264 810 268 775 l 297 810 q 408 749 315 749 q 518 810 490 749 l 551 810 m 664 343 q 543 507 642 450 q 408 542 481 542 q 206 450 283 542 q 153 343 165 403 l 664 343 m 721 296 l 147 296 q 243 110 147 183 q 415 51 318 51 q 629 118 526 51 q 643 128 636 124 l 676 89 q 458 3 590 17 q 415 0 436 0 q 178 99 275 0 q 96 296 96 183 q 201 518 96 429 q 408 593 290 593 q 644 493 551 593 q 721 296 721 410 z "},"Ė":{"ha":833,"x_min":103,"x_max":731,"o":"m 460 1001 l 460 867 l 357 867 l 357 1001 l 460 1001 m 604 558 l 604 360 l 557 360 l 557 446 l 288 446 l 288 47 l 667 47 l 683 168 l 731 168 l 714 0 l 103 0 l 103 47 l 238 47 l 238 733 l 103 733 l 103 781 l 714 781 l 726 621 l 679 621 l 667 733 l 288 733 l 288 493 l 557 493 l 557 558 l 604 558 z "},"ė":{"ha":833,"x_min":96,"x_max":721,"o":"m 460 811 l 460 676 l 357 676 l 357 811 l 460 811 m 664 343 q 543 507 642 450 q 408 542 481 542 q 206 450 283 542 q 153 343 165 403 l 664 343 m 721 296 l 147 296 q 243 110 147 183 q 415 51 318 51 q 629 118 526 51 q 643 128 636 124 l 676 89 q 458 3 590 17 q 415 0 436 0 q 178 99 275 0 q 96 296 96 183 q 201 518 96 429 q 408 593 290 593 q 644 493 551 593 q 721 296 721 410 z "},"Ę":{"ha":833,"x_min":103,"x_max":731,"o":"m 233 8 l 292 8 q 225 -60 239 0 q 222 -103 219 -81 q 313 -165 229 -151 q 431 -117 386 -178 l 458 -151 q 319 -228 410 -229 q 190 -169 233 -226 q 167 -103 167 -140 q 233 8 167 -28 m 604 558 l 604 360 l 557 360 l 557 446 l 288 446 l 288 47 l 667 47 l 683 168 l 731 168 l 714 0 l 103 0 l 103 47 l 238 47 l 238 733 l 103 733 l 103 781 l 714 781 l 726 621 l 679 621 l 667 733 l 288 733 l 288 493 l 557 493 l 557 558 l 604 558 z "},"ę":{"ha":833,"x_min":96,"x_max":721,"o":"m 386 8 l 444 8 q 378 -60 392 0 q 375 -103 372 -81 q 465 -165 382 -151 q 583 -117 539 -178 l 611 -151 q 472 -228 563 -229 q 343 -169 386 -226 q 319 -103 319 -140 q 386 8 319 -28 m 664 343 q 543 507 642 450 q 408 542 481 542 q 206 450 283 542 q 153 343 165 403 l 664 343 m 721 296 l 147 296 q 243 110 147 183 q 415 51 318 51 q 629 118 526 51 q 643 128 636 124 l 676 89 q 458 3 590 17 q 415 0 436 0 q 178 99 275 0 q 96 296 96 183 q 201 518 96 429 q 408 593 290 593 q 644 493 551 593 q 721 296 721 410 z "},"Ě":{"ha":833,"x_min":103,"x_max":731,"o":"m 590 1035 l 424 867 l 394 867 l 226 1035 l 246 1054 l 411 925 l 571 1054 l 590 1035 m 604 558 l 604 360 l 557 360 l 557 446 l 288 446 l 288 47 l 667 47 l 683 168 l 731 168 l 714 0 l 103 0 l 103 47 l 238 47 l 238 733 l 103 733 l 103 781 l 714 781 l 726 621 l 679 621 l 667 733 l 288 733 l 288 493 l 557 493 l 557 558 l 604 558 z "},"ě":{"ha":833,"x_min":96,"x_max":721,"o":"m 590 844 l 424 676 l 394 676 l 226 844 l 246 864 l 411 735 l 571 864 l 590 844 m 664 343 q 543 507 642 450 q 408 542 481 542 q 206 450 283 542 q 153 343 165 403 l 664 343 m 721 296 l 147 296 q 243 110 147 183 q 415 51 318 51 q 629 118 526 51 q 643 128 636 124 l 676 89 q 458 3 590 17 q 415 0 436 0 q 178 99 275 0 q 96 296 96 183 q 201 518 96 429 q 408 593 290 593 q 644 493 551 593 q 721 296 721 410 z "},"Ĝ":{"ha":833,"x_min":111,"x_max":722,"o":"m 624 886 l 604 867 l 444 996 l 279 867 l 260 886 l 428 1054 l 457 1054 l 624 886 m 442 783 q 613 729 554 783 q 619 722 617 726 q 636 722 633 711 q 653 781 640 761 l 700 781 q 682 683 682 731 q 708 592 682 658 l 660 592 q 539 713 636 672 q 442 732 490 732 q 239 625 322 732 q 163 390 163 526 q 260 122 163 222 q 426 49 332 49 q 628 171 557 49 q 674 344 669 246 l 521 344 l 521 392 l 722 392 l 722 344 q 610 67 715 163 q 426 -3 535 -3 q 188 129 279 -3 q 111 390 111 239 q 218 679 111 563 q 442 783 313 783 z "},"ĝ":{"ha":833,"x_min":61,"x_max":799,"o":"m 554 696 l 535 676 l 375 806 l 210 676 l 190 696 l 358 864 l 388 864 l 554 696 m 374 542 q 169 450 249 542 q 113 296 113 382 q 207 107 113 181 q 372 50 278 50 q 576 142 497 50 q 633 296 633 210 q 539 485 633 411 q 374 542 468 542 m 799 592 l 799 544 l 685 544 l 685 -43 q 581 -204 685 -131 q 369 -274 481 -274 q 101 -193 239 -274 l 124 -147 q 299 -214 188 -192 q 368 -222 338 -222 q 556 -156 463 -222 q 633 -43 633 -99 l 633 133 q 435 4 561 29 q 374 -1 404 -1 q 138 101 231 -1 q 61 296 61 185 q 167 519 61 431 q 372 593 254 593 q 608 490 514 593 q 633 458 622 475 l 633 592 l 799 592 z "},"Ğ":{"ha":833,"x_min":111,"x_max":722,"o":"m 586 1000 q 504 879 575 913 q 443 867 475 867 q 319 938 360 867 q 299 1000 303 965 l 332 1000 q 443 939 350 939 q 553 1000 525 939 l 586 1000 m 442 783 q 613 729 554 783 q 619 722 617 726 q 636 722 633 711 q 653 781 640 761 l 700 781 q 682 683 682 731 q 708 592 682 658 l 660 592 q 539 713 636 672 q 442 732 490 732 q 239 625 322 732 q 163 390 163 526 q 260 122 163 222 q 426 49 332 49 q 628 171 557 49 q 674 344 669 246 l 521 344 l 521 392 l 722 392 l 722 344 q 610 67 715 163 q 426 -3 535 -3 q 188 129 279 -3 q 111 390 111 239 q 218 679 111 563 q 442 783 313 783 z "},"ğ":{"ha":833,"x_min":61,"x_max":799,"o":"m 517 810 q 435 689 506 722 q 374 676 406 676 q 250 747 290 676 q 229 810 233 775 l 263 810 q 374 749 281 749 q 483 810 456 749 l 517 810 m 374 542 q 169 450 249 542 q 113 296 113 382 q 207 107 113 181 q 372 50 278 50 q 576 142 497 50 q 633 296 633 210 q 539 485 633 411 q 374 542 468 542 m 799 592 l 799 544 l 685 544 l 685 -43 q 581 -204 685 -131 q 369 -274 481 -274 q 101 -193 239 -274 l 124 -147 q 299 -214 188 -192 q 368 -222 338 -222 q 556 -156 463 -222 q 633 -43 633 -99 l 633 133 q 435 4 561 29 q 374 -1 404 -1 q 138 101 231 -1 q 61 296 61 185 q 167 519 61 431 q 372 593 254 593 q 608 490 514 593 q 633 458 622 475 l 633 592 l 799 592 z "},"Ġ":{"ha":833,"x_min":111,"x_max":722,"o":"m 493 1001 l 493 867 l 390 867 l 390 1001 l 493 1001 m 442 783 q 613 729 554 783 q 619 722 617 726 q 636 722 633 711 q 653 781 640 761 l 700 781 q 682 683 682 731 q 708 592 682 658 l 660 592 q 539 713 636 672 q 442 732 490 732 q 239 625 322 732 q 163 390 163 526 q 260 122 163 222 q 426 49 332 49 q 628 171 557 49 q 674 344 669 246 l 521 344 l 521 392 l 722 392 l 722 344 q 610 67 715 163 q 426 -3 535 -3 q 188 129 279 -3 q 111 390 111 239 q 218 679 111 563 q 442 783 313 783 z "},"ġ":{"ha":833,"x_min":61,"x_max":799,"o":"m 424 811 l 424 676 l 321 676 l 321 811 l 424 811 m 374 542 q 169 450 249 542 q 113 296 113 382 q 207 107 113 181 q 372 50 278 50 q 576 142 497 50 q 633 296 633 210 q 539 485 633 411 q 374 542 468 542 m 799 592 l 799 544 l 685 544 l 685 -43 q 581 -204 685 -131 q 369 -274 481 -274 q 101 -193 239 -274 l 124 -147 q 299 -214 188 -192 q 368 -222 338 -222 q 556 -156 463 -222 q 633 -43 633 -99 l 633 133 q 435 4 561 29 q 374 -1 404 -1 q 138 101 231 -1 q 61 296 61 185 q 167 519 61 431 q 372 593 254 593 q 608 490 514 593 q 633 458 622 475 l 633 592 l 799 592 z "},"Ģ":{"ha":833,"x_min":111,"x_max":722,"o":"m 451 7 l 438 -68 q 574 -108 524 -50 q 599 -176 599 -139 q 518 -281 599 -247 q 360 -296 457 -306 l 367 -249 q 538 -210 494 -265 q 547 -185 547 -197 q 464 -111 547 -112 q 418 -117 443 -111 l 383 -125 l 400 6 l 451 7 m 442 783 q 613 729 554 783 q 619 722 617 726 q 636 722 633 711 q 653 781 640 761 l 700 781 q 682 683 682 731 q 708 592 682 658 l 660 592 q 539 713 636 672 q 442 732 490 732 q 239 625 322 732 q 163 390 163 526 q 260 122 163 222 q 426 49 332 49 q 628 171 557 49 q 674 344 669 246 l 521 344 l 521 392 l 722 392 l 722 344 q 610 67 715 163 q 426 -3 535 -3 q 188 129 279 -3 q 111 390 111 239 q 218 679 111 563 q 442 783 313 783 z "},"ģ":{"ha":833,"x_min":61,"x_max":799,"o":"m 244 676 l 436 960 l 500 960 l 374 676 l 244 676 m 374 542 q 169 450 249 542 q 113 296 113 382 q 207 107 113 181 q 372 50 278 50 q 576 142 497 50 q 633 296 633 210 q 539 485 633 411 q 374 542 468 542 m 799 592 l 799 544 l 685 544 l 685 -43 q 581 -204 685 -131 q 369 -274 481 -274 q 101 -193 239 -274 l 124 -147 q 299 -214 188 -192 q 368 -222 338 -222 q 556 -156 463 -222 q 633 -43 633 -99 l 633 133 q 435 4 561 29 q 374 -1 404 -1 q 138 101 231 -1 q 61 296 61 185 q 167 519 61 431 q 372 593 254 593 q 608 490 514 593 q 633 458 622 475 l 633 592 l 799 592 z "},"Ĥ":{"ha":833,"x_min":43,"x_max":790,"o":"m 599 886 l 579 867 l 419 996 l 254 867 l 235 886 l 403 1054 l 432 1054 l 599 886 m 228 510 l 607 510 l 607 733 l 471 733 l 471 781 l 790 781 l 790 733 l 658 733 l 658 47 l 789 47 l 789 0 l 469 0 l 469 47 l 607 47 l 607 458 l 228 458 l 228 47 l 363 47 l 363 0 l 43 0 l 43 47 l 176 47 l 176 733 l 43 733 l 43 781 l 363 781 l 363 733 l 228 733 l 228 510 z "},"ĥ":{"ha":833,"x_min":31,"x_max":800,"o":"m 597 981 l 578 961 l 418 1090 l 253 961 l 233 981 l 401 1149 l 431 1149 l 597 981 m 203 522 q 344 593 310 581 q 446 611 397 611 q 625 532 549 611 q 682 411 682 474 l 682 49 l 800 49 l 800 0 l 511 0 l 511 49 l 632 49 l 632 411 q 569 511 632 460 q 446 560 510 560 q 208 465 354 560 q 201 461 204 464 l 201 49 l 319 49 l 319 0 l 31 0 l 31 49 l 151 49 l 151 819 l 31 789 l 31 836 l 203 878 l 203 522 z "},"Ħ":{"ha":833,"x_min":43,"x_max":790,"o":"m 607 613 l 607 733 l 471 733 l 471 781 l 790 781 l 790 733 l 658 733 l 658 613 l 765 613 l 765 565 l 658 565 l 658 47 l 789 47 l 789 0 l 469 0 l 469 47 l 607 47 l 607 393 l 228 393 l 228 47 l 363 47 l 363 0 l 43 0 l 43 47 l 176 47 l 176 564 l 86 564 l 86 611 l 176 611 l 176 733 l 43 733 l 43 781 l 363 781 l 363 733 l 228 733 l 228 613 l 607 613 m 228 444 l 607 444 l 607 565 l 228 565 l 228 444 z "},"ħ":{"ha":833,"x_min":31,"x_max":800,"o":"m 203 522 q 353 596 308 582 q 446 611 400 611 q 625 532 549 611 q 682 411 682 474 l 682 47 l 800 47 l 800 0 l 511 0 l 511 47 l 632 47 l 632 411 q 569 511 632 460 q 446 560 510 560 q 208 465 354 560 q 201 461 204 464 l 201 47 l 319 47 l 319 0 l 31 0 l 31 47 l 151 47 l 151 671 l 40 671 l 40 718 l 151 718 l 151 819 l 31 788 l 31 835 l 201 878 l 201 718 l 315 718 l 315 671 l 203 671 l 203 522 z "},"Ĩ":{"ha":833,"x_min":124,"x_max":710,"o":"m 276 867 q 331 960 278 926 q 381 975 356 975 q 442 944 401 976 q 476 928 464 926 q 551 969 524 932 l 558 969 q 524 882 563 914 q 479 867 504 867 q 413 897 447 868 q 376 915 392 915 q 290 867 321 914 l 276 867 m 396 733 l 125 733 l 125 781 l 710 781 l 710 733 l 446 733 l 446 47 l 708 47 l 708 0 l 124 0 l 124 47 l 396 47 l 396 733 z "},"ĩ":{"ha":833,"x_min":143,"x_max":693,"o":"m 285 676 q 339 769 286 736 q 389 785 364 785 q 450 754 410 786 q 485 738 472 736 q 560 779 532 742 l 567 779 q 532 692 571 724 q 488 676 513 676 q 421 707 456 678 q 385 725 400 725 q 299 676 329 724 l 285 676 m 401 544 l 143 544 l 143 592 l 453 592 l 453 47 l 693 47 l 693 0 l 143 0 l 143 47 l 401 47 l 401 544 z "},"Ī":{"ha":833,"x_min":124,"x_max":710,"o":"m 176 914 l 658 914 l 658 867 l 176 867 l 176 914 m 396 733 l 125 733 l 125 781 l 710 781 l 710 733 l 446 733 l 446 47 l 708 47 l 708 0 l 124 0 l 124 47 l 396 47 l 396 733 z "},"ī":{"ha":833,"x_min":143,"x_max":693,"o":"m 186 724 l 668 724 l 668 676 l 186 676 l 186 724 m 401 544 l 143 544 l 143 592 l 453 592 l 453 47 l 693 47 l 693 0 l 143 0 l 143 47 l 401 47 l 401 544 z "},"Ĭ":{"ha":833,"x_min":124,"x_max":710,"o":"m 561 1000 q 479 879 550 913 q 418 867 450 867 q 294 938 335 867 q 274 1000 278 965 l 307 1000 q 418 939 325 939 q 528 1000 500 939 l 561 1000 m 396 733 l 125 733 l 125 781 l 710 781 l 710 733 l 446 733 l 446 47 l 708 47 l 708 0 l 124 0 l 124 47 l 396 47 l 396 733 z "},"ĭ":{"ha":833,"x_min":143,"x_max":693,"o":"m 571 810 q 489 689 560 722 q 428 676 460 676 q 304 747 344 676 q 283 810 288 775 l 317 810 q 428 749 335 749 q 538 810 510 749 l 571 810 m 401 544 l 143 544 l 143 592 l 453 592 l 453 47 l 693 47 l 693 0 l 143 0 l 143 47 l 401 47 l 401 544 z "},"Į":{"ha":833,"x_min":124,"x_max":710,"o":"m 386 8 l 444 8 q 378 -60 392 0 q 375 -103 372 -81 q 465 -165 382 -151 q 583 -117 539 -178 l 611 -151 q 472 -228 563 -229 q 343 -169 386 -226 q 319 -103 319 -140 q 386 8 319 -28 m 396 733 l 125 733 l 125 781 l 710 781 l 710 733 l 446 733 l 446 47 l 708 47 l 708 0 l 124 0 l 124 47 l 396 47 l 396 733 z "},"į":{"ha":833,"x_min":143,"x_max":693,"o":"m 389 8 l 447 8 q 381 -60 394 0 q 378 -103 375 -81 q 468 -165 385 -151 q 586 -117 542 -178 l 614 -151 q 475 -228 565 -229 q 346 -169 389 -226 q 322 -103 322 -140 q 389 8 322 -28 m 478 811 l 478 676 l 375 676 l 375 811 l 478 811 m 401 544 l 143 544 l 143 592 l 453 592 l 453 47 l 693 47 l 693 0 l 143 0 l 143 47 l 401 47 l 401 544 z "},"İ":{"ha":833,"x_min":124,"x_max":710,"o":"m 469 1001 l 469 867 l 367 867 l 367 1001 l 469 1001 m 396 733 l 125 733 l 125 781 l 710 781 l 710 733 l 446 733 l 446 47 l 708 47 l 708 0 l 124 0 l 124 47 l 396 47 l 396 733 z "},"ı":{"ha":833,"x_min":143,"x_max":693,"o":"m 401 544 l 143 544 l 143 592 l 453 592 l 453 47 l 693 47 l 693 0 l 143 0 l 143 47 l 401 47 l 401 544 z "},"Ĳ":{"ha":833,"x_min":49,"x_max":897,"o":"m 183 733 l 50 733 l 50 781 l 369 781 l 369 733 l 235 733 l 235 47 l 368 47 l 368 0 l 49 0 l 49 47 l 183 47 l 183 733 m 439 315 q 447 158 439 194 q 575 50 471 50 q 703 143 672 50 q 713 199 713 171 l 713 733 l 471 733 l 471 781 l 897 781 l 897 733 l 764 733 l 764 199 q 707 51 764 111 q 575 -1 657 -1 q 410 104 461 -1 q 388 199 388 151 l 388 315 l 439 315 z "},"ĳ":{"ha":833,"x_min":83,"x_max":757,"o":"m 342 544 l 83 544 l 83 592 l 393 592 l 393 47 l 633 47 l 633 0 l 83 0 l 83 47 l 342 47 l 342 544 m 393 781 l 393 646 l 290 646 l 290 781 l 393 781 m 756 781 l 756 646 l 653 646 l 653 781 l 756 781 m 408 -186 q 544 -222 454 -218 q 560 -222 553 -222 q 675 -144 628 -222 q 706 -43 706 -93 l 706 544 l 524 544 l 524 592 l 757 592 l 757 -43 q 697 -203 757 -129 q 560 -274 639 -274 q 386 -232 449 -274 l 408 -186 z "},"Ĵ":{"ha":833,"x_min":161,"x_max":672,"o":"m 640 886 l 621 867 l 461 996 l 296 867 l 276 886 l 444 1054 l 474 1054 l 640 886 m 213 315 q 221 158 213 194 q 350 50 244 50 q 476 143 446 50 q 486 199 486 171 l 486 733 l 246 733 l 246 781 l 672 781 l 672 733 l 538 733 l 538 199 q 481 51 538 111 q 350 -1 431 -1 q 183 104 235 -1 q 161 199 161 151 l 161 315 l 213 315 z "},"ĵ":{"ha":833,"x_min":83,"x_max":610,"o":"m 610 694 l 590 675 l 431 804 l 265 675 l 246 694 l 414 863 l 443 863 l 610 694 m 106 -186 q 242 -222 151 -218 q 257 -222 250 -222 q 372 -144 325 -222 q 403 -43 403 -93 l 403 544 l 221 544 l 221 592 l 454 592 l 454 -43 q 394 -203 454 -129 q 257 -274 336 -274 q 83 -232 144 -274 l 106 -186 z "},"Ķ":{"ha":833,"x_min":44,"x_max":789,"o":"m 210 10 l 196 -65 q 332 -106 282 -47 q 357 -174 357 -136 q 276 -278 357 -244 q 118 -293 215 -303 l 125 -246 q 296 -207 253 -262 q 306 -182 306 -194 q 222 -108 306 -110 q 176 -114 201 -108 l 142 -122 l 158 8 l 210 10 m 436 781 l 726 781 l 726 733 l 558 733 q 282 401 433 544 q 513 228 413 365 q 625 47 561 164 l 789 47 l 789 0 l 596 0 q 397 282 481 208 q 236 360 328 343 q 208 338 219 346 l 208 47 l 335 47 l 335 0 l 44 0 l 44 47 l 158 47 l 158 733 l 44 733 l 44 781 l 335 781 l 335 733 l 208 733 l 208 404 q 494 733 357 533 l 436 733 l 436 781 z "},"ķ":{"ha":833,"x_min":76,"x_max":732,"o":"m 267 10 l 253 -65 q 389 -106 339 -47 q 414 -174 414 -136 q 333 -278 414 -244 q 175 -293 272 -303 l 182 -246 q 353 -207 310 -262 q 363 -182 363 -194 q 279 -108 363 -110 q 233 -114 258 -108 l 199 -122 l 215 8 l 267 10 m 486 47 l 535 47 l 311 322 l 267 285 l 267 0 l 76 0 l 76 47 l 215 47 l 215 813 l 76 763 l 76 810 l 267 878 l 267 353 l 496 544 l 450 544 l 450 592 l 686 592 l 686 544 l 575 544 l 350 356 l 601 47 l 732 47 l 732 0 l 486 0 l 486 47 z "},"ĸ":{"ha":833,"x_min":85,"x_max":749,"o":"m 417 592 l 707 592 l 707 544 l 539 544 q 408 401 483 461 q 322 329 349 354 q 579 57 458 271 q 585 47 582 53 l 749 47 l 749 0 l 556 0 q 365 232 479 139 q 276 288 317 272 q 249 265 260 274 l 249 47 l 375 47 l 375 0 l 85 0 l 85 47 l 199 47 l 199 544 l 85 544 l 85 592 l 315 592 l 315 544 l 249 544 l 249 332 q 344 404 260 342 q 475 544 415 457 l 417 544 l 417 592 z "},"Ĺ":{"ha":833,"x_min":136,"x_max":725,"o":"m 697 1110 l 463 867 l 399 867 l 568 1110 l 697 1110 m 254 733 l 138 733 l 138 781 l 426 781 l 426 733 l 306 733 l 306 47 l 649 47 l 678 310 l 725 310 l 697 0 l 136 0 l 136 47 l 254 47 l 254 733 z "},"ĺ":{"ha":833,"x_min":128,"x_max":706,"o":"m 646 1204 l 411 961 l 347 961 l 517 1204 l 646 1204 m 354 818 l 128 763 l 128 810 l 406 878 l 406 47 l 706 47 l 706 0 l 128 0 l 128 47 l 354 47 l 354 818 z "},"Ļ":{"ha":833,"x_min":136,"x_max":725,"o":"m 443 10 l 429 -65 q 565 -106 515 -47 q 590 -174 590 -136 q 510 -278 590 -244 q 351 -293 449 -303 l 358 -246 q 529 -207 486 -262 q 539 -182 539 -194 q 456 -108 539 -110 q 410 -114 435 -108 l 375 -122 l 392 8 l 443 10 m 254 733 l 138 733 l 138 781 l 426 781 l 426 733 l 306 733 l 306 47 l 649 47 l 678 310 l 725 310 l 697 0 l 136 0 l 136 47 l 254 47 l 254 733 z "},"ļ":{"ha":833,"x_min":128,"x_max":706,"o":"m 443 10 l 429 -65 q 565 -106 515 -47 q 590 -174 590 -136 q 510 -278 590 -244 q 351 -293 449 -303 l 358 -246 q 529 -207 486 -262 q 539 -182 539 -194 q 456 -108 539 -110 q 410 -114 435 -108 l 375 -122 l 392 8 l 443 10 m 354 818 l 128 763 l 128 810 l 406 878 l 406 47 l 706 47 l 706 0 l 128 0 l 128 47 l 354 47 l 354 818 z "},"Ľ":{"ha":833,"x_min":136,"x_max":725,"o":"m 613 1035 l 446 867 l 417 867 l 249 1035 l 268 1054 l 433 925 l 593 1054 l 613 1035 m 254 733 l 138 733 l 138 781 l 426 781 l 426 733 l 306 733 l 306 47 l 649 47 l 678 310 l 725 310 l 697 0 l 136 0 l 136 47 l 254 47 l 254 733 z "},"ľ":{"ha":833,"x_min":128,"x_max":706,"o":"m 561 1129 l 394 961 l 365 961 l 197 1129 l 217 1149 l 382 1019 l 542 1149 l 561 1129 m 354 818 l 128 763 l 128 810 l 406 878 l 406 47 l 706 47 l 706 0 l 128 0 l 128 47 l 354 47 l 354 818 z "},"Ŀ":{"ha":833,"x_min":136,"x_max":725,"o":"m 332 392 q 385 468 332 443 q 431 478 406 478 q 518 431 490 478 q 529 392 529 413 q 476 315 529 340 q 431 306 456 306 q 343 353 371 306 q 332 392 332 371 m 254 733 l 138 733 l 138 781 l 426 781 l 426 733 l 306 733 l 306 47 l 649 47 l 678 310 l 725 310 l 697 0 l 136 0 l 136 47 l 254 47 l 254 733 z "},"ŀ":{"ha":1667,"x_min":128,"x_max":1353,"o":"m 1156 344 q 1208 421 1156 396 q 1254 431 1229 431 q 1342 383 1314 431 q 1353 344 1353 365 q 1300 268 1353 293 q 1254 258 1279 258 q 1167 306 1194 258 q 1156 344 1156 324 m 354 818 l 128 763 l 128 810 l 406 878 l 406 47 l 706 47 l 706 0 l 128 0 l 128 47 l 354 47 l 354 818 z "},"Ł":{"ha":833,"x_min":136,"x_max":733,"o":"m 254 733 l 138 733 l 138 781 l 426 781 l 426 733 l 306 733 l 306 468 l 501 578 l 501 524 l 306 414 l 306 47 l 649 47 l 686 318 l 733 318 l 697 0 l 136 0 l 136 47 l 254 47 l 254 385 l 149 325 l 149 379 l 254 439 l 254 733 z "},"ł":{"ha":833,"x_min":128,"x_max":706,"o":"m 269 393 l 354 440 l 354 818 l 128 763 l 128 810 l 406 878 l 406 469 l 622 592 l 622 538 l 406 417 l 406 47 l 706 47 l 706 0 l 128 0 l 128 47 l 354 47 l 354 388 l 269 339 l 269 393 z "},"Ń":{"ha":833,"x_min":13,"x_max":821,"o":"m 683 1110 l 449 867 l 385 867 l 554 1110 l 683 1110 m 706 75 l 706 733 l 560 733 l 560 781 l 821 781 l 821 733 l 757 733 l 757 -10 l 706 -10 l 131 733 l 128 733 l 128 47 l 272 47 l 272 0 l 13 0 l 13 47 l 78 47 l 78 733 l 13 733 l 13 781 l 161 781 q 706 75 161 779 z "},"ń":{"ha":833,"x_min":31,"x_max":800,"o":"m 682 938 l 447 694 l 383 694 l 553 938 l 682 938 m 201 522 q 256 551 247 547 q 446 611 367 611 q 619 535 540 611 q 682 411 682 474 l 682 47 l 800 47 l 800 0 l 511 0 l 511 47 l 632 47 l 632 411 q 569 511 632 460 q 446 560 510 560 q 208 465 354 560 q 201 461 204 464 l 201 47 l 319 47 l 319 0 l 31 0 l 31 47 l 151 47 l 151 544 l 31 544 l 31 592 l 203 592 q 201 522 199 572 z "},"Ņ":{"ha":833,"x_min":13,"x_max":821,"o":"m 129 0 l 115 -75 q 251 -115 201 -57 q 276 -183 276 -146 q 196 -287 276 -254 q 38 -303 135 -312 l 44 -256 q 215 -217 172 -272 q 225 -192 225 -204 q 142 -118 225 -119 q 96 -124 121 -118 l 61 -132 l 78 -1 l 129 0 m 706 75 l 706 733 l 560 733 l 560 781 l 821 781 l 821 733 l 757 733 l 757 -10 l 706 -10 l 131 733 l 128 733 l 128 47 l 272 47 l 272 0 l 13 0 l 13 47 l 78 47 l 78 733 l 13 733 l 13 781 l 161 781 q 706 75 161 779 z "},"ņ":{"ha":833,"x_min":31,"x_max":800,"o":"m 203 10 l 189 -65 q 325 -106 275 -47 q 350 -174 350 -136 q 269 -278 350 -244 q 111 -293 208 -303 l 118 -246 q 289 -207 246 -262 q 299 -182 299 -194 q 215 -108 299 -110 q 169 -114 194 -108 l 135 -122 l 151 8 l 203 10 m 201 522 q 256 551 247 547 q 446 611 367 611 q 619 535 540 611 q 682 411 682 474 l 682 47 l 800 47 l 800 0 l 511 0 l 511 47 l 632 47 l 632 411 q 569 511 632 460 q 446 560 510 560 q 208 465 354 560 q 201 461 204 464 l 201 47 l 319 47 l 319 0 l 31 0 l 31 47 l 151 47 l 151 544 l 31 544 l 31 592 l 203 592 q 201 522 199 572 z "},"Ň":{"ha":833,"x_min":13,"x_max":821,"o":"m 599 1035 l 432 867 l 403 867 l 235 1035 l 254 1054 l 419 925 l 579 1054 l 599 1035 m 706 75 l 706 733 l 560 733 l 560 781 l 821 781 l 821 733 l 757 733 l 757 -10 l 706 -10 l 131 733 l 128 733 l 128 47 l 272 47 l 272 0 l 13 0 l 13 47 l 78 47 l 78 733 l 13 733 l 13 781 l 161 781 q 706 75 161 779 z "},"ň":{"ha":833,"x_min":31,"x_max":800,"o":"m 597 863 l 431 694 l 401 694 l 233 863 l 253 882 l 418 753 l 578 882 l 597 863 m 201 522 q 256 551 247 547 q 446 611 367 611 q 619 535 540 611 q 682 411 682 474 l 682 47 l 800 47 l 800 0 l 511 0 l 511 47 l 632 47 l 632 411 q 569 511 632 460 q 446 560 510 560 q 208 465 354 560 q 201 461 204 464 l 201 47 l 319 47 l 319 0 l 31 0 l 31 47 l 151 47 l 151 544 l 31 544 l 31 592 l 203 592 q 201 522 199 572 z "},"ŉ":{"ha":833,"x_min":31,"x_max":800,"o":"m 561 982 l 399 742 l 343 742 l 451 982 l 561 982 m 201 522 q 256 551 247 547 q 446 611 367 611 q 619 535 540 611 q 682 411 682 474 l 682 47 l 800 47 l 800 0 l 511 0 l 511 47 l 632 47 l 632 411 q 569 511 632 460 q 446 560 510 560 q 208 465 354 560 q 201 461 204 464 l 201 47 l 319 47 l 319 0 l 31 0 l 31 47 l 151 47 l 151 544 l 31 544 l 31 592 l 203 592 q 201 522 199 572 z "},"Ŋ":{"ha":833,"x_min":13,"x_max":821,"o":"m 432 0 q 442 -126 432 -93 q 568 -214 469 -214 q 696 -121 665 -214 q 706 -65 706 -93 l 706 -10 l 131 733 l 128 733 l 128 47 l 272 47 l 272 0 l 13 0 l 13 47 l 78 47 l 78 733 l 13 733 l 13 781 l 160 781 l 706 75 l 706 733 l 560 733 l 560 781 l 821 781 l 821 733 l 757 733 l 757 -65 q 700 -212 757 -153 q 569 -265 650 -265 q 403 -160 454 -265 q 381 -65 381 -112 l 381 0 l 432 0 z "},"ŋ":{"ha":833,"x_min":31,"x_max":683,"o":"m 335 -186 q 471 -222 381 -218 q 486 -222 479 -222 q 603 -144 556 -222 q 632 -43 632 -96 l 632 411 q 569 511 632 460 q 446 560 510 560 q 208 465 354 560 q 201 461 204 464 l 201 47 l 319 47 l 319 0 l 31 0 l 31 47 l 151 47 l 151 544 l 31 544 l 31 592 l 201 592 l 201 522 q 256 551 247 547 q 446 611 367 611 q 619 536 540 611 q 683 411 683 475 l 683 -43 q 618 -212 683 -140 q 488 -274 563 -274 q 313 -232 374 -274 l 335 -186 z "},"Ō":{"ha":833,"x_min":86,"x_max":747,"o":"m 176 914 l 658 914 l 658 867 l 176 867 l 176 914 m 417 783 q 657 660 560 783 q 747 390 747 546 q 640 101 747 218 q 417 -3 546 -3 q 176 121 274 -3 q 86 390 86 235 q 193 679 86 563 q 417 783 288 783 m 417 732 q 214 625 297 732 q 138 390 138 526 q 239 126 138 229 q 417 49 317 49 q 619 156 536 49 q 696 390 696 254 q 594 654 696 551 q 417 732 517 732 z "},"ō":{"ha":833,"x_min":104,"x_max":729,"o":"m 176 724 l 658 724 l 658 676 l 176 676 l 176 724 m 417 593 q 651 493 557 593 q 729 296 729 408 q 624 74 729 163 q 417 -1 535 -1 q 182 99 276 -1 q 104 296 104 183 q 210 518 104 429 q 417 593 299 593 m 417 542 q 215 451 294 542 q 156 296 156 383 q 249 107 156 181 q 417 50 321 50 q 624 143 549 50 q 678 296 678 208 q 576 492 678 419 q 417 542 507 542 z "},"Ŏ":{"ha":833,"x_min":86,"x_max":747,"o":"m 561 1000 q 479 879 550 913 q 418 867 450 867 q 294 938 335 867 q 274 1000 278 965 l 307 1000 q 418 939 325 939 q 528 1000 500 939 l 561 1000 m 417 783 q 657 660 560 783 q 747 390 747 546 q 640 101 747 218 q 417 -3 546 -3 q 176 121 274 -3 q 86 390 86 235 q 193 679 86 563 q 417 783 288 783 m 417 732 q 214 625 297 732 q 138 390 138 526 q 239 126 138 229 q 417 49 317 49 q 619 156 536 49 q 696 390 696 254 q 594 654 696 551 q 417 732 517 732 z "},"ŏ":{"ha":833,"x_min":104,"x_max":729,"o":"m 561 810 q 479 689 550 722 q 418 676 450 676 q 294 747 335 676 q 274 810 278 775 l 307 810 q 418 749 325 749 q 528 810 500 749 l 561 810 m 417 593 q 651 493 557 593 q 729 296 729 408 q 624 74 729 163 q 417 -1 535 -1 q 182 99 276 -1 q 104 296 104 183 q 210 518 104 429 q 417 593 299 593 m 417 542 q 215 451 294 542 q 156 296 156 383 q 249 107 156 181 q 417 50 321 50 q 624 143 549 50 q 678 296 678 208 q 576 492 678 419 q 417 542 507 542 z "},"Ő":{"ha":833,"x_min":86,"x_max":810,"o":"m 557 1110 l 322 867 l 258 867 l 428 1110 l 557 1110 m 810 1110 l 575 867 l 511 867 l 681 1110 l 810 1110 m 417 783 q 657 660 560 783 q 747 390 747 546 q 640 101 747 218 q 417 -3 546 -3 q 176 121 274 -3 q 86 390 86 235 q 193 679 86 563 q 417 783 288 783 m 417 732 q 214 625 297 732 q 138 390 138 526 q 239 126 138 229 q 417 49 317 49 q 619 156 536 49 q 696 390 696 254 q 594 654 696 551 q 417 732 517 732 z "},"ő":{"ha":833,"x_min":104,"x_max":810,"o":"m 557 919 l 322 676 l 258 676 l 428 919 l 557 919 m 810 919 l 575 676 l 511 676 l 681 919 l 810 919 m 417 593 q 651 493 557 593 q 729 296 729 408 q 624 74 729 163 q 417 -1 535 -1 q 182 99 276 -1 q 104 296 104 183 q 210 518 104 429 q 417 593 299 593 m 417 542 q 215 451 294 542 q 156 296 156 383 q 249 107 156 181 q 417 50 321 50 q 624 143 549 50 q 678 296 678 208 q 576 492 678 419 q 417 542 507 542 z "},"Œ":{"ha":833,"x_min":44,"x_max":794,"o":"m 375 51 l 375 729 q 172 624 254 729 q 96 390 96 526 q 197 129 96 229 q 375 51 275 51 m 668 558 l 668 360 l 621 360 l 621 446 l 426 446 l 426 47 l 731 47 l 747 168 l 794 168 l 778 0 l 375 0 q 135 122 232 0 q 44 390 44 235 q 151 678 44 561 q 375 781 246 781 l 778 781 l 790 621 l 743 621 l 731 733 l 426 733 l 426 493 l 621 493 l 621 558 l 668 558 z "},"œ":{"ha":833,"x_min":21,"x_max":821,"o":"m 765 343 q 708 514 757 474 q 615 542 674 542 q 463 376 485 542 q 460 343 461 361 l 765 343 m 240 594 q 407 489 343 594 q 428 447 418 469 q 615 593 472 593 q 811 422 776 593 q 821 296 821 369 l 460 296 q 576 60 460 97 q 629 51 600 51 q 747 107 699 51 q 771 135 729 86 l 803 96 q 646 1 731 8 q 629 0 638 0 q 429 147 475 0 q 294 7 383 38 q 240 -3 268 -3 q 71 106 136 -3 q 21 296 21 189 q 101 528 21 438 q 240 594 161 594 m 240 543 q 113 458 164 543 q 71 296 71 389 q 147 89 71 163 q 240 49 190 49 q 363 138 308 49 q 408 296 408 213 q 344 485 408 406 q 240 543 297 543 z "},"Ŕ":{"ha":833,"x_min":13,"x_max":736,"o":"m 522 1110 l 288 867 l 224 867 l 393 1110 l 522 1110 m 199 390 l 499 390 q 638 442 581 390 q 689 561 689 488 q 568 724 689 689 q 499 733 535 733 l 199 733 l 199 390 m 461 343 q 603 138 550 263 q 639 47 617 107 l 736 47 l 736 0 l 606 0 q 515 206 547 153 q 388 343 469 279 l 197 343 l 197 47 l 378 47 l 378 0 l 13 0 l 13 47 l 147 47 l 147 733 l 13 733 l 13 781 l 499 781 q 682 710 614 781 q 736 561 736 653 q 610 369 736 428 q 499 343 554 343 l 461 343 z "},"ŕ":{"ha":833,"x_min":76,"x_max":685,"o":"m 647 938 l 413 694 l 349 694 l 518 938 l 647 938 m 642 504 q 558 549 624 525 q 503 560 525 560 q 275 478 414 560 q 249 461 261 469 l 249 49 l 367 49 l 367 0 l 76 0 l 76 49 l 197 49 l 197 544 l 76 544 l 76 592 l 249 592 l 249 522 q 303 551 299 549 q 501 611 407 610 q 667 553 590 611 q 685 538 676 546 l 642 504 z "},"Ŗ":{"ha":833,"x_min":13,"x_max":736,"o":"m 199 10 l 185 -65 q 321 -106 271 -47 q 346 -174 346 -136 q 265 -278 346 -244 q 107 -293 204 -303 l 114 -246 q 285 -207 242 -262 q 294 -182 294 -194 q 211 -108 294 -110 q 165 -114 190 -108 l 131 -122 l 147 8 l 199 10 m 199 390 l 499 390 q 638 442 581 390 q 689 561 689 488 q 568 724 689 689 q 499 733 535 733 l 199 733 l 199 390 m 461 343 q 603 138 550 263 q 639 47 617 107 l 736 47 l 736 0 l 606 0 q 515 206 547 153 q 388 343 469 279 l 197 343 l 197 47 l 378 47 l 378 0 l 13 0 l 13 47 l 147 47 l 147 733 l 13 733 l 13 781 l 499 781 q 682 710 614 781 q 736 561 736 653 q 610 369 736 428 q 499 343 554 343 l 461 343 z "},"ŗ":{"ha":833,"x_min":76,"x_max":685,"o":"m 222 10 l 208 -65 q 344 -106 294 -47 q 369 -174 369 -136 q 289 -278 369 -244 q 131 -293 228 -303 l 138 -246 q 308 -207 265 -262 q 318 -182 318 -194 q 235 -108 318 -110 q 189 -114 214 -108 l 154 -122 l 171 8 l 222 10 m 642 504 q 558 549 624 525 q 503 560 525 560 q 275 478 414 560 q 249 461 261 469 l 249 49 l 367 49 l 367 0 l 76 0 l 76 49 l 197 49 l 197 544 l 76 544 l 76 592 l 249 592 l 249 522 q 303 551 299 549 q 501 611 407 610 q 667 553 590 611 q 685 538 676 546 l 642 504 z "},"Ř":{"ha":833,"x_min":13,"x_max":736,"o":"m 438 1035 l 271 867 l 242 867 l 74 1035 l 93 1054 l 258 925 l 418 1054 l 438 1035 m 199 390 l 499 390 q 638 442 581 390 q 689 561 689 488 q 568 724 689 689 q 499 733 535 733 l 199 733 l 199 390 m 461 343 q 603 138 550 263 q 639 47 617 107 l 736 47 l 736 0 l 606 0 q 515 206 547 153 q 388 343 469 279 l 197 343 l 197 47 l 378 47 l 378 0 l 13 0 l 13 47 l 147 47 l 147 733 l 13 733 l 13 781 l 499 781 q 682 710 614 781 q 736 561 736 653 q 610 369 736 428 q 499 343 554 343 l 461 343 z "},"ř":{"ha":833,"x_min":76,"x_max":685,"o":"m 563 863 l 396 694 l 367 694 l 199 863 l 218 882 l 383 753 l 543 882 l 563 863 m 642 504 q 558 549 624 525 q 503 560 525 560 q 275 478 414 560 q 249 461 261 469 l 249 49 l 367 49 l 367 0 l 76 0 l 76 49 l 197 49 l 197 544 l 76 544 l 76 592 l 249 592 l 249 522 q 303 551 299 549 q 501 611 407 610 q 667 553 590 611 q 685 538 676 546 l 642 504 z "},"Ś":{"ha":833,"x_min":172,"x_max":797,"o":"m 797 1118 l 563 875 l 499 875 l 668 1118 l 797 1118 m 639 792 q 622 713 622 746 q 656 608 622 644 l 611 608 q 607 611 608 610 q 510 715 579 676 q 422 740 467 740 q 253 675 308 740 q 225 600 225 642 q 329 461 225 507 q 474 414 346 454 q 638 313 600 374 q 661 221 661 274 q 553 47 661 107 q 414 13 489 13 q 256 72 326 13 q 240 63 244 83 q 219 0 232 31 l 172 0 q 192 58 172 0 q 204 119 204 96 q 176 207 204 154 q 172 214 174 211 l 219 214 q 238 174 219 214 q 381 67 289 85 q 414 64 397 64 q 576 132 519 64 q 610 221 610 171 q 508 349 610 306 q 368 396 496 354 q 200 500 239 436 q 174 600 174 542 q 290 764 174 711 q 422 792 351 792 q 563 742 494 792 q 579 743 576 731 q 592 792 583 774 l 639 792 z "},"ś":{"ha":833,"x_min":172,"x_max":797,"o":"m 797 926 l 563 683 l 499 683 l 668 926 l 797 926 m 639 600 q 622 532 622 567 q 656 446 622 476 l 608 446 q 507 531 579 500 q 422 549 464 549 q 236 489 278 549 q 225 451 225 472 q 328 346 225 381 l 531 294 q 660 171 651 256 q 661 156 661 164 q 553 19 661 67 q 414 -7 489 -7 q 256 39 326 -7 q 240 32 244 47 q 219 -17 235 14 l 172 -17 q 192 29 172 -17 q 204 83 204 57 q 178 153 204 110 q 172 161 175 158 l 219 161 q 238 131 219 161 q 394 46 292 54 q 414 44 404 44 q 592 106 544 44 q 610 156 610 128 q 514 251 610 219 l 313 300 q 175 431 186 340 q 174 451 174 440 q 290 579 174 538 q 422 600 351 600 q 563 563 492 600 q 579 563 576 553 q 592 600 583 588 l 639 600 z "},"Ŝ":{"ha":833,"x_min":172,"x_max":713,"o":"m 713 894 l 693 875 l 533 1004 l 368 875 l 349 894 l 517 1063 l 546 1063 l 713 894 m 639 792 q 622 713 622 746 q 656 608 622 644 l 611 608 q 607 611 608 610 q 510 715 579 676 q 422 740 467 740 q 253 675 308 740 q 225 600 225 642 q 329 461 225 507 q 474 414 346 454 q 638 313 600 374 q 661 221 661 274 q 553 47 661 107 q 414 13 489 13 q 256 72 326 13 q 240 63 244 83 q 219 0 232 31 l 172 0 q 192 58 172 0 q 204 119 204 96 q 176 207 204 154 q 172 214 174 211 l 219 214 q 238 174 219 214 q 381 67 289 85 q 414 64 397 64 q 576 132 519 64 q 610 221 610 171 q 508 349 610 306 q 368 396 496 354 q 200 500 239 436 q 174 600 174 542 q 290 764 174 711 q 422 792 351 792 q 563 742 494 792 q 579 743 576 731 q 592 792 583 774 l 639 792 z "},"ŝ":{"ha":833,"x_min":172,"x_max":713,"o":"m 713 703 l 693 683 l 533 813 l 368 683 l 349 703 l 517 871 l 546 871 l 713 703 m 639 600 q 622 532 622 567 q 656 446 622 476 l 608 446 q 507 531 579 500 q 422 549 464 549 q 236 489 278 549 q 225 451 225 472 q 328 346 225 381 l 531 294 q 660 171 651 256 q 661 156 661 164 q 553 19 661 67 q 414 -7 489 -7 q 256 39 326 -7 q 240 32 244 47 q 219 -17 235 14 l 172 -17 q 192 29 172 -17 q 204 83 204 57 q 178 153 204 110 q 172 161 175 158 l 219 161 q 238 131 219 161 q 394 46 292 54 q 414 44 404 44 q 592 106 544 44 q 610 156 610 128 q 514 251 610 219 l 313 300 q 175 431 186 340 q 174 451 174 440 q 290 579 174 538 q 422 600 351 600 q 563 563 492 600 q 579 563 576 553 q 592 600 583 588 l 639 600 z "},"Ş":{"ha":833,"x_min":131,"x_max":661,"o":"m 222 10 l 208 -65 q 344 -106 294 -47 q 369 -174 369 -136 q 289 -278 369 -244 q 131 -293 228 -303 l 138 -246 q 308 -207 265 -262 q 318 -182 318 -194 q 235 -108 318 -110 q 189 -114 214 -108 l 154 -122 l 171 8 l 222 10 m 639 792 q 622 713 622 746 q 656 608 622 644 l 611 608 q 607 611 608 610 q 510 715 579 676 q 422 740 467 740 q 253 675 308 740 q 225 600 225 642 q 329 461 225 507 q 474 414 346 454 q 638 313 600 374 q 661 221 661 274 q 553 47 661 107 q 414 13 489 13 q 256 72 326 13 q 240 63 244 83 q 219 0 232 31 l 172 0 q 192 58 172 0 q 204 119 204 96 q 176 207 204 154 q 172 214 174 211 l 219 214 q 238 174 219 214 q 381 67 289 85 q 414 64 397 64 q 576 132 519 64 q 610 221 610 171 q 508 349 610 306 q 368 396 496 354 q 200 500 239 436 q 174 600 174 542 q 290 764 174 711 q 422 792 351 792 q 563 742 494 792 q 579 743 576 731 q 592 792 583 774 l 639 792 z "},"ş":{"ha":833,"x_min":131,"x_max":661,"o":"m 222 -7 l 208 -82 q 344 -122 294 -64 q 369 -190 369 -153 q 289 -294 369 -261 q 131 -310 228 -319 l 138 -262 q 308 -224 265 -279 q 318 -199 318 -211 q 235 -125 318 -126 q 189 -131 214 -125 l 154 -139 l 171 -8 l 222 -7 m 639 600 q 622 532 622 567 q 656 446 622 476 l 608 446 q 507 531 579 500 q 422 549 464 549 q 236 489 278 549 q 225 451 225 472 q 328 346 225 381 l 531 294 q 660 171 651 256 q 661 156 661 164 q 553 19 661 67 q 414 -7 489 -7 q 256 39 326 -7 q 240 32 244 47 q 219 -17 235 14 l 172 -17 q 192 29 172 -17 q 204 83 204 57 q 178 153 204 110 q 172 161 175 158 l 219 161 q 238 131 219 161 q 394 46 292 54 q 414 44 404 44 q 592 106 544 44 q 610 156 610 128 q 514 251 610 219 l 313 300 q 175 431 186 340 q 174 451 174 440 q 290 579 174 538 q 422 600 351 600 q 563 563 492 600 q 579 563 576 553 q 592 600 583 588 l 639 600 z "},"Š":{"ha":833,"x_min":172,"x_max":713,"o":"m 713 1043 l 546 875 l 517 875 l 349 1043 l 368 1063 l 533 933 l 693 1063 l 713 1043 m 639 792 q 622 713 622 746 q 656 608 622 644 l 611 608 q 607 611 608 610 q 510 715 579 676 q 422 740 467 740 q 253 675 308 740 q 225 600 225 642 q 329 461 225 507 q 474 414 346 454 q 638 313 600 374 q 661 221 661 274 q 553 47 661 107 q 414 13 489 13 q 256 72 326 13 q 240 63 244 83 q 219 0 232 31 l 172 0 q 192 58 172 0 q 204 119 204 96 q 176 207 204 154 q 172 214 174 211 l 219 214 q 238 174 219 214 q 381 67 289 85 q 414 64 397 64 q 576 132 519 64 q 610 221 610 171 q 508 349 610 306 q 368 396 496 354 q 200 500 239 436 q 174 600 174 542 q 290 764 174 711 q 422 792 351 792 q 563 742 494 792 q 579 743 576 731 q 592 792 583 774 l 639 792 z "},"š":{"ha":833,"x_min":172,"x_max":713,"o":"m 713 851 l 546 683 l 517 683 l 349 851 l 368 871 l 533 742 l 693 871 l 713 851 m 639 600 q 622 532 622 567 q 656 446 622 476 l 608 446 q 507 531 579 500 q 422 549 464 549 q 236 489 278 549 q 225 451 225 472 q 328 346 225 381 l 531 294 q 660 171 651 256 q 661 156 661 164 q 553 19 661 67 q 414 -7 489 -7 q 256 39 326 -7 q 240 32 244 47 q 219 -17 235 14 l 172 -17 q 192 29 172 -17 q 204 83 204 57 q 178 153 204 110 q 172 161 175 158 l 219 161 q 238 131 219 161 q 394 46 292 54 q 414 44 404 44 q 592 106 544 44 q 610 156 610 128 q 514 251 610 219 l 313 300 q 175 431 186 340 q 174 451 174 440 q 290 579 174 538 q 422 600 351 600 q 563 563 492 600 q 579 563 576 553 q 592 600 583 588 l 639 600 z "},"Ţ":{"ha":833,"x_min":61,"x_max":772,"o":"m 443 10 l 429 -65 q 565 -106 515 -47 q 590 -174 590 -136 q 510 -278 590 -244 q 351 -293 449 -303 l 358 -246 q 529 -207 486 -262 q 539 -182 539 -194 q 456 -108 539 -110 q 410 -114 435 -108 l 375 -122 l 392 8 l 443 10 m 725 497 l 711 733 l 442 733 l 442 47 l 649 47 l 649 0 l 186 0 l 186 47 l 392 47 l 392 733 l 124 733 l 110 497 l 61 497 l 75 781 l 757 781 l 772 497 l 725 497 z "},"ţ":{"ha":833,"x_min":74,"x_max":738,"o":"m 464 -17 l 450 -92 q 586 -132 536 -74 q 611 -200 611 -162 q 531 -304 611 -271 q 372 -319 469 -329 l 379 -272 q 550 -233 507 -289 q 560 -208 560 -221 q 476 -135 560 -136 q 431 -140 456 -135 l 396 -149 l 413 -18 l 464 -17 m 74 592 l 182 592 l 182 775 l 233 775 l 233 592 l 583 592 l 583 544 l 233 544 l 233 196 q 308 68 233 122 q 439 25 368 25 q 699 185 539 25 l 738 151 q 522 -8 633 36 q 439 -26 476 -26 q 250 51 331 -26 q 183 196 183 115 l 183 544 l 74 544 l 74 592 z "},"Ť":{"ha":833,"x_min":61,"x_max":772,"o":"m 597 1035 l 431 867 l 401 867 l 233 1035 l 253 1054 l 418 925 l 578 1054 l 597 1035 m 725 497 l 711 733 l 442 733 l 442 47 l 649 47 l 649 0 l 186 0 l 186 47 l 392 47 l 392 733 l 124 733 l 110 497 l 61 497 l 75 781 l 757 781 l 772 497 l 725 497 z "},"ť":{"ha":833,"x_min":26,"x_max":738,"o":"m 390 1026 l 224 858 l 194 858 l 26 1026 l 46 1046 l 211 917 l 371 1046 l 390 1026 m 74 592 l 182 592 l 182 775 l 233 775 l 233 592 l 583 592 l 583 544 l 233 544 l 233 196 q 308 68 233 122 q 439 25 368 25 q 699 185 539 25 l 738 151 q 522 -8 633 36 q 439 -26 476 -26 q 250 51 331 -26 q 183 196 183 115 l 183 544 l 74 544 l 74 592 z "},"Ŧ":{"ha":833,"x_min":61,"x_max":772,"o":"m 725 497 l 711 733 l 442 733 l 442 439 l 583 439 l 583 392 l 442 392 l 442 47 l 649 47 l 649 0 l 186 0 l 186 47 l 392 47 l 392 392 l 250 392 l 250 439 l 392 439 l 392 733 l 124 733 l 110 497 l 61 497 l 75 781 l 757 781 l 772 497 l 725 497 z "},"ŧ":{"ha":833,"x_min":74,"x_max":738,"o":"m 74 592 l 182 592 l 182 775 l 233 775 l 233 592 l 583 592 l 583 544 l 233 544 l 233 385 l 317 385 l 317 338 l 233 338 l 233 196 q 308 68 233 122 q 439 25 368 25 q 699 185 539 25 l 738 151 q 522 -8 633 36 q 439 -26 476 -26 q 250 51 331 -26 q 183 196 183 115 l 183 338 l 101 338 l 101 385 l 183 385 l 183 544 l 74 544 l 74 592 z "},"Ũ":{"ha":833,"x_min":39,"x_max":794,"o":"m 275 867 q 329 960 276 926 q 379 975 354 975 q 440 944 400 976 q 475 928 463 926 q 550 969 522 932 l 557 969 q 522 882 561 914 q 478 867 503 867 q 411 897 446 868 q 375 915 390 915 q 289 867 319 914 l 275 867 m 794 733 l 696 733 l 696 249 q 624 85 696 165 q 417 -10 538 -10 q 201 99 290 -10 q 138 249 138 176 l 138 733 l 39 733 l 39 781 l 322 781 l 322 733 l 183 733 l 183 249 q 244 125 183 194 q 415 38 322 38 q 600 133 524 38 q 649 249 649 194 l 649 733 l 511 733 l 511 781 l 794 781 l 794 733 z "},"ũ":{"ha":833,"x_min":31,"x_max":800,"o":"m 214 676 q 268 769 215 736 q 318 785 293 785 q 379 754 339 786 q 414 738 401 736 q 489 779 461 742 l 496 779 q 461 692 500 724 q 417 676 442 676 q 350 707 385 678 q 314 725 329 725 q 228 676 258 724 l 214 676 m 629 71 q 575 42 583 46 q 385 -18 464 -18 q 211 58 290 -18 q 149 182 149 119 l 149 544 l 31 544 l 31 592 l 200 592 l 199 183 l 199 182 q 261 82 199 133 q 385 33 321 33 q 622 128 476 33 q 629 132 626 129 l 629 544 l 511 544 l 511 592 l 681 592 l 681 49 l 800 49 l 800 0 l 629 0 l 629 71 z "},"Ū":{"ha":833,"x_min":39,"x_max":794,"o":"m 176 914 l 658 914 l 658 867 l 176 867 l 176 914 m 794 733 l 696 733 l 696 249 q 624 85 696 165 q 417 -10 538 -10 q 201 99 290 -10 q 138 249 138 176 l 138 733 l 39 733 l 39 781 l 322 781 l 322 733 l 183 733 l 183 249 q 244 125 183 194 q 415 38 322 38 q 600 133 524 38 q 649 249 649 194 l 649 733 l 511 733 l 511 781 l 794 781 l 794 733 z "},"ū":{"ha":833,"x_min":31,"x_max":800,"o":"m 114 724 l 596 724 l 596 676 l 114 676 l 114 724 m 629 71 q 575 42 583 46 q 385 -18 464 -18 q 211 58 290 -18 q 149 182 149 119 l 149 544 l 31 544 l 31 592 l 200 592 l 199 183 l 199 182 q 261 82 199 133 q 385 33 321 33 q 622 128 476 33 q 629 132 626 129 l 629 544 l 511 544 l 511 592 l 681 592 l 681 49 l 800 49 l 800 0 l 629 0 l 629 71 z "},"Ŭ":{"ha":833,"x_min":39,"x_max":794,"o":"m 561 1000 q 479 879 550 913 q 418 867 450 867 q 294 938 335 867 q 274 1000 278 965 l 307 1000 q 418 939 325 939 q 528 1000 500 939 l 561 1000 m 794 733 l 696 733 l 696 249 q 624 85 696 165 q 417 -10 538 -10 q 201 99 290 -10 q 138 249 138 176 l 138 733 l 39 733 l 39 781 l 322 781 l 322 733 l 183 733 l 183 249 q 244 125 183 194 q 415 38 322 38 q 600 133 524 38 q 649 249 649 194 l 649 733 l 511 733 l 511 781 l 794 781 l 794 733 z "},"ŭ":{"ha":833,"x_min":31,"x_max":800,"o":"m 500 810 q 418 689 489 722 q 357 676 389 676 q 233 747 274 676 q 213 810 217 775 l 246 810 q 357 749 264 749 q 467 810 439 749 l 500 810 m 629 71 q 575 42 583 46 q 385 -18 464 -18 q 211 58 290 -18 q 149 182 149 119 l 149 544 l 31 544 l 31 592 l 200 592 l 199 183 l 199 182 q 261 82 199 133 q 385 33 321 33 q 622 128 476 33 q 629 132 626 129 l 629 544 l 511 544 l 511 592 l 681 592 l 681 49 l 800 49 l 800 0 l 629 0 l 629 71 z "},"Ů":{"ha":833,"x_min":39,"x_max":794,"o":"m 417 1119 q 524 1060 486 1119 q 543 993 543 1029 q 483 886 543 924 q 417 867 453 867 q 310 926 347 867 q 290 993 290 957 q 350 1100 290 1063 q 417 1119 381 1119 m 417 1072 q 346 1029 369 1072 q 338 993 338 1013 q 381 922 338 946 q 417 914 397 914 q 488 957 464 914 q 496 993 496 974 q 453 1064 496 1040 q 417 1072 436 1072 m 794 733 l 696 733 l 696 249 q 624 85 696 165 q 417 -10 538 -10 q 201 99 290 -10 q 138 249 138 176 l 138 733 l 39 733 l 39 781 l 322 781 l 322 733 l 183 733 l 183 249 q 244 125 183 194 q 415 38 322 38 q 600 133 524 38 q 649 249 649 194 l 649 733 l 511 733 l 511 781 l 794 781 l 794 733 z "},"ů":{"ha":833,"x_min":31,"x_max":800,"o":"m 356 929 q 463 869 425 929 q 482 803 482 839 q 422 696 482 733 q 356 676 392 676 q 249 736 286 676 q 229 803 229 767 q 289 910 229 872 q 356 929 319 929 m 356 882 q 285 839 308 882 q 276 803 276 822 q 319 732 276 756 q 356 724 336 724 q 426 767 403 724 q 435 803 435 783 q 392 874 435 850 q 356 882 375 882 m 629 71 q 575 42 583 46 q 385 -18 464 -18 q 211 58 290 -18 q 149 182 149 119 l 149 544 l 31 544 l 31 592 l 200 592 l 199 183 l 199 182 q 261 82 199 133 q 385 33 321 33 q 622 128 476 33 q 629 132 626 129 l 629 544 l 511 544 l 511 592 l 681 592 l 681 49 l 800 49 l 800 0 l 629 0 l 629 71 z "},"Ű":{"ha":833,"x_min":39,"x_max":810,"o":"m 557 1110 l 322 867 l 258 867 l 428 1110 l 557 1110 m 810 1110 l 575 867 l 511 867 l 681 1110 l 810 1110 m 794 733 l 696 733 l 696 249 q 624 85 696 165 q 417 -10 538 -10 q 201 99 290 -10 q 138 249 138 176 l 138 733 l 39 733 l 39 781 l 322 781 l 322 733 l 183 733 l 183 249 q 244 125 183 194 q 415 38 322 38 q 600 133 524 38 q 649 249 649 194 l 649 733 l 511 733 l 511 781 l 794 781 l 794 733 z "},"ű":{"ha":833,"x_min":31,"x_max":800,"o":"m 496 919 l 261 676 l 197 676 l 367 919 l 496 919 m 749 919 l 514 676 l 450 676 l 619 919 l 749 919 m 629 71 q 575 42 583 46 q 385 -18 464 -18 q 211 58 290 -18 q 149 182 149 119 l 149 544 l 31 544 l 31 592 l 200 592 l 199 183 l 199 182 q 261 82 199 133 q 385 33 321 33 q 622 128 476 33 q 629 132 626 129 l 629 544 l 511 544 l 511 592 l 681 592 l 681 49 l 800 49 l 800 0 l 629 0 l 629 71 z "},"Ų":{"ha":833,"x_min":39,"x_max":794,"o":"m 388 -1 l 446 -1 q 379 -69 393 -10 q 376 -112 374 -90 q 467 -175 383 -161 q 585 -126 540 -187 l 613 -161 q 474 -237 564 -239 q 344 -179 388 -236 q 321 -112 321 -150 q 388 -1 321 -37 m 794 733 l 696 733 l 696 249 q 624 85 696 165 q 417 -10 538 -10 q 201 99 290 -10 q 138 249 138 176 l 138 733 l 39 733 l 39 781 l 322 781 l 322 733 l 183 733 l 183 249 q 244 125 183 194 q 415 38 322 38 q 600 133 524 38 q 649 249 649 194 l 649 733 l 511 733 l 511 781 l 794 781 l 794 733 z "},"ų":{"ha":833,"x_min":31,"x_max":850,"o":"m 625 -10 l 683 -10 q 617 -78 631 -18 q 614 -121 611 -99 q 704 -183 621 -169 q 822 -135 778 -196 l 850 -169 q 711 -246 801 -247 q 582 -187 625 -244 q 558 -121 558 -158 q 625 -10 558 -46 m 629 71 q 575 42 583 46 q 385 -18 464 -18 q 211 58 290 -18 q 149 182 149 119 l 149 544 l 31 544 l 31 592 l 200 592 l 199 183 l 199 182 q 261 82 199 133 q 385 33 321 33 q 622 128 476 33 q 629 132 626 129 l 629 544 l 511 544 l 511 592 l 681 592 l 681 49 l 800 49 l 800 0 l 629 0 l 629 71 z "},"Ŵ":{"ha":833,"x_min":0,"x_max":833,"o":"m 599 886 l 579 867 l 419 996 l 254 867 l 235 886 l 403 1054 l 432 1054 l 599 886 m 558 781 l 833 781 l 833 733 l 800 733 l 603 -21 l 572 -21 l 417 514 l 261 -21 l 231 -21 l 33 733 l 0 733 l 0 781 l 275 781 l 275 733 l 86 733 l 247 117 l 399 635 l 435 635 l 586 117 l 747 733 l 558 733 l 558 781 z "},"ŵ":{"ha":833,"x_min":0,"x_max":833,"o":"m 599 696 l 579 676 l 419 806 l 254 676 l 235 696 l 403 864 l 432 864 l 599 696 m 106 544 l 253 78 l 397 451 l 436 451 l 581 78 l 728 544 l 554 544 l 554 592 l 833 592 l 833 544 l 782 544 l 601 -33 l 568 -33 l 417 358 l 265 -33 l 232 -33 l 51 544 l 0 544 l 0 592 l 279 592 l 279 544 l 106 544 z "},"Ŷ":{"ha":833,"x_min":82,"x_max":751,"o":"m 599 886 l 579 867 l 419 996 l 254 867 l 235 886 l 403 1054 l 432 1054 l 599 886 m 440 47 l 521 47 l 521 0 l 310 0 l 310 47 l 389 47 l 389 379 l 131 733 l 82 733 l 82 781 l 278 781 l 278 733 l 194 733 l 417 433 l 639 733 l 556 733 l 556 781 l 751 781 l 751 733 l 703 733 l 440 379 l 440 47 z "},"ŷ":{"ha":833,"x_min":0,"x_max":819,"o":"m 599 696 l 579 676 l 419 806 l 254 676 l 235 696 l 403 864 l 432 864 l 599 696 m 394 -233 l 0 -233 l 0 -186 l 296 -186 l 388 0 l 119 544 l 14 544 l 14 592 l 279 592 l 279 544 l 176 544 l 417 58 l 657 544 l 554 544 l 554 592 l 819 592 l 819 544 l 714 544 l 353 -186 l 394 -186 l 394 -233 z "},"Ÿ":{"ha":833,"x_min":82,"x_max":751,"o":"m 254 919 q 289 969 254 957 q 307 972 297 972 q 357 938 344 972 q 360 919 360 929 q 325 869 360 882 q 307 867 317 867 q 257 901 269 867 q 254 919 254 910 m 472 919 q 507 969 472 957 q 525 972 515 972 q 575 938 563 972 q 578 919 578 929 q 543 869 578 882 q 525 867 535 867 q 475 901 488 867 q 472 919 472 910 m 440 47 l 521 47 l 521 0 l 310 0 l 310 47 l 389 47 l 389 379 l 131 733 l 82 733 l 82 781 l 278 781 l 278 733 l 194 733 l 417 433 l 639 733 l 556 733 l 556 781 l 751 781 l 751 733 l 703 733 l 440 379 l 440 47 z "},"Ź":{"ha":833,"x_min":169,"x_max":678,"o":"m 678 1110 l 443 867 l 379 867 l 549 1110 l 678 1110 m 600 47 l 615 264 l 664 264 l 644 0 l 174 0 l 174 28 l 572 733 l 228 733 l 218 521 l 169 521 l 182 781 l 642 781 l 642 749 l 244 47 l 600 47 z "},"ź":{"ha":833,"x_min":115,"x_max":718,"o":"m 671 919 l 436 676 l 372 676 l 542 919 l 671 919 m 693 544 l 210 47 l 671 47 l 671 97 l 718 97 l 718 0 l 138 0 l 138 47 l 621 544 l 163 544 l 163 494 l 115 494 l 115 592 l 693 592 l 693 544 z "},"Ż":{"ha":833,"x_min":169,"x_max":664,"o":"m 464 1001 l 464 867 l 361 867 l 361 1001 l 464 1001 m 600 47 l 615 264 l 664 264 l 644 0 l 174 0 l 174 28 l 572 733 l 228 733 l 218 521 l 169 521 l 182 781 l 642 781 l 642 749 l 244 47 l 600 47 z "},"ż":{"ha":833,"x_min":115,"x_max":718,"o":"m 456 811 l 456 676 l 353 676 l 353 811 l 456 811 m 693 544 l 210 47 l 671 47 l 671 97 l 718 97 l 718 0 l 138 0 l 138 47 l 621 544 l 163 544 l 163 494 l 115 494 l 115 592 l 693 592 l 693 544 z "},"Ž":{"ha":833,"x_min":169,"x_max":664,"o":"m 593 1035 l 426 867 l 397 867 l 229 1035 l 249 1054 l 414 925 l 574 1054 l 593 1035 m 600 47 l 615 264 l 664 264 l 644 0 l 174 0 l 174 28 l 572 733 l 228 733 l 218 521 l 169 521 l 182 781 l 642 781 l 642 749 l 244 47 l 600 47 z "},"ž":{"ha":833,"x_min":115,"x_max":718,"o":"m 586 844 l 419 676 l 390 676 l 222 844 l 242 864 l 407 735 l 567 864 l 586 844 m 693 544 l 210 47 l 671 47 l 671 97 l 718 97 l 718 0 l 138 0 l 138 47 l 621 544 l 163 544 l 163 494 l 115 494 l 115 592 l 693 592 l 693 544 z "},"ſ":{"ha":833,"x_min":156,"x_max":669,"o":"m 257 47 l 257 544 l 156 544 l 156 592 l 256 592 l 256 701 q 346 840 256 786 q 464 875 403 875 q 669 810 579 875 l 639 768 q 464 824 563 824 q 338 768 389 824 q 307 701 307 736 l 307 47 l 539 47 l 539 0 l 156 0 l 156 47 l 257 47 z "},"ƀ":{"ha":833,"x_min":49,"x_max":789,"o":"m 478 542 q 279 456 358 542 q 217 296 217 388 q 315 103 217 176 q 476 50 388 50 q 681 142 601 50 q 738 296 738 210 q 643 485 738 411 q 478 542 572 542 m 165 819 l 57 799 l 49 846 l 217 878 l 217 715 l 332 715 l 332 668 l 217 668 l 217 460 q 426 589 293 568 q 476 593 451 593 q 713 490 619 593 q 789 296 789 407 q 683 72 789 161 q 478 -1 596 -1 q 243 100 336 -1 q 218 132 229 115 l 218 0 l 54 0 l 54 47 l 167 47 l 167 668 l 57 668 l 57 715 l 165 715 l 165 819 z "},"Ɓ":{"ha":833,"x_min":25,"x_max":719,"o":"m 288 501 l 532 501 q 649 560 611 501 q 665 617 665 586 q 600 718 665 685 q 533 733 569 733 l 288 733 l 288 501 m 288 47 l 532 47 q 642 121 601 47 q 672 256 672 175 q 601 424 672 361 q 533 454 567 454 l 288 454 l 288 47 m 532 781 q 676 717 621 781 q 713 617 713 674 q 617 472 713 518 q 715 304 697 414 q 719 256 719 279 q 633 36 719 107 q 533 0 589 0 l 113 0 l 113 47 l 236 47 l 236 733 l 114 733 q 61 697 63 733 q 61 690 61 694 q 92 692 75 694 q 135 644 135 679 q 101 594 135 606 q 85 592 93 592 q 33 639 51 592 q 29 704 21 672 q 135 781 49 781 l 532 781 z "},"Ƃ":{"ha":833,"x_min":90,"x_max":743,"o":"m 467 482 q 286 401 357 482 q 235 264 235 342 q 326 89 235 154 q 467 44 389 44 q 650 131 581 44 q 697 264 697 190 q 611 433 697 368 q 467 482 549 482 m 678 739 l 235 739 l 235 410 q 425 525 303 507 q 467 528 446 528 q 678 433 594 528 q 743 264 743 360 q 644 63 743 142 q 467 0 568 0 q 254 92 338 0 q 235 117 243 104 l 235 0 l 90 0 l 90 42 l 189 42 l 189 739 l 114 739 l 114 781 l 721 781 l 740 578 l 697 578 l 678 739 z "},"ƃ":{"ha":833,"x_min":50,"x_max":760,"o":"m 447 542 q 249 456 328 542 q 188 296 188 388 q 286 103 188 176 q 447 50 357 50 q 651 142 572 50 q 708 296 708 210 q 615 485 708 411 q 447 542 543 542 m 686 831 l 188 831 l 188 460 q 394 589 261 567 q 447 593 421 593 q 682 493 588 593 q 760 296 760 408 q 654 74 760 163 q 447 -1 565 -1 q 213 100 306 -1 q 188 132 199 115 l 188 0 l 136 0 l 136 831 l 50 831 l 50 878 l 733 878 l 756 649 l 708 649 l 686 831 z "},"Ƅ":{"ha":833,"x_min":50,"x_max":789,"o":"m 478 542 q 279 456 358 542 q 217 296 217 388 q 315 103 217 176 q 476 50 388 50 q 681 142 601 50 q 738 296 738 210 q 643 485 738 411 q 478 542 572 542 m 167 819 l 58 799 l 50 846 l 218 878 l 217 460 q 426 589 293 568 q 476 593 451 593 q 713 490 619 593 q 789 296 789 407 q 683 72 789 161 q 478 -1 596 -1 q 243 100 336 -1 q 218 132 229 115 l 218 0 l 167 0 l 167 819 z "},"ƅ":{"ha":833,"x_min":49,"x_max":789,"o":"m 478 542 q 279 456 358 542 q 218 296 218 388 q 317 103 218 176 q 476 50 388 50 q 681 142 601 50 q 738 296 738 210 q 643 485 738 411 q 478 542 572 542 m 165 819 l 57 799 l 49 846 l 217 878 l 217 460 q 426 589 293 568 q 476 593 451 593 q 713 490 619 593 q 789 296 789 407 q 683 72 789 161 q 478 -1 596 -1 q 217 125 300 -1 q 167 300 167 200 l 165 815 l 165 819 z "},"Ɔ":{"ha":833,"x_min":140,"x_max":732,"o":"m 401 -8 q 228 53 286 -8 q 214 57 215 63 q 213 51 213 56 q 196 -4 210 22 l 149 -4 q 167 92 167 46 q 140 186 167 124 l 189 186 q 304 64 213 106 q 401 43 353 43 q 604 150 521 43 q 681 385 681 249 q 579 646 681 544 q 401 725 501 725 q 238 665 310 725 q 207 635 219 651 l 164 665 q 338 768 225 743 q 401 776 371 776 q 643 651 546 776 q 732 385 732 539 q 626 96 732 213 q 401 -8 532 -8 z "},"Ƈ":{"ha":833,"x_min":121,"x_max":861,"o":"m 640 722 q 661 779 643 751 q 690 818 685 813 q 769 847 722 847 q 856 799 838 847 q 861 772 861 786 q 825 735 861 739 q 768 761 788 729 q 761 790 761 774 q 769 819 761 806 q 707 785 736 833 q 704 779 706 782 q 686 683 686 729 q 713 592 686 658 l 664 592 q 547 713 640 674 q 451 732 500 732 q 249 625 332 732 q 172 390 172 526 q 274 126 172 229 q 451 49 351 49 q 614 107 540 49 q 646 139 632 122 l 689 110 q 515 6 626 32 q 451 -3 482 -3 q 210 121 307 -3 q 121 390 121 235 q 226 679 121 563 q 451 783 321 783 q 625 722 567 783 q 640 722 639 713 z "},"ƈ":{"ha":833,"x_min":96,"x_max":840,"o":"m 631 524 l 636 544 q 683 594 663 582 q 749 613 711 613 q 835 564 817 613 q 840 538 840 551 q 804 500 840 504 q 747 526 767 494 q 740 556 740 539 q 749 585 740 569 q 686 550 715 599 q 683 544 685 547 q 667 467 683 544 q 693 417 679 449 l 644 400 q 488 531 596 497 q 408 542 449 542 q 204 450 283 542 q 147 296 147 382 q 243 110 147 183 q 421 51 321 51 q 590 101 499 51 q 624 122 610 111 l 651 75 q 465 3 581 19 q 421 0 442 0 q 171 104 267 0 q 96 296 96 186 q 201 518 96 429 q 408 593 290 593 q 611 521 518 593 q 631 524 626 511 z "},"Ɖ":{"ha":833,"x_min":72,"x_max":761,"o":"m 257 47 l 482 47 q 643 158 571 47 q 713 394 713 268 q 658 600 713 496 q 482 733 589 733 l 257 733 l 257 439 l 353 439 l 353 392 l 257 392 l 257 47 m 72 47 l 206 47 l 206 392 l 114 392 l 114 439 l 206 439 l 206 733 l 72 733 l 72 781 l 482 781 q 708 613 628 781 q 761 397 761 506 q 701 154 761 269 q 482 0 622 0 l 72 0 l 72 47 z "},"Ɗ":{"ha":833,"x_min":-17,"x_max":761,"o":"m 257 47 l 482 47 q 643 158 571 47 q 713 394 713 268 q 658 600 713 496 q 482 733 589 733 l 257 733 l 257 47 m 482 781 q 708 613 628 781 q 761 397 761 506 q 701 154 761 269 q 482 0 622 0 l 72 0 l 72 47 l 206 47 l 206 733 l 72 733 q 19 697 21 733 q 19 690 19 694 q 50 692 33 694 q 93 639 94 679 q 60 593 92 603 q 43 590 51 590 q -11 640 4 590 q -12 704 -19 672 q 93 781 7 781 l 482 781 z "},"Ƌ":{"ha":833,"x_min":71,"x_max":724,"o":"m 347 482 q 164 396 233 482 q 117 264 117 338 q 203 93 117 160 q 347 44 265 44 q 528 125 457 44 q 579 264 579 185 q 488 438 579 372 q 347 482 425 482 m 136 739 l 117 578 l 74 578 l 93 781 l 700 781 l 700 739 l 625 739 l 625 42 l 724 42 l 724 0 l 579 0 l 579 117 q 386 3 510 19 q 347 0 367 0 q 136 94 218 0 q 71 264 71 167 q 169 465 71 386 q 347 528 246 528 q 558 435 475 528 q 579 410 569 424 l 579 739 l 136 739 z "},"ƌ":{"ha":833,"x_min":67,"x_max":776,"o":"m 379 542 q 175 450 254 542 q 118 296 118 382 q 211 107 118 181 q 379 50 283 50 q 578 136 499 50 q 640 296 640 204 q 542 488 640 414 q 379 542 469 542 m 140 831 l 118 649 l 71 649 l 93 878 l 776 878 l 776 831 l 690 831 l 690 0 l 639 0 l 639 132 q 432 3 565 25 q 379 -1 406 -1 q 144 99 239 -1 q 67 296 67 183 q 172 518 67 429 q 379 593 261 593 q 614 492 521 593 q 639 460 628 476 l 639 831 l 140 831 z "},"ƍ":{"ha":833,"x_min":104,"x_max":729,"o":"m 417 593 q 651 493 557 593 q 729 296 729 408 q 624 74 729 163 q 429 0 540 4 l 429 -101 q 372 -178 429 -147 q 303 -196 339 -196 q 197 -126 222 -196 q 193 -115 194 -121 q 224 -18 176 -47 q 244 -8 233 -11 q 289 -33 276 1 q 274 -99 304 -72 q 250 -110 264 -106 q 221 -108 233 -112 q 271 -168 214 -150 q 306 -174 289 -174 q 388 -139 358 -174 q 401 -100 401 -121 l 401 0 q 174 110 263 6 q 104 296 104 190 q 210 518 104 429 q 417 593 299 593 m 417 542 q 215 451 294 542 q 156 296 156 383 q 249 107 156 181 q 417 50 321 50 q 624 143 549 50 q 678 296 678 208 q 576 492 678 419 q 417 542 507 542 z "},"Ǝ":{"ha":833,"x_min":113,"x_max":740,"o":"m 239 222 l 239 421 l 286 421 l 286 335 l 554 335 l 554 733 l 176 733 l 160 613 l 113 613 l 129 781 l 740 781 l 740 733 l 606 733 l 606 47 l 740 47 l 740 0 l 129 0 l 117 160 l 164 160 l 176 47 l 554 47 l 554 288 l 286 288 l 286 222 l 239 222 z "},"Ə":{"ha":833,"x_min":49,"x_max":756,"o":"m 700 357 q 704 428 704 392 q 593 679 704 585 q 396 750 510 750 q 138 631 249 750 q 90 572 115 606 l 49 603 q 293 789 163 754 q 396 801 342 801 q 664 682 560 801 q 756 428 756 578 q 626 65 756 189 q 378 -26 529 -26 q 147 115 246 -26 q 67 335 72 232 l 67 357 l 700 357 m 693 306 l 119 306 q 210 117 133 206 q 378 25 288 25 q 668 221 589 25 q 693 306 683 260 z "},"Ɛ":{"ha":833,"x_min":193,"x_max":640,"o":"m 193 232 q 294 421 193 346 q 208 533 233 447 q 200 593 200 564 q 279 740 200 679 q 385 781 331 781 q 553 719 500 781 q 568 721 567 708 q 585 781 572 751 l 632 781 q 614 682 615 735 q 640 586 614 653 l 592 586 q 478 710 568 669 q 385 729 432 729 q 275 668 319 729 q 247 593 247 632 q 300 482 247 528 q 379 450 336 450 l 456 450 l 456 403 l 385 403 q 289 356 335 403 q 240 232 240 306 q 338 61 240 103 q 397 47 367 47 q 574 138 503 47 l 617 108 q 422 -3 538 8 q 397 -4 410 -4 q 257 63 319 -4 q 193 232 193 131 z "},"Ƒ":{"ha":833,"x_min":57,"x_max":732,"o":"m 149 -167 q 214 -136 176 -178 q 236 -96 236 -112 l 236 733 l 101 733 l 101 781 l 714 781 l 732 560 l 683 560 l 665 733 l 288 733 l 288 493 l 456 493 l 456 558 l 503 558 l 503 360 l 454 360 l 454 446 l 288 446 l 288 -57 q 228 -162 288 -119 q 149 -189 192 -189 q 58 -136 72 -189 q 57 -119 57 -128 q 93 -81 57 -85 q 150 -108 131 -75 q 157 -137 157 -121 q 149 -167 157 -153 z "},"ƒ":{"ha":833,"x_min":-54,"x_max":719,"o":"m 358 -60 q 268 -200 358 -144 q 151 -233 211 -233 q -54 -168 33 -233 l -25 -126 q 150 -182 54 -182 q 276 -126 225 -182 q 307 -60 307 -94 l 307 544 l 206 544 l 206 592 l 307 592 l 307 701 q 397 842 307 786 q 514 875 454 875 q 719 810 632 875 l 690 768 q 515 824 611 824 q 389 768 440 824 q 358 701 358 736 l 358 592 l 706 592 l 706 544 l 358 544 l 358 -60 z "},"Ɠ":{"ha":833,"x_min":111,"x_max":858,"o":"m 636 722 q 657 779 644 760 q 706 833 681 819 q 764 847 731 847 q 851 799 832 847 q 857 772 857 786 q 822 735 858 739 q 764 761 783 729 q 757 790 757 774 q 765 819 757 806 q 706 789 733 833 q 700 779 701 783 q 682 683 682 729 q 708 588 682 653 l 660 589 q 540 710 636 669 q 442 732 492 732 q 239 625 322 732 q 163 390 163 526 q 260 122 163 222 q 426 49 332 49 q 628 171 557 49 q 674 344 669 246 l 521 344 l 521 392 l 722 392 l 722 344 q 610 67 715 163 q 426 -3 535 -3 q 188 129 279 -3 q 111 390 111 239 q 218 679 111 563 q 442 783 313 783 q 613 729 554 783 q 619 722 617 726 q 636 722 631 708 z "},"Ɣ":{"ha":833,"x_min":18,"x_max":815,"o":"m 419 -83 l 400 -131 q 418 -178 381 -178 q 422 -92 463 -178 q 419 -83 421 -85 m 543 733 l 543 781 l 815 781 l 815 733 l 743 733 l 446 -14 l 486 -114 q 478 -206 507 -168 q 418 -229 457 -229 q 338 -179 353 -229 q 342 -125 331 -154 l 389 -8 l 92 733 l 18 733 l 18 781 l 290 781 l 290 733 l 147 733 l 418 56 l 688 733 l 543 733 z "},"ƕ":{"ha":833,"x_min":31,"x_max":785,"o":"m 517 411 l 517 182 q 575 44 517 76 q 618 33 593 33 q 725 129 700 33 q 733 200 733 160 l 733 544 l 615 544 l 615 592 l 785 592 l 785 182 q 693 3 785 56 q 617 -18 657 -18 q 474 106 504 -18 q 465 182 465 142 l 465 411 q 363 560 465 560 q 214 474 310 560 q 201 461 208 468 l 201 47 l 319 47 l 319 0 l 31 0 l 31 47 l 151 47 l 151 819 l 31 788 l 31 835 l 203 878 l 203 522 q 363 611 296 611 q 507 492 474 611 q 517 411 517 454 z "},"Ɩ":{"ha":833,"x_min":176,"x_max":718,"o":"m 453 -18 q 493 -124 453 -75 q 547 -154 519 -154 q 622 -126 594 -154 q 631 -115 628 -121 q 617 -76 617 -92 q 657 1 617 -14 q 708 -19 690 14 q 717 -58 718 -35 q 656 -147 715 -96 q 549 -194 599 -194 q 440 -133 485 -194 q 401 0 401 -81 l 401 818 l 176 763 l 176 810 l 453 878 l 453 -18 z "},"Ɨ":{"ha":833,"x_min":124,"x_max":710,"o":"m 396 733 l 125 733 l 125 781 l 710 781 l 710 733 l 446 733 l 446 458 l 588 458 l 588 411 l 446 411 l 446 47 l 708 47 l 708 0 l 124 0 l 124 47 l 396 47 l 396 411 l 258 411 l 258 458 l 396 458 l 396 733 z "},"Ƙ":{"ha":833,"x_min":44,"x_max":789,"o":"m 282 401 q 513 228 413 365 q 625 47 561 164 l 789 47 l 789 0 l 596 0 q 397 282 481 208 q 236 360 328 343 q 208 338 219 346 l 208 47 l 335 47 l 335 0 l 44 0 l 44 47 l 158 47 l 158 733 l 44 733 l 44 781 l 335 781 l 335 733 l 208 733 l 208 404 q 444 667 247 439 q 482 710 467 692 q 632 782 544 782 q 717 719 697 782 q 718 714 717 717 q 688 617 735 646 q 667 607 678 610 q 622 632 635 597 q 638 697 607 671 q 661 708 647 704 q 690 707 678 711 q 658 744 693 728 q 639 750 646 750 l 611 750 q 436 574 589 750 q 282 401 315 433 z "},"ƙ":{"ha":833,"x_min":76,"x_max":732,"o":"m 267 353 l 496 544 l 450 544 l 450 592 l 686 592 l 686 544 l 575 544 l 350 356 l 601 47 l 732 47 l 732 0 l 486 0 l 486 47 l 535 47 l 311 322 l 267 285 l 267 0 l 76 0 l 76 47 l 215 47 l 215 749 q 282 861 215 822 q 354 881 315 881 q 444 825 432 881 q 446 811 446 818 q 411 774 447 778 q 353 800 372 768 q 346 829 346 813 q 354 858 346 844 q 289 826 326 869 q 267 785 267 803 l 267 353 z "},"ƚ":{"ha":833,"x_min":128,"x_max":706,"o":"m 354 818 l 128 763 l 128 810 l 406 878 l 406 486 l 576 486 l 576 439 l 406 439 l 406 47 l 706 47 l 706 0 l 128 0 l 128 47 l 354 47 l 354 439 l 188 439 l 188 486 l 354 486 l 354 818 z "},"ƛ":{"ha":833,"x_min":161,"x_max":611,"o":"m 444 564 l 315 47 l 414 47 l 414 0 l 163 0 l 163 47 l 263 47 l 408 629 q 343 726 376 685 l 251 643 l 221 679 l 313 763 q 172 847 226 860 l 161 897 q 351 799 242 918 l 443 882 l 474 846 l 382 763 q 579 347 518 589 q 603 0 626 160 l 551 0 q 456 542 588 261 q 444 564 450 553 z "},"Ɯ":{"ha":833,"x_min":8,"x_max":842,"o":"m 407 75 q 285 -12 358 14 q 260 -18 269 -18 q 131 100 149 -18 q 126 182 126 129 l 126 733 l 8 733 l 8 781 l 179 781 l 179 182 q 194 68 179 96 q 258 33 213 33 q 399 131 311 33 l 399 182 l 399 733 l 281 733 l 281 781 l 450 781 l 451 183 l 451 182 q 454 92 451 106 q 531 33 467 33 q 664 125 585 33 q 671 132 667 128 l 671 733 l 553 733 l 553 781 l 842 781 l 842 733 l 721 733 l 721 47 l 842 47 l 842 0 l 671 0 l 671 71 q 574 -6 649 29 q 531 -18 546 -18 q 407 75 432 -18 z "},"Ɲ":{"ha":833,"x_min":-68,"x_max":821,"o":"m 129 733 l 129 -11 q 88 -99 129 -62 q 42 -122 68 -115 q -56 -92 -26 -139 q -65 -71 -62 -82 q -40 -26 -75 -39 q 25 -42 -1 -11 q 36 -65 32 -51 q 35 -94 39 -82 q 78 -43 78 -100 l 78 733 l 13 733 l 13 781 l 161 781 l 706 75 l 706 733 l 560 733 l 560 781 l 821 781 l 821 733 l 756 733 l 756 -10 l 704 -10 l 129 733 z "},"ƞ":{"ha":833,"x_min":31,"x_max":800,"o":"m 201 522 q 374 601 318 586 q 446 611 411 611 q 625 532 549 611 q 682 411 682 474 l 682 -219 l 800 -219 l 800 -267 l 511 -267 l 511 -219 l 632 -219 l 632 411 q 569 511 632 460 q 446 560 510 560 q 208 465 354 560 q 201 461 204 464 l 201 47 l 319 47 l 319 0 l 31 0 l 31 47 l 151 47 l 151 544 l 31 544 l 31 592 l 203 592 q 201 522 199 572 z "},"Ɵ":{"ha":833,"x_min":86,"x_max":747,"o":"m 229 419 l 601 419 l 601 372 l 229 372 l 229 419 m 417 783 q 657 660 560 783 q 747 390 747 546 q 640 101 747 218 q 417 -3 546 -3 q 176 121 274 -3 q 86 390 86 235 q 193 679 86 563 q 417 783 288 783 m 417 732 q 224 632 308 732 q 138 390 138 531 q 239 126 138 229 q 417 49 317 49 q 617 158 531 49 q 696 390 696 260 q 606 640 696 536 q 417 732 525 732 z "},"Ơ":{"ha":1092,"x_min":86,"x_max":965,"o":"m 949 663 q 851 551 928 589 q 807 538 829 542 l 789 560 q 844 601 822 568 q 847 647 861 628 q 815 721 808 671 q 869 782 824 771 q 894 783 881 785 q 963 729 950 781 q 949 663 971 692 m 417 783 q 657 660 560 783 q 747 390 747 546 q 640 101 747 218 q 417 -3 546 -3 q 176 121 274 -3 q 86 390 86 235 q 193 679 86 563 q 417 783 288 783 m 417 732 q 214 625 297 732 q 138 390 138 526 q 239 126 138 229 q 417 49 317 49 q 619 156 536 49 q 696 390 696 254 q 594 654 696 551 q 417 732 517 732 z "},"ơ":{"ha":1092,"x_min":104,"x_max":946,"o":"m 929 472 q 832 361 908 399 q 788 347 810 351 l 769 369 q 825 411 803 378 q 828 457 842 438 q 796 531 789 481 q 850 592 804 581 q 875 593 861 594 q 943 539 931 590 q 929 472 951 501 m 417 593 q 651 493 557 593 q 729 296 729 408 q 624 74 729 163 q 417 -1 535 -1 q 182 99 276 -1 q 104 296 104 183 q 210 518 104 429 q 417 593 299 593 m 417 542 q 215 451 294 542 q 156 296 156 383 q 249 107 156 181 q 417 50 321 50 q 624 143 549 50 q 678 296 678 208 q 576 492 678 419 q 417 542 507 542 z "},"Ƣ":{"ha":833,"x_min":47,"x_max":824,"o":"m 336 732 q 140 597 206 732 q 99 390 99 510 q 196 106 99 199 q 336 49 254 49 q 532 183 467 49 q 574 390 574 271 q 476 675 574 582 q 336 732 418 732 m 476 742 q 585 783 542 783 q 750 650 718 783 q 758 585 758 618 l 758 -140 l 824 -140 l 824 -187 l 642 -187 l 642 -140 l 708 -140 l 708 583 q 631 725 708 697 q 585 732 610 732 q 514 711 542 732 q 625 408 619 606 q 625 390 625 400 q 522 79 625 190 q 336 -3 447 -3 q 101 147 182 -3 q 47 390 47 250 q 150 701 47 590 q 336 783 225 783 q 476 742 413 783 z "},"ƣ":{"ha":833,"x_min":56,"x_max":849,"o":"m 347 593 q 501 551 433 593 q 610 593 571 593 q 775 460 743 593 q 783 393 783 426 l 783 -140 l 849 -140 l 849 -187 l 667 -187 l 667 -140 l 732 -140 l 732 393 q 650 536 732 511 q 610 542 632 542 q 542 522 568 542 q 640 296 640 435 q 539 67 640 153 q 349 -1 460 -1 q 117 108 201 -1 q 56 296 56 188 q 165 532 56 447 q 347 593 244 593 m 349 542 q 158 447 229 542 q 107 296 107 382 q 197 100 107 172 q 347 50 260 50 q 547 151 479 50 q 589 296 589 214 q 497 490 589 418 q 349 542 433 542 z "},"Ƥ":{"ha":833,"x_min":-10,"x_max":774,"o":"m 258 340 l 536 340 q 663 394 601 340 q 726 536 726 453 q 626 710 726 656 q 536 733 582 733 l 258 733 l 258 340 m 536 781 q 700 714 628 781 q 774 536 774 646 q 660 335 774 407 q 536 293 596 293 l 258 293 l 258 47 l 447 47 l 447 0 l 74 0 l 74 47 l 207 47 l 207 733 l 74 733 q 22 703 26 733 q 22 690 21 697 q 51 692 35 694 q 94 636 94 681 q 67 590 94 599 q 46 590 57 588 q -10 664 -7 604 q -6 697 -10 681 q 89 781 15 781 l 536 781 z "},"ƥ":{"ha":833,"x_min":54,"x_max":807,"o":"m 476 50 q 678 140 599 50 q 738 296 738 208 q 643 485 738 411 q 478 542 572 542 q 278 454 357 542 q 217 296 217 388 q 317 101 217 175 q 476 50 388 50 m 579 576 q 608 649 600 624 q 725 719 644 731 q 803 663 789 711 q 806 632 807 647 q 764 600 801 599 q 711 635 725 601 q 708 664 706 647 q 721 692 713 682 q 642 661 681 715 q 629 638 635 650 l 601 568 q 767 407 718 519 q 789 296 789 354 q 683 72 789 161 q 478 -1 596 -1 q 240 103 335 -1 q 217 132 228 117 l 217 -203 l 388 -203 l 388 -250 l 56 -250 l 56 -203 l 165 -203 l 165 544 l 54 544 l 54 592 l 217 592 l 217 460 q 426 589 293 568 q 476 593 451 593 q 579 576 525 593 z "},"Ʀ":{"ha":833,"x_min":8,"x_max":736,"o":"m 199 390 l 499 390 q 638 442 581 390 q 689 561 689 488 q 568 724 689 689 q 499 733 535 733 l 199 733 l 199 390 m 461 343 q 603 138 550 263 q 639 47 617 107 l 736 47 l 736 0 l 606 0 q 515 206 547 153 q 388 343 469 279 l 197 343 l 197 47 l 378 47 l 378 0 l 13 0 l 13 47 l 146 47 l 146 831 l 8 831 l 8 878 l 350 878 l 350 831 l 197 831 l 197 781 l 499 781 q 682 710 614 781 q 736 561 736 653 q 610 369 736 428 q 499 343 554 343 l 461 343 z "},"Ƨ":{"ha":833,"x_min":178,"x_max":667,"o":"m 200 792 l 247 792 q 260 743 257 775 q 271 738 261 731 q 276 742 274 739 q 417 792 344 792 q 610 725 536 792 q 665 600 665 674 q 542 422 665 479 q 390 371 518 411 q 244 283 275 335 q 229 221 229 256 q 315 90 229 136 q 425 64 365 64 q 588 153 524 64 q 601 174 596 163 q 619 214 619 214 l 667 214 q 636 131 644 182 q 635 119 635 124 q 647 58 635 96 q 667 0 667 0 l 619 0 q 599 63 607 31 q 583 72 594 83 q 425 13 513 13 q 233 86 307 13 q 178 221 178 142 q 296 388 178 335 q 444 438 319 399 q 594 528 563 475 q 614 600 614 558 q 525 719 614 679 q 417 740 476 740 q 264 661 331 740 q 232 611 243 636 q 196 610 228 608 q 183 608 188 610 q 217 713 217 644 q 200 792 217 746 z "},"ƨ":{"ha":833,"x_min":171,"x_max":661,"o":"m 193 600 l 240 600 q 254 563 250 586 q 264 560 256 554 q 269 563 258 556 q 411 600 342 600 q 614 540 542 600 q 658 451 658 503 q 533 306 658 349 q 372 265 511 297 q 231 193 256 239 q 222 156 222 176 q 321 57 222 86 q 419 44 364 44 q 585 118 524 44 q 594 131 590 124 q 614 161 614 161 l 661 161 q 629 94 642 139 q 628 83 628 88 q 642 29 628 60 q 661 -17 661 -17 l 614 -17 q 593 32 599 14 q 576 39 588 46 q 419 -7 506 -7 q 219 57 293 -7 q 171 156 171 99 q 290 292 171 250 q 446 331 311 299 q 596 408 569 360 q 607 451 607 428 q 493 542 607 519 q 411 549 456 549 q 250 479 319 549 q 225 446 235 463 l 178 446 q 210 532 210 475 q 193 600 210 567 z "},"Ʃ":{"ha":833,"x_min":18,"x_max":724,"o":"m 18 0 l 18 47 l 89 47 l 310 390 l 89 733 l 18 733 l 18 781 l 672 781 l 724 599 l 676 599 l 625 733 l 150 733 l 371 390 l 150 47 l 625 47 l 660 182 l 707 182 l 672 0 l 18 0 z "},"ƪ":{"ha":833,"x_min":189,"x_max":646,"o":"m 644 -174 q 578 -242 643 -231 q 553 -243 567 -243 q 435 -182 476 -243 q 414 -111 414 -150 l 414 724 q 317 679 376 679 q 208 740 244 679 q 189 807 189 771 q 250 915 189 879 q 317 935 281 935 q 451 858 417 935 q 465 792 465 829 l 465 -161 q 506 -214 465 -192 q 553 -221 533 -229 q 544 -192 544 -206 q 586 -137 544 -147 q 640 -154 625 -128 q 644 -174 644 -162 m 414 846 q 336 908 393 897 q 317 910 326 910 q 229 858 258 910 q 215 807 215 835 q 269 717 215 746 q 317 704 292 704 q 406 754 375 704 q 414 772 411 763 l 414 846 z "},"ƫ":{"ha":833,"x_min":74,"x_max":738,"o":"m 546 -89 q 476 -181 539 -179 q 439 -146 443 -182 q 465 -87 433 -107 q 494 -81 478 -81 q 524 -89 508 -81 q 526 -6 529 -64 q 439 -26 478 -26 q 250 51 331 -26 q 183 196 183 115 l 183 544 l 74 544 l 74 592 l 182 592 l 182 775 l 233 775 l 233 592 l 583 592 l 583 544 l 233 544 l 233 196 q 308 68 233 122 q 439 25 368 25 q 699 185 539 25 l 738 151 q 547 3 646 51 q 546 -89 547 -53 z "},"Ƭ":{"ha":833,"x_min":-15,"x_max":772,"o":"m 392 733 l 97 733 q 17 694 17 733 q 47 696 31 697 q 90 640 90 685 q 61 594 89 603 q 40 594 51 592 q -14 667 -12 608 q -10 701 -14 683 q 63 778 4 764 q 76 781 71 781 l 758 781 l 772 497 l 724 497 l 710 733 l 442 733 l 442 47 l 649 47 l 649 0 l 186 0 l 186 47 l 392 47 l 392 733 z "},"ƭ":{"ha":833,"x_min":74,"x_max":738,"o":"m 235 592 l 583 592 l 583 544 l 233 544 l 233 196 q 308 68 233 122 q 439 25 368 25 q 699 185 539 25 l 738 151 q 522 -8 633 36 q 439 -26 476 -26 q 250 51 331 -26 q 183 196 183 115 l 183 544 l 74 544 l 74 592 l 182 592 l 182 822 q 250 933 182 894 q 325 954 285 954 q 415 899 403 954 q 417 885 417 892 q 382 847 418 851 q 324 874 343 842 q 317 903 317 886 q 325 932 317 917 q 258 896 299 943 q 235 851 235 868 l 235 592 z "},"Ʈ":{"ha":833,"x_min":61,"x_max":775,"o":"m 442 733 l 442 -47 q 481 -97 442 -72 q 532 -110 511 -118 q 522 -81 522 -96 q 565 -26 522 -36 q 618 -43 603 -17 q 622 -62 622 -51 q 558 -129 622 -118 q 531 -132 546 -132 q 400 -54 433 -132 q 390 0 390 -29 l 390 733 l 122 733 l 108 497 l 61 497 l 76 781 l 758 781 l 775 497 l 726 497 l 710 733 l 442 733 z "},"Ư":{"ha":1092,"x_min":39,"x_max":1013,"o":"m 996 663 q 899 551 975 589 q 854 538 876 542 l 836 560 q 892 601 869 568 q 894 647 908 628 q 863 721 856 671 q 917 782 871 771 q 942 783 928 785 q 1010 729 997 781 q 996 663 1018 692 m 794 733 l 696 733 l 696 249 q 624 85 696 165 q 417 -10 538 -10 q 201 99 290 -10 q 138 249 138 176 l 138 733 l 39 733 l 39 781 l 322 781 l 322 733 l 183 733 l 183 249 q 244 125 183 194 q 415 38 322 38 q 600 133 524 38 q 649 249 649 194 l 649 733 l 511 733 l 511 781 l 794 781 l 794 733 z "},"ư":{"ha":1092,"x_min":31,"x_max":899,"o":"m 882 472 q 785 361 861 399 q 740 347 763 351 l 722 369 q 778 411 756 378 q 781 457 794 438 q 749 531 742 481 q 803 592 757 581 q 828 593 814 594 q 896 539 883 590 q 882 472 904 501 m 629 71 q 575 42 583 46 q 385 -18 464 -18 q 211 58 290 -18 q 149 182 149 119 l 149 544 l 31 544 l 31 592 l 200 592 l 199 183 l 199 182 q 261 82 199 133 q 385 33 321 33 q 622 128 476 33 q 629 132 626 129 l 629 544 l 511 544 l 511 592 l 681 592 l 681 49 l 800 49 l 800 0 l 629 0 l 629 71 z "},"Ʊ":{"ha":833,"x_min":67,"x_max":767,"o":"m 569 746 l 569 721 q 635 551 569 653 q 718 403 703 447 q 736 307 736 354 q 610 54 736 138 q 417 0 529 0 q 157 115 246 0 q 97 307 97 194 q 171 507 97 393 q 247 639 235 607 q 265 721 265 681 l 265 746 l 151 746 l 111 636 l 67 653 l 118 793 l 317 793 l 317 721 q 246 529 317 639 q 167 394 181 429 q 149 307 149 350 q 267 88 149 154 q 417 51 331 51 q 647 164 578 51 q 685 307 685 225 q 617 485 685 381 q 535 626 550 586 q 517 721 517 674 l 517 793 l 715 793 l 767 653 l 722 636 l 682 746 l 569 746 z "},"Ʋ":{"ha":833,"x_min":39,"x_max":794,"o":"m 794 733 l 696 733 l 696 249 q 624 85 696 165 q 417 -10 538 -10 q 201 99 290 -10 q 138 249 138 176 l 138 733 l 39 733 l 39 781 l 322 781 l 322 733 l 183 733 l 183 249 q 244 125 183 194 q 415 38 322 38 q 600 133 524 38 q 649 249 649 194 l 649 733 l 511 733 l 511 781 l 794 781 l 794 733 z "},"Ƴ":{"ha":833,"x_min":-10,"x_max":751,"o":"m 143 715 q 92 750 122 746 q 22 718 24 750 q 22 711 22 715 q 51 713 35 715 q 94 657 94 701 q 67 611 94 619 q 46 611 57 608 q -10 685 -7 625 q -6 718 -10 701 q 104 781 10 781 q 192 735 158 781 l 417 433 l 639 733 l 556 733 l 556 781 l 751 781 l 751 733 l 703 733 l 440 379 l 440 47 l 521 47 l 521 0 l 310 0 l 310 47 l 389 47 l 389 379 l 143 715 z "},"ƴ":{"ha":833,"x_min":-25,"x_max":819,"o":"m 417 58 l 657 544 l 554 544 l 554 592 l 819 592 l 819 544 l 714 544 l 353 -186 l 394 -186 l 394 -233 l 0 -233 l 0 -186 l 296 -186 l 388 0 l 128 526 q 86 558 119 546 q 76 561 81 561 q 7 529 8 561 q 7 522 7 526 q 36 524 19 526 q 79 468 79 513 q 51 422 79 431 q 31 422 42 419 q -25 496 -22 436 q -21 529 -25 513 q 89 592 -6 592 q 167 560 138 592 q 176 546 172 553 l 417 58 z "},"Ƶ":{"ha":833,"x_min":169,"x_max":664,"o":"m 600 47 l 615 264 l 664 264 l 644 0 l 174 0 l 174 28 l 383 397 l 231 397 l 231 444 l 410 444 l 572 733 l 228 733 l 218 521 l 169 521 l 182 781 l 642 781 l 642 749 l 469 444 l 614 444 l 614 397 l 442 397 l 244 47 l 600 47 z "},"ƶ":{"ha":833,"x_min":115,"x_max":718,"o":"m 693 544 l 508 354 l 642 354 l 642 307 l 463 307 l 210 47 l 671 47 l 671 97 l 718 97 l 718 0 l 138 0 l 138 47 l 390 307 l 246 307 l 246 354 l 436 354 l 621 544 l 163 544 l 163 494 l 115 494 l 115 592 l 693 592 l 693 544 z "},"Ʒ":{"ha":833,"x_min":186,"x_max":647,"o":"m 269 481 l 269 526 l 538 739 l 228 739 l 228 694 l 186 694 l 186 781 l 601 781 l 601 739 l 333 526 l 369 526 q 583 432 500 526 q 647 264 647 360 q 546 61 647 139 q 358 0 465 0 q 199 44 269 0 q 189 51 194 49 l 213 93 q 358 46 285 46 q 551 131 478 46 q 601 264 601 190 q 514 433 601 368 q 369 481 450 481 l 269 481 z "},"Ƹ":{"ha":833,"x_min":92,"x_max":553,"o":"m 469 481 l 368 481 q 185 396 254 481 q 136 264 136 338 q 225 96 136 161 q 379 46 293 46 q 525 93 456 46 l 550 51 q 379 0 463 1 q 154 97 239 0 q 92 264 92 169 q 190 464 92 386 q 368 526 267 526 l 406 526 l 138 739 l 138 781 l 553 781 l 553 694 l 511 694 l 511 739 l 201 739 l 469 526 l 469 481 z "},"ƹ":{"ha":833,"x_min":64,"x_max":582,"o":"m 489 251 l 375 251 q 172 160 250 251 q 115 8 115 94 q 213 -179 115 -106 q 388 -236 288 -236 q 551 -183 472 -236 l 579 -229 q 407 -287 497 -283 q 388 -287 397 -287 q 138 -182 233 -287 q 64 8 64 -101 q 171 231 64 143 q 375 303 258 303 q 417 304 376 303 l 115 544 l 115 592 l 582 592 l 582 494 l 535 494 l 535 544 l 188 544 l 489 304 l 489 251 z "},"ƺ":{"ha":833,"x_min":92,"x_max":592,"o":"m 290 304 l 332 304 q 535 244 463 304 q 581 154 581 207 q 456 8 581 51 q 294 -32 432 0 q 151 -104 176 -58 q 143 -142 143 -121 q 242 -240 143 -211 q 340 -253 286 -253 q 506 -179 444 -253 q 515 -167 511 -174 l 535 -136 l 582 -136 q 550 -201 561 -158 q 549 -214 549 -210 q 563 -268 549 -235 q 582 -314 582 -314 l 535 -314 q 514 -265 535 -314 q 497 -257 510 -250 q 340 -303 429 -303 q 140 -239 214 -303 q 92 -142 92 -197 q 211 -6 92 -47 q 369 33 231 1 q 518 111 492 63 q 529 154 529 131 q 414 246 529 224 q 332 253 376 253 l 218 253 l 218 304 l 519 544 l 172 544 l 172 494 l 125 494 l 125 592 l 592 592 l 592 544 l 290 304 z "},"ƻ":{"ha":833,"x_min":176,"x_max":733,"o":"m 338 450 l 535 450 l 546 460 l 547 461 q 606 596 606 519 q 521 713 606 676 q 425 731 479 731 q 238 586 274 731 q 228 503 228 547 l 176 503 l 176 568 q 432 781 243 775 q 615 708 551 781 q 657 596 657 663 q 607 450 657 511 l 733 450 l 733 403 l 558 403 q 429 315 539 388 l 325 250 q 246 111 246 192 l 246 47 l 610 47 l 610 171 l 657 171 l 657 0 l 194 0 l 194 111 q 313 304 194 218 q 446 388 322 311 q 471 403 460 396 l 338 403 l 338 450 z "},"Ƽ":{"ha":833,"x_min":121,"x_max":713,"o":"m 292 729 l 292 481 l 453 481 q 681 374 615 481 q 713 249 713 321 q 586 40 713 111 q 417 -1 510 -1 q 132 96 267 -1 q 121 104 126 100 l 151 146 q 383 51 265 60 q 417 50 400 50 q 617 129 546 50 q 661 249 661 181 q 536 418 661 383 q 453 429 499 429 l 240 429 l 240 729 l 131 729 l 131 781 l 713 781 l 713 729 l 292 729 z "},"ƽ":{"ha":833,"x_min":121,"x_max":713,"o":"m 292 540 l 292 378 l 453 378 q 710 235 682 378 q 713 197 713 217 q 586 32 713 88 q 417 -1 510 -1 q 132 96 267 -1 q 121 104 126 100 l 151 146 q 383 51 265 60 q 417 50 400 50 q 625 118 557 50 q 661 197 661 153 q 453 326 661 326 l 240 326 l 240 540 l 131 540 l 131 592 l 713 592 l 713 540 l 292 540 z "},"ƾ":{"ha":833,"x_min":171,"x_max":663,"o":"m 397 789 l 449 789 l 449 656 l 550 656 l 550 608 l 449 608 l 449 504 q 515 404 449 461 q 608 321 592 340 q 663 190 663 260 q 547 28 663 81 q 410 0 486 0 q 211 68 279 0 q 171 165 171 110 l 171 190 l 222 190 l 222 165 q 314 68 222 99 q 411 53 358 53 q 581 114 525 53 q 611 190 611 147 q 531 329 611 260 l 450 397 q 397 504 397 450 l 397 608 l 296 608 l 296 656 l 397 656 l 397 789 z "},"ƿ":{"ha":833,"x_min":54,"x_max":789,"o":"m 217 -157 l 217 -203 l 388 -203 l 388 -250 l 56 -250 l 56 -203 l 165 -203 l 165 544 l 54 544 l 54 592 l 217 592 l 217 460 q 426 589 293 568 q 476 593 451 593 q 713 490 619 593 q 789 296 789 407 q 613 49 789 154 q 388 -60 565 21 q 217 -157 265 -115 m 217 -106 q 417 3 257 -72 q 672 157 606 92 q 738 296 738 222 q 643 485 738 411 q 478 542 572 542 q 279 456 358 542 q 217 296 217 388 l 217 -106 z "},"ǀ":{"ha":833,"x_min":374,"x_max":425,"o":"m 425 781 l 425 -199 l 374 -199 l 374 781 l 425 781 z "},"ǁ":{"ha":833,"x_min":300,"x_max":518,"o":"m 351 781 l 351 -199 l 300 -199 l 300 781 l 351 781 m 518 781 l 518 -199 l 467 -199 l 467 781 l 518 781 z "},"ǂ":{"ha":833,"x_min":247,"x_max":563,"o":"m 425 781 l 425 483 l 563 483 l 563 436 l 425 436 l 425 351 l 563 351 l 563 304 l 425 304 l 425 -199 l 374 -199 l 374 304 l 247 304 l 247 351 l 374 351 l 374 436 l 247 436 l 247 483 l 374 483 l 374 781 l 425 781 z "},"ǃ":{"ha":833,"x_min":282,"x_max":461,"o":"m 413 847 l 399 217 l 347 217 l 333 847 l 413 847 m 282 53 q 332 122 282 101 q 372 131 350 131 q 453 86 428 131 q 461 53 461 71 q 413 -17 461 6 q 372 -25 393 -25 q 290 19 315 -25 q 282 53 282 35 z "},"Ǆ":{"ha":833,"x_min":35,"x_max":889,"o":"m 129 47 l 201 47 q 351 304 331 47 q 354 394 354 347 q 321 650 354 576 q 201 733 283 733 l 129 733 l 129 47 m 35 47 l 78 47 l 78 733 l 35 733 l 35 781 l 201 781 q 403 456 393 781 q 403 397 403 432 q 329 58 403 146 q 201 0 281 0 l 35 0 l 35 47 m 756 47 l 771 264 l 818 264 l 799 0 l 447 0 l 447 28 l 728 733 l 500 733 l 490 521 l 443 521 l 456 781 l 796 781 l 796 749 l 517 47 l 756 47 m 889 1082 l 651 843 l 610 843 l 369 1082 l 397 1110 l 635 925 l 861 1110 l 889 1082 z "},"ǅ":{"ha":833,"x_min":35,"x_max":881,"o":"m 793 544 l 540 47 l 771 47 l 771 97 l 818 97 l 818 0 l 468 0 l 468 47 l 721 544 l 493 544 l 493 494 l 446 494 l 446 592 l 793 592 l 793 544 m 881 950 l 643 710 l 603 710 l 363 950 l 390 978 l 626 793 l 853 978 l 881 950 m 129 47 l 201 47 q 351 304 331 47 q 354 394 354 347 q 321 650 354 576 q 201 733 283 733 l 129 733 l 129 47 m 35 47 l 78 47 l 78 733 l 35 733 l 35 781 l 201 781 q 403 456 393 781 q 403 397 403 432 q 329 58 403 146 q 201 0 281 0 l 35 0 l 35 47 z "},"ǆ":{"ha":833,"x_min":18,"x_max":881,"o":"m 793 544 l 535 47 l 771 47 l 771 97 l 818 97 l 818 0 l 468 0 l 468 47 l 726 544 l 493 544 l 493 494 l 446 494 l 446 592 l 793 592 l 793 544 m 881 950 l 643 710 l 603 710 l 363 950 l 390 978 l 626 793 l 853 978 l 881 950 m 188 594 q 297 525 253 594 q 304 514 300 521 l 304 821 l 135 785 l 135 832 l 356 878 l 356 296 l 356 47 l 403 47 l 403 0 l 304 0 l 304 78 q 188 -3 256 -3 q 53 114 101 -3 q 18 296 18 196 q 118 576 18 518 q 188 594 149 594 m 188 543 q 72 357 86 543 q 69 296 69 328 q 133 78 69 150 q 188 49 161 49 q 269 113 232 49 q 304 258 304 174 l 304 333 q 253 511 304 453 q 188 543 225 543 z "},"Ǉ":{"ha":833,"x_min":42,"x_max":883,"o":"m 546 315 q 551 147 546 182 q 640 50 569 50 q 736 199 736 50 l 736 733 l 628 733 l 628 781 l 883 781 l 883 733 l 788 733 l 788 199 q 744 35 788 79 q 642 -1 708 -1 q 494 199 494 -1 l 494 315 l 546 315 m 133 733 l 43 733 l 43 781 l 275 781 l 275 733 l 185 733 l 185 47 l 336 47 l 365 310 l 413 310 l 385 0 l 42 0 l 42 47 l 133 47 l 133 733 z "},"ǈ":{"ha":833,"x_min":42,"x_max":756,"o":"m 133 733 l 43 733 l 43 781 l 275 781 l 275 733 l 185 733 l 185 47 l 411 47 l 440 310 l 488 310 l 460 0 l 42 0 l 42 47 l 133 47 l 133 733 m 754 781 l 754 646 l 651 646 l 651 781 l 754 781 m 407 -186 q 543 -222 453 -218 q 558 -222 551 -222 q 674 -144 626 -222 q 704 -43 704 -93 l 704 544 l 522 544 l 522 592 l 756 592 l 756 -43 q 696 -203 756 -129 q 558 -274 638 -274 q 385 -232 447 -274 l 407 -186 z "},"ǉ":{"ha":833,"x_min":78,"x_max":768,"o":"m 767 781 l 767 646 l 664 646 l 664 781 l 767 781 m 419 -186 q 556 -222 465 -218 q 571 -222 564 -222 q 685 -144 638 -222 q 715 -43 715 -93 l 715 544 l 533 544 l 533 592 l 768 592 l 768 -43 q 708 -201 768 -126 q 571 -274 650 -274 q 397 -232 458 -274 l 419 -186 m 303 818 l 78 763 l 78 810 l 354 878 l 354 47 l 654 47 l 654 0 l 78 0 l 78 47 l 303 47 l 303 818 z "},"Ǌ":{"ha":833,"x_min":13,"x_max":883,"o":"m 392 139 l 392 733 l 283 733 l 283 781 l 507 781 l 507 733 l 443 733 l 443 -10 l 392 -10 l 131 697 l 128 697 l 128 47 l 240 47 l 240 0 l 13 0 l 13 47 l 76 47 l 76 733 l 13 733 l 13 781 l 160 781 l 392 139 m 546 315 q 551 147 546 182 q 640 50 569 50 q 736 199 736 50 l 736 733 l 628 733 l 628 781 l 883 781 l 883 733 l 788 733 l 788 199 q 744 35 788 79 q 642 -1 708 -1 q 494 199 494 -1 l 494 315 l 546 315 z "},"ǋ":{"ha":833,"x_min":13,"x_max":783,"o":"m 433 -186 q 569 -222 479 -218 q 585 -222 578 -222 q 700 -144 653 -222 q 731 -43 731 -93 l 731 544 l 549 544 l 549 592 l 783 592 l 783 -43 q 724 -201 783 -126 q 586 -274 665 -274 q 411 -232 472 -274 l 433 -186 m 782 781 l 782 646 l 678 646 l 678 781 l 782 781 m 392 139 l 392 733 l 283 733 l 283 781 l 507 781 l 507 733 l 443 733 l 443 -10 l 392 -10 l 131 697 l 128 697 l 128 47 l 240 47 l 240 0 l 13 0 l 13 47 l 76 47 l 76 733 l 13 733 l 13 781 l 160 781 l 392 139 z "},"ǌ":{"ha":833,"x_min":57,"x_max":783,"o":"m 433 -186 q 569 -222 479 -218 q 585 -222 578 -222 q 700 -144 653 -222 q 731 -43 731 -93 l 731 544 l 549 544 l 549 592 l 783 592 l 783 -43 q 724 -201 783 -126 q 586 -274 665 -274 q 411 -232 472 -274 l 433 -186 m 782 781 l 782 646 l 678 646 l 678 781 l 782 781 m 201 522 q 261 593 239 578 q 335 611 290 611 q 457 476 443 611 q 460 411 460 450 l 460 47 l 529 47 l 529 0 l 342 0 l 342 47 l 408 47 l 408 411 q 392 529 408 501 q 335 560 374 560 q 260 525 288 560 l 206 458 q 201 453 204 456 l 201 47 l 276 47 l 276 0 l 57 0 l 57 47 l 150 47 l 150 544 l 57 544 l 57 592 l 201 592 l 201 522 m 782 781 l 678 781 l 678 646 l 782 646 l 782 781 z "},"Ǎ":{"ha":833,"x_min":40,"x_max":793,"o":"m 594 1035 l 428 867 l 399 867 l 231 1035 l 250 1054 l 415 925 l 575 1054 l 594 1035 m 314 393 l 525 393 l 419 724 l 314 393 m 501 47 l 635 47 l 539 342 l 300 342 l 204 47 l 336 47 l 336 0 l 40 0 l 40 47 l 150 47 l 369 733 l 169 733 l 169 781 l 457 781 l 689 47 l 793 47 l 793 0 l 501 0 l 501 47 z "},"ǎ":{"ha":833,"x_min":57,"x_max":749,"o":"m 511 858 l 344 690 l 315 690 l 147 858 l 167 878 l 332 749 l 492 878 l 511 858 m 568 332 q 310 369 422 369 q 146 299 206 369 q 108 199 108 254 q 204 61 108 110 q 332 32 263 32 q 517 99 443 32 q 568 153 540 119 l 568 332 m 619 47 l 749 47 l 749 0 l 568 0 l 568 75 q 364 -18 482 -11 q 332 -19 349 -19 q 125 53 208 -19 q 57 199 57 113 q 161 378 57 314 q 310 421 228 421 q 568 385 426 421 l 568 408 q 489 514 568 468 q 329 556 418 556 q 107 496 242 556 l 88 543 q 169 575 88 543 q 329 607 268 607 q 554 533 465 607 q 619 408 619 479 l 619 47 z "},"Ǐ":{"ha":833,"x_min":124,"x_max":710,"o":"m 599 1035 l 432 867 l 403 867 l 235 1035 l 254 1054 l 419 925 l 579 1054 l 599 1035 m 396 733 l 125 733 l 125 781 l 710 781 l 710 733 l 446 733 l 446 47 l 708 47 l 708 0 l 124 0 l 124 47 l 396 47 l 396 733 z "},"ǐ":{"ha":833,"x_min":143,"x_max":693,"o":"m 608 844 l 442 676 l 413 676 l 244 844 l 264 864 l 429 735 l 589 864 l 608 844 m 401 544 l 143 544 l 143 592 l 453 592 l 453 47 l 693 47 l 693 0 l 143 0 l 143 47 l 401 47 l 401 544 z "},"Ǒ":{"ha":833,"x_min":86,"x_max":747,"o":"m 599 1035 l 432 867 l 403 867 l 235 1035 l 254 1054 l 419 925 l 579 1054 l 599 1035 m 417 783 q 657 660 560 783 q 747 390 747 546 q 640 101 747 218 q 417 -3 546 -3 q 176 121 274 -3 q 86 390 86 235 q 193 679 86 563 q 417 783 288 783 m 417 732 q 214 625 297 732 q 138 390 138 526 q 239 126 138 229 q 417 49 317 49 q 619 156 536 49 q 696 390 696 254 q 594 654 696 551 q 417 732 517 732 z "},"ǒ":{"ha":833,"x_min":104,"x_max":729,"o":"m 599 844 l 432 676 l 403 676 l 235 844 l 254 864 l 419 735 l 579 864 l 599 844 m 417 593 q 651 493 557 593 q 729 296 729 408 q 624 74 729 163 q 417 -1 535 -1 q 182 99 276 -1 q 104 296 104 183 q 210 518 104 429 q 417 593 299 593 m 417 542 q 215 451 294 542 q 156 296 156 383 q 249 107 156 181 q 417 50 321 50 q 624 143 549 50 q 678 296 678 208 q 576 492 678 419 q 417 542 507 542 z "},"Ǔ":{"ha":833,"x_min":39,"x_max":794,"o":"m 599 1035 l 432 867 l 403 867 l 235 1035 l 254 1054 l 419 925 l 579 1054 l 599 1035 m 794 733 l 696 733 l 696 249 q 624 85 696 165 q 417 -10 538 -10 q 201 99 290 -10 q 138 249 138 176 l 138 733 l 39 733 l 39 781 l 322 781 l 322 733 l 183 733 l 183 249 q 244 125 183 194 q 415 38 322 38 q 600 133 524 38 q 649 249 649 194 l 649 733 l 511 733 l 511 781 l 794 781 l 794 733 z "},"ǔ":{"ha":833,"x_min":31,"x_max":800,"o":"m 538 844 l 371 676 l 342 676 l 174 844 l 193 864 l 358 735 l 518 864 l 538 844 m 629 71 q 575 42 583 46 q 385 -18 464 -18 q 211 58 290 -18 q 149 182 149 119 l 149 544 l 31 544 l 31 592 l 200 592 l 199 183 l 199 182 q 261 82 199 133 q 385 33 321 33 q 622 128 476 33 q 629 132 626 129 l 629 544 l 511 544 l 511 592 l 681 592 l 681 49 l 800 49 l 800 0 l 629 0 l 629 71 z "},"Ǖ":{"ha":833,"x_min":39,"x_max":794,"o":"m 176 1103 l 658 1103 l 658 1056 l 176 1056 l 176 1103 m 254 919 q 289 969 254 957 q 307 972 297 972 q 357 938 344 972 q 360 919 360 929 q 325 869 360 882 q 307 867 317 867 q 257 901 269 867 q 254 919 254 910 m 472 919 q 507 969 472 957 q 525 972 515 972 q 575 938 563 972 q 578 919 578 929 q 543 869 578 882 q 525 867 535 867 q 475 901 488 867 q 472 919 472 910 m 794 733 l 696 733 l 696 249 q 624 85 696 165 q 417 -10 538 -10 q 201 99 290 -10 q 138 249 138 176 l 138 733 l 39 733 l 39 781 l 322 781 l 322 733 l 183 733 l 183 249 q 244 125 183 194 q 415 38 322 38 q 600 133 524 38 q 649 249 649 194 l 649 733 l 511 733 l 511 781 l 794 781 l 794 733 z "},"ǖ":{"ha":833,"x_min":31,"x_max":800,"o":"m 115 913 l 597 913 l 597 865 l 115 865 l 115 913 m 193 729 q 228 779 193 767 q 246 782 236 782 q 296 747 283 782 q 299 729 299 739 q 264 679 299 692 q 246 676 256 676 q 196 711 208 676 q 193 729 193 719 m 411 729 q 446 779 411 767 q 464 782 454 782 q 514 747 501 782 q 517 729 517 739 q 482 679 517 692 q 464 676 474 676 q 414 711 426 676 q 411 729 411 719 m 629 71 q 575 42 583 46 q 385 -18 464 -18 q 211 58 290 -18 q 149 182 149 119 l 149 544 l 31 544 l 31 592 l 200 592 l 199 183 l 199 182 q 261 82 199 133 q 385 33 321 33 q 622 128 476 33 q 629 132 626 129 l 629 544 l 511 544 l 511 592 l 681 592 l 681 49 l 800 49 l 800 0 l 629 0 l 629 71 z "},"Ǘ":{"ha":833,"x_min":39,"x_max":794,"o":"m 683 1299 l 449 1056 l 385 1056 l 554 1299 l 683 1299 m 254 919 q 289 969 254 957 q 307 972 297 972 q 357 938 344 972 q 360 919 360 929 q 325 869 360 882 q 307 867 317 867 q 257 901 269 867 q 254 919 254 910 m 472 919 q 507 969 472 957 q 525 972 515 972 q 575 938 563 972 q 578 919 578 929 q 543 869 578 882 q 525 867 535 867 q 475 901 488 867 q 472 919 472 910 m 794 733 l 696 733 l 696 249 q 624 85 696 165 q 417 -10 538 -10 q 201 99 290 -10 q 138 249 138 176 l 138 733 l 39 733 l 39 781 l 322 781 l 322 733 l 183 733 l 183 249 q 244 125 183 194 q 415 38 322 38 q 600 133 524 38 q 649 249 649 194 l 649 733 l 511 733 l 511 781 l 794 781 l 794 733 z "},"ǘ":{"ha":833,"x_min":31,"x_max":800,"o":"m 622 1108 l 388 865 l 324 865 l 493 1108 l 622 1108 m 193 729 q 228 779 193 767 q 246 782 236 782 q 296 747 283 782 q 299 729 299 739 q 264 679 299 692 q 246 676 256 676 q 196 711 208 676 q 193 729 193 719 m 411 729 q 446 779 411 767 q 464 782 454 782 q 514 747 501 782 q 517 729 517 739 q 482 679 517 692 q 464 676 474 676 q 414 711 426 676 q 411 729 411 719 m 629 71 q 575 42 583 46 q 385 -18 464 -18 q 211 58 290 -18 q 149 182 149 119 l 149 544 l 31 544 l 31 592 l 200 592 l 199 183 l 199 182 q 261 82 199 133 q 385 33 321 33 q 622 128 476 33 q 629 132 626 129 l 629 544 l 511 544 l 511 592 l 681 592 l 681 49 l 800 49 l 800 0 l 629 0 l 629 71 z "},"Ǚ":{"ha":833,"x_min":39,"x_max":794,"o":"m 599 1224 l 432 1056 l 403 1056 l 235 1224 l 254 1243 l 419 1114 l 579 1243 l 599 1224 m 254 919 q 289 969 254 957 q 307 972 297 972 q 357 938 344 972 q 360 919 360 929 q 325 869 360 882 q 307 867 317 867 q 257 901 269 867 q 254 919 254 910 m 472 919 q 507 969 472 957 q 525 972 515 972 q 575 938 563 972 q 578 919 578 929 q 543 869 578 882 q 525 867 535 867 q 475 901 488 867 q 472 919 472 910 m 794 733 l 696 733 l 696 249 q 624 85 696 165 q 417 -10 538 -10 q 201 99 290 -10 q 138 249 138 176 l 138 733 l 39 733 l 39 781 l 322 781 l 322 733 l 183 733 l 183 249 q 244 125 183 194 q 415 38 322 38 q 600 133 524 38 q 649 249 649 194 l 649 733 l 511 733 l 511 781 l 794 781 l 794 733 z "},"ǚ":{"ha":833,"x_min":31,"x_max":800,"o":"m 538 1033 l 371 865 l 342 865 l 174 1033 l 193 1053 l 358 924 l 518 1053 l 538 1033 m 193 729 q 228 779 193 767 q 246 782 236 782 q 296 747 283 782 q 299 729 299 739 q 264 679 299 692 q 246 676 256 676 q 196 711 208 676 q 193 729 193 719 m 411 729 q 446 779 411 767 q 464 782 454 782 q 514 747 501 782 q 517 729 517 739 q 482 679 517 692 q 464 676 474 676 q 414 711 426 676 q 411 729 411 719 m 629 71 q 575 42 583 46 q 385 -18 464 -18 q 211 58 290 -18 q 149 182 149 119 l 149 544 l 31 544 l 31 592 l 200 592 l 199 183 l 199 182 q 261 82 199 133 q 385 33 321 33 q 622 128 476 33 q 629 132 626 129 l 629 544 l 511 544 l 511 592 l 681 592 l 681 49 l 800 49 l 800 0 l 629 0 l 629 71 z "},"Ǜ":{"ha":833,"x_min":39,"x_max":794,"o":"m 151 1299 l 281 1299 l 450 1056 l 385 1056 l 151 1299 m 254 919 q 289 969 254 957 q 307 972 297 972 q 357 938 344 972 q 360 919 360 929 q 325 869 360 882 q 307 867 317 867 q 257 901 269 867 q 254 919 254 910 m 472 919 q 507 969 472 957 q 525 972 515 972 q 575 938 563 972 q 578 919 578 929 q 543 869 578 882 q 525 867 535 867 q 475 901 488 867 q 472 919 472 910 m 794 733 l 696 733 l 696 249 q 624 85 696 165 q 417 -10 538 -10 q 201 99 290 -10 q 138 249 138 176 l 138 733 l 39 733 l 39 781 l 322 781 l 322 733 l 183 733 l 183 249 q 244 125 183 194 q 415 38 322 38 q 600 133 524 38 q 649 249 649 194 l 649 733 l 511 733 l 511 781 l 794 781 l 794 733 z "},"ǜ":{"ha":833,"x_min":31,"x_max":800,"o":"m 89 1108 l 218 1108 l 388 865 l 322 865 l 89 1108 m 193 729 q 228 779 193 767 q 246 782 236 782 q 296 747 283 782 q 299 729 299 739 q 264 679 299 692 q 246 676 256 676 q 196 711 208 676 q 193 729 193 719 m 411 729 q 446 779 411 767 q 464 782 454 782 q 514 747 501 782 q 517 729 517 739 q 482 679 517 692 q 464 676 474 676 q 414 711 426 676 q 411 729 411 719 m 629 71 q 575 42 583 46 q 385 -18 464 -18 q 211 58 290 -18 q 149 182 149 119 l 149 544 l 31 544 l 31 592 l 200 592 l 199 183 l 199 182 q 261 82 199 133 q 385 33 321 33 q 622 128 476 33 q 629 132 626 129 l 629 544 l 511 544 l 511 592 l 681 592 l 681 49 l 800 49 l 800 0 l 629 0 l 629 71 z "},"ǝ":{"ha":833,"x_min":111,"x_max":735,"o":"m 167 247 q 288 83 189 140 q 422 49 350 49 q 625 140 547 49 q 678 247 665 188 l 167 247 m 111 294 l 683 294 q 589 479 683 406 q 415 539 514 539 q 204 472 306 539 q 188 461 194 467 l 154 501 q 372 588 240 574 q 415 590 394 590 q 653 492 556 590 q 735 294 735 407 q 629 72 735 161 q 422 -3 540 -3 q 186 99 279 -3 q 111 294 111 182 z "},"Ǟ":{"ha":833,"x_min":40,"x_max":793,"o":"m 181 1103 l 663 1103 l 663 1056 l 181 1056 l 181 1103 m 256 919 q 290 969 256 957 q 308 972 299 972 q 358 938 346 972 q 361 919 361 929 q 326 869 361 882 q 308 867 318 867 q 258 901 271 867 q 256 919 256 910 m 474 919 q 508 969 474 957 q 526 972 517 972 q 576 938 564 972 q 579 919 579 929 q 544 869 579 882 q 526 867 536 867 q 476 901 489 867 q 474 919 474 910 m 314 393 l 525 393 l 419 724 l 314 393 m 501 47 l 635 47 l 539 342 l 300 342 l 204 47 l 336 47 l 336 0 l 40 0 l 40 47 l 150 47 l 369 733 l 169 733 l 169 781 l 457 781 l 689 47 l 793 47 l 793 0 l 501 0 l 501 47 z "},"ǟ":{"ha":833,"x_min":57,"x_max":749,"o":"m 88 926 l 569 926 l 569 879 l 88 879 l 88 926 m 167 743 q 201 793 167 781 q 219 796 210 796 q 269 761 257 796 q 272 743 272 753 q 238 693 272 706 q 219 690 229 690 q 169 725 182 690 q 167 743 167 733 m 385 743 q 419 793 385 781 q 438 796 428 796 q 488 761 475 796 q 490 743 490 753 q 456 693 490 706 q 438 690 447 690 q 388 725 400 690 q 385 743 385 733 m 568 332 q 310 369 422 369 q 146 299 206 369 q 108 199 108 254 q 204 61 108 110 q 332 32 263 32 q 517 99 443 32 q 568 153 540 119 l 568 332 m 619 47 l 749 47 l 749 0 l 568 0 l 568 75 q 364 -18 482 -11 q 332 -19 349 -19 q 125 53 208 -19 q 57 199 57 113 q 161 378 57 314 q 310 421 228 421 q 568 385 426 421 l 568 408 q 489 514 568 468 q 329 556 418 556 q 107 496 242 556 l 88 543 q 169 575 88 543 q 329 607 268 607 q 554 533 465 607 q 619 408 619 479 l 619 47 z "},"Ǡ":{"ha":833,"x_min":40,"x_max":793,"o":"m 176 1129 l 658 1129 l 658 1082 l 176 1082 l 176 1129 m 468 1001 l 468 867 l 365 867 l 365 1001 l 468 1001 m 314 393 l 525 393 l 419 724 l 314 393 m 501 47 l 635 47 l 539 342 l 300 342 l 204 47 l 336 47 l 336 0 l 40 0 l 40 47 l 150 47 l 369 733 l 169 733 l 169 781 l 457 781 l 689 47 l 793 47 l 793 0 l 501 0 l 501 47 z "},"ǡ":{"ha":833,"x_min":57,"x_max":749,"o":"m 103 940 l 585 940 l 585 893 l 103 893 l 103 940 m 381 825 l 381 690 l 278 690 l 278 825 l 381 825 m 568 332 q 310 369 422 369 q 146 299 206 369 q 108 199 108 254 q 204 61 108 110 q 332 32 263 32 q 517 99 443 32 q 568 153 540 119 l 568 332 m 619 47 l 749 47 l 749 0 l 568 0 l 568 75 q 364 -18 482 -11 q 332 -19 349 -19 q 125 53 208 -19 q 57 199 57 113 q 161 378 57 314 q 310 421 228 421 q 568 385 426 421 l 568 408 q 489 514 568 468 q 329 556 418 556 q 107 496 242 556 l 88 543 q 169 575 88 543 q 329 607 268 607 q 554 533 465 607 q 619 408 619 479 l 619 47 z "},"Ǣ":{"ha":833,"x_min":33,"x_max":801,"o":"m 232 914 l 714 914 l 714 867 l 232 867 l 232 914 m 433 393 l 433 724 l 318 393 l 433 393 m 675 558 l 675 360 l 628 360 l 628 446 l 485 446 l 485 47 l 738 47 l 754 168 l 801 168 l 785 0 l 433 0 l 433 342 l 300 342 l 197 47 l 329 47 l 329 0 l 33 0 l 33 47 l 143 47 l 383 733 l 163 733 l 163 781 l 785 781 l 797 621 l 750 621 l 738 733 l 485 733 l 485 493 l 628 493 l 628 558 l 675 558 z "},"ǣ":{"ha":833,"x_min":26,"x_max":807,"o":"m 175 738 l 657 738 l 657 690 l 175 690 l 175 738 m 753 343 q 700 508 743 468 q 601 542 665 542 q 449 376 471 542 q 446 343 447 361 l 753 343 m 394 332 l 304 361 q 222 369 265 369 q 99 272 131 369 q 88 199 88 238 q 150 64 88 113 q 243 32 189 32 q 351 92 304 32 q 394 153 364 108 l 394 332 m 431 110 q 356 18 376 36 q 243 -19 311 -19 q 54 79 110 -19 q 26 199 26 129 q 131 401 26 350 q 222 421 171 421 q 363 394 282 421 q 394 385 381 389 l 394 408 q 240 556 394 556 q 94 508 171 556 q 76 497 88 504 l 57 544 q 179 597 93 575 q 240 607 215 607 q 432 492 392 607 q 601 593 483 593 q 797 422 763 593 q 807 296 807 369 l 446 296 q 563 60 446 97 q 615 51 586 51 q 733 107 685 51 q 757 135 715 86 l 789 96 q 632 1 717 8 q 615 0 624 0 q 431 110 483 0 z "},"Ǥ":{"ha":833,"x_min":111,"x_max":833,"o":"m 442 783 q 613 729 554 783 q 619 722 617 726 q 636 722 633 711 q 653 779 640 760 l 700 779 q 682 683 682 729 q 708 592 682 658 l 660 592 q 539 713 636 672 q 442 732 490 732 q 239 625 322 732 q 163 390 163 526 q 260 122 163 222 q 426 49 332 49 q 624 165 554 49 q 651 225 640 193 l 517 225 l 517 272 l 664 272 q 674 344 671 304 l 521 344 l 521 392 l 722 392 l 722 344 q 714 272 721 308 l 833 272 l 833 225 l 704 225 q 533 18 658 69 q 426 -3 483 -3 q 188 129 279 -3 q 111 390 111 239 q 218 679 111 563 q 442 783 313 783 z "},"ǥ":{"ha":833,"x_min":61,"x_max":799,"o":"m 374 542 q 169 450 249 542 q 113 296 113 382 q 207 107 113 181 q 372 50 278 50 q 576 142 497 50 q 633 296 633 210 q 539 485 633 411 q 374 542 468 542 m 799 592 l 799 544 l 685 544 l 685 -43 q 663 -119 685 -79 l 757 -169 l 735 -211 l 633 -157 q 436 -267 558 -240 q 369 -274 401 -274 q 101 -193 239 -274 l 124 -147 q 299 -214 188 -192 q 368 -222 338 -222 q 557 -154 464 -222 q 585 -132 572 -143 l 489 -81 l 511 -39 l 617 -94 q 633 -43 633 -65 l 633 133 q 435 4 561 29 q 374 -1 404 -1 q 138 101 231 -1 q 61 296 61 185 q 167 519 61 431 q 372 593 254 593 q 608 490 514 593 q 633 458 622 475 l 633 592 l 799 592 z "},"Ǧ":{"ha":833,"x_min":111,"x_max":722,"o":"m 624 1035 l 457 867 l 428 867 l 260 1035 l 279 1054 l 444 925 l 604 1054 l 624 1035 m 442 783 q 613 729 554 783 q 619 722 617 726 q 636 722 633 711 q 653 781 640 761 l 700 781 q 682 683 682 731 q 708 592 682 658 l 660 592 q 539 713 636 672 q 442 732 490 732 q 239 625 322 732 q 163 390 163 526 q 260 122 163 222 q 426 49 332 49 q 628 171 557 49 q 674 344 669 246 l 521 344 l 521 392 l 722 392 l 722 344 q 610 67 715 163 q 426 -3 535 -3 q 188 129 279 -3 q 111 390 111 239 q 218 679 111 563 q 442 783 313 783 z "},"ǧ":{"ha":833,"x_min":61,"x_max":799,"o":"m 554 844 l 388 676 l 358 676 l 190 844 l 210 864 l 375 735 l 535 864 l 554 844 m 374 542 q 169 450 249 542 q 113 296 113 382 q 207 107 113 181 q 372 50 278 50 q 576 142 497 50 q 633 296 633 210 q 539 485 633 411 q 374 542 468 542 m 799 592 l 799 544 l 685 544 l 685 -43 q 581 -204 685 -131 q 369 -274 481 -274 q 101 -193 239 -274 l 124 -147 q 299 -214 188 -192 q 368 -222 338 -222 q 556 -156 463 -222 q 633 -43 633 -99 l 633 133 q 435 4 561 29 q 374 -1 404 -1 q 138 101 231 -1 q 61 296 61 185 q 167 519 61 431 q 372 593 254 593 q 608 490 514 593 q 633 458 622 475 l 633 592 l 799 592 z "},"Ǩ":{"ha":833,"x_min":44,"x_max":789,"o":"m 567 1035 l 400 867 l 371 867 l 203 1035 l 222 1054 l 388 925 l 547 1054 l 567 1035 m 436 781 l 726 781 l 726 733 l 558 733 q 282 401 433 544 q 513 228 413 365 q 625 47 561 164 l 789 47 l 789 0 l 596 0 q 397 282 481 208 q 236 360 328 343 q 208 338 219 346 l 208 47 l 335 47 l 335 0 l 44 0 l 44 47 l 158 47 l 158 733 l 44 733 l 44 781 l 335 781 l 335 733 l 208 733 l 208 404 q 494 733 357 533 l 436 733 l 436 781 z "},"ǩ":{"ha":833,"x_min":76,"x_max":732,"o":"m 449 1129 l 282 961 l 253 961 l 85 1129 l 104 1149 l 269 1019 l 429 1149 l 449 1129 m 486 47 l 535 47 l 311 322 l 267 285 l 267 0 l 76 0 l 76 47 l 215 47 l 215 813 l 76 763 l 76 810 l 267 878 l 267 353 l 496 544 l 450 544 l 450 592 l 686 592 l 686 544 l 575 544 l 350 356 l 601 47 l 732 47 l 732 0 l 486 0 l 486 47 z "},"Ǫ":{"ha":833,"x_min":86,"x_max":747,"o":"m 388 6 l 446 6 q 379 -62 393 -3 q 376 -106 374 -83 q 467 -168 383 -154 q 585 -119 540 -181 l 613 -154 q 474 -231 564 -232 q 344 -172 388 -229 q 321 -106 321 -143 q 388 6 321 -31 m 417 783 q 657 660 560 783 q 747 390 747 546 q 640 101 747 218 q 417 -3 546 -3 q 176 121 274 -3 q 86 390 86 235 q 193 679 86 563 q 417 783 288 783 m 417 732 q 214 625 297 732 q 138 390 138 526 q 239 126 138 229 q 417 49 317 49 q 619 156 536 49 q 696 390 696 254 q 594 654 696 551 q 417 732 517 732 z "},"ǫ":{"ha":833,"x_min":104,"x_max":729,"o":"m 388 7 l 446 7 q 379 -61 393 -1 q 376 -104 374 -82 q 467 -167 383 -153 q 585 -118 540 -179 l 613 -153 q 474 -229 564 -231 q 344 -171 388 -228 q 321 -104 321 -142 q 388 7 321 -29 m 417 593 q 651 493 557 593 q 729 296 729 408 q 624 74 729 163 q 417 -1 535 -1 q 182 99 276 -1 q 104 296 104 183 q 210 518 104 429 q 417 593 299 593 m 417 542 q 215 451 294 542 q 156 296 156 383 q 249 107 156 181 q 417 50 321 50 q 624 143 549 50 q 678 296 678 208 q 576 492 678 419 q 417 542 507 542 z "},"Ǭ":{"ha":833,"x_min":86,"x_max":747,"o":"m 176 914 l 658 914 l 658 867 l 176 867 l 176 914 m 388 6 l 446 6 q 379 -62 393 -3 q 376 -106 374 -83 q 467 -168 383 -154 q 585 -119 540 -181 l 613 -154 q 474 -231 564 -232 q 344 -172 388 -229 q 321 -106 321 -143 q 388 6 321 -31 m 417 783 q 657 660 560 783 q 747 390 747 546 q 640 101 747 218 q 417 -3 546 -3 q 176 121 274 -3 q 86 390 86 235 q 193 679 86 563 q 417 783 288 783 m 417 732 q 214 625 297 732 q 138 390 138 526 q 239 126 138 229 q 417 49 317 49 q 619 156 536 49 q 696 390 696 254 q 594 654 696 551 q 417 732 517 732 z "},"ǭ":{"ha":833,"x_min":104,"x_max":729,"o":"m 176 724 l 658 724 l 658 676 l 176 676 l 176 724 m 388 7 l 446 7 q 379 -61 393 -1 q 376 -104 374 -82 q 467 -167 383 -153 q 585 -118 540 -179 l 613 -153 q 474 -229 564 -231 q 344 -171 388 -228 q 321 -104 321 -142 q 388 7 321 -29 m 417 593 q 651 493 557 593 q 729 296 729 408 q 624 74 729 163 q 417 -1 535 -1 q 182 99 276 -1 q 104 296 104 183 q 210 518 104 429 q 417 593 299 593 m 417 542 q 215 451 294 542 q 156 296 156 383 q 249 107 156 181 q 417 50 321 50 q 624 143 549 50 q 678 296 678 208 q 576 492 678 419 q 417 542 507 542 z "},"Ǯ":{"ha":833,"x_min":186,"x_max":647,"o":"m 575 1035 l 408 867 l 379 867 l 211 1035 l 231 1054 l 396 925 l 556 1054 l 575 1035 m 269 481 l 269 526 l 538 739 l 228 739 l 228 694 l 186 694 l 186 781 l 601 781 l 601 739 l 333 526 l 369 526 q 583 432 500 526 q 647 264 647 360 q 546 61 647 139 q 358 0 465 0 q 199 44 269 0 q 189 51 194 49 l 213 93 q 358 46 285 46 q 551 131 478 46 q 601 264 601 190 q 514 433 601 368 q 369 481 450 481 l 269 481 z "},"ǯ":{"ha":833,"x_min":124,"x_max":642,"o":"m 539 844 l 372 676 l 343 676 l 175 844 l 194 864 l 360 735 l 519 864 l 539 844 m 217 251 l 217 304 l 518 544 l 171 544 l 171 494 l 124 494 l 124 592 l 590 592 l 590 544 l 289 304 l 329 303 l 331 303 q 560 206 465 303 q 642 8 642 121 q 532 -215 642 -128 q 318 -287 442 -287 q 143 -240 221 -287 q 126 -229 135 -235 l 154 -183 q 318 -236 233 -236 q 531 -144 449 -236 q 590 8 590 -78 q 496 196 590 124 q 331 251 425 251 l 217 251 z "},"ǰ":{"ha":833,"x_min":83,"x_max":610,"o":"m 610 843 l 443 675 l 414 675 l 246 843 l 265 863 l 431 733 l 590 863 l 610 843 m 106 -186 q 242 -222 151 -218 q 257 -222 250 -222 q 372 -144 325 -222 q 403 -43 403 -93 l 403 544 l 221 544 l 221 592 l 454 592 l 454 -43 q 394 -203 454 -129 q 257 -274 336 -274 q 83 -232 144 -274 l 106 -186 z "},"Ǳ":{"ha":833,"x_min":35,"x_max":818,"o":"m 129 47 l 201 47 q 351 304 331 47 q 354 394 354 347 q 321 650 354 576 q 201 733 283 733 l 129 733 l 129 47 m 35 47 l 78 47 l 78 733 l 35 733 l 35 781 l 201 781 q 403 456 393 781 q 403 397 403 432 q 329 58 403 146 q 201 0 281 0 l 35 0 l 35 47 m 756 47 l 771 264 l 818 264 l 799 0 l 447 0 l 447 28 l 728 733 l 500 733 l 490 521 l 443 521 l 456 781 l 796 781 l 796 749 l 517 47 l 756 47 z "},"ǲ":{"ha":833,"x_min":35,"x_max":818,"o":"m 793 544 l 540 47 l 771 47 l 771 97 l 818 97 l 818 0 l 468 0 l 468 47 l 721 544 l 493 544 l 493 494 l 446 494 l 446 592 l 793 592 l 793 544 m 129 47 l 201 47 q 351 304 331 47 q 354 394 354 347 q 321 650 354 576 q 201 733 283 733 l 129 733 l 129 47 m 35 47 l 78 47 l 78 733 l 35 733 l 35 781 l 201 781 q 403 456 393 781 q 403 397 403 432 q 329 58 403 146 q 201 0 281 0 l 35 0 l 35 47 z "},"ǳ":{"ha":833,"x_min":18,"x_max":818,"o":"m 188 594 q 297 525 253 594 q 304 514 300 521 l 304 821 l 135 785 l 135 832 l 356 878 l 356 296 l 356 47 l 403 47 l 403 0 l 304 0 l 304 78 q 188 -3 256 -3 q 53 114 101 -3 q 18 296 18 196 q 118 576 18 518 q 188 594 149 594 m 188 543 q 72 357 86 543 q 69 296 69 328 q 133 78 69 150 q 188 49 161 49 q 269 113 232 49 q 304 258 304 174 l 304 333 q 253 511 304 453 q 188 543 225 543 m 793 544 l 535 47 l 771 47 l 771 97 l 818 97 l 818 0 l 468 0 l 468 47 l 726 544 l 493 544 l 493 494 l 446 494 l 446 592 l 793 592 l 793 544 z "},"Ǵ":{"ha":833,"x_min":111,"x_max":722,"o":"m 708 1110 l 474 867 l 410 867 l 579 1110 l 708 1110 m 442 783 q 613 729 554 783 q 619 722 617 726 q 636 722 633 711 q 653 781 640 761 l 700 781 q 682 683 682 731 q 708 592 682 658 l 660 592 q 539 713 636 672 q 442 732 490 732 q 239 625 322 732 q 163 390 163 526 q 260 122 163 222 q 426 49 332 49 q 628 171 557 49 q 674 344 669 246 l 521 344 l 521 392 l 722 392 l 722 344 q 610 67 715 163 q 426 -3 535 -3 q 188 129 279 -3 q 111 390 111 239 q 218 679 111 563 q 442 783 313 783 z "},"ǵ":{"ha":833,"x_min":61,"x_max":799,"o":"m 639 919 l 404 676 l 340 676 l 510 919 l 639 919 m 374 542 q 169 450 249 542 q 113 296 113 382 q 207 107 113 181 q 372 50 278 50 q 576 142 497 50 q 633 296 633 210 q 539 485 633 411 q 374 542 468 542 m 799 592 l 799 544 l 685 544 l 685 -43 q 581 -204 685 -131 q 369 -274 481 -274 q 101 -193 239 -274 l 124 -147 q 299 -214 188 -192 q 368 -222 338 -222 q 556 -156 463 -222 q 633 -43 633 -99 l 633 133 q 435 4 561 29 q 374 -1 404 -1 q 138 101 231 -1 q 61 296 61 185 q 167 519 61 431 q 372 593 254 593 q 608 490 514 593 q 633 458 622 475 l 633 592 l 799 592 z "},"Ƕ":{"ha":833,"x_min":44,"x_max":796,"o":"m 474 458 l 208 458 l 208 47 l 304 47 l 304 0 l 44 0 l 44 47 l 157 47 l 157 733 l 44 733 l 44 781 l 304 781 l 304 733 l 208 733 l 208 508 l 474 508 l 474 733 l 375 733 l 375 781 l 635 781 l 635 733 l 525 733 l 525 199 q 581 63 525 97 q 626 50 600 50 q 735 147 711 50 q 743 217 743 178 l 743 561 l 625 561 l 625 608 l 796 608 l 796 199 q 706 21 796 74 q 628 -1 668 -1 q 483 121 515 -1 q 474 199 474 157 l 474 458 z "},"Ƿ":{"ha":833,"x_min":54,"x_max":781,"o":"m 729 296 q 638 486 729 414 q 478 542 569 542 q 289 446 371 542 q 217 258 217 360 l 217 -137 q 611 100 497 0 q 729 296 729 203 m 165 -193 l 165 544 l 54 544 l 54 592 l 217 592 l 217 433 q 363 565 265 519 q 476 593 421 593 q 713 488 624 593 q 781 296 781 407 q 389 -104 781 107 q 217 -190 333 -133 l 217 -224 l 56 -289 l 56 -242 l 165 -193 z "},"Ǹ":{"ha":833,"x_min":13,"x_max":821,"o":"m 150 1110 l 279 1110 l 449 867 l 383 867 l 150 1110 m 706 75 l 706 733 l 560 733 l 560 781 l 821 781 l 821 733 l 757 733 l 757 -10 l 706 -10 l 131 733 l 128 733 l 128 47 l 272 47 l 272 0 l 13 0 l 13 47 l 78 47 l 78 733 l 13 733 l 13 781 l 161 781 q 706 75 161 779 z "},"ǹ":{"ha":833,"x_min":31,"x_max":800,"o":"m 150 938 l 279 938 l 449 694 l 383 694 l 150 938 m 201 522 q 256 551 247 547 q 446 611 367 611 q 619 535 540 611 q 682 411 682 474 l 682 47 l 800 47 l 800 0 l 511 0 l 511 47 l 632 47 l 632 411 q 569 511 632 460 q 446 560 510 560 q 208 465 354 560 q 201 461 204 464 l 201 47 l 319 47 l 319 0 l 31 0 l 31 47 l 151 47 l 151 544 l 31 544 l 31 592 l 203 592 q 201 522 199 572 z "},"Ǻ":{"ha":833,"x_min":40,"x_max":793,"o":"m 658 1354 l 424 1111 l 360 1111 l 529 1354 l 658 1354 m 417 1092 q 524 1032 486 1092 q 543 965 543 1001 q 483 858 543 896 q 417 839 453 839 q 310 899 347 839 q 290 965 290 929 q 350 1072 290 1035 q 417 1092 381 1092 m 417 1044 q 346 1001 369 1044 q 338 965 338 985 q 381 894 338 918 q 417 886 397 886 q 488 929 464 886 q 496 965 496 946 q 453 1036 496 1013 q 417 1044 436 1044 m 314 393 l 525 393 l 419 724 l 314 393 m 501 47 l 635 47 l 539 342 l 300 342 l 204 47 l 336 47 l 336 0 l 40 0 l 40 47 l 150 47 l 369 733 l 169 733 l 169 781 l 457 781 l 689 47 l 793 47 l 793 0 l 501 0 l 501 47 z "},"ǻ":{"ha":833,"x_min":57,"x_max":749,"o":"m 596 1269 l 361 1026 l 297 1026 l 467 1269 l 596 1269 m 329 943 q 436 883 399 943 q 456 817 456 853 q 396 710 456 747 q 329 690 365 690 q 222 750 260 690 q 203 817 203 781 q 263 924 203 886 q 329 943 293 943 m 329 896 q 258 853 282 896 q 250 817 250 836 q 293 746 250 769 q 329 738 310 738 q 400 781 376 738 q 408 817 408 797 q 365 888 408 864 q 329 896 349 896 m 568 332 q 310 369 422 369 q 146 299 206 369 q 108 199 108 254 q 204 61 108 110 q 332 32 263 32 q 517 99 443 32 q 568 153 540 119 l 568 332 m 619 47 l 749 47 l 749 0 l 568 0 l 568 75 q 364 -18 482 -11 q 332 -19 349 -19 q 125 53 208 -19 q 57 199 57 113 q 161 378 57 314 q 310 421 228 421 q 568 385 426 421 l 568 408 q 489 514 568 468 q 329 556 418 556 q 107 496 242 556 l 88 543 q 169 575 88 543 q 329 607 268 607 q 554 533 465 607 q 619 408 619 479 l 619 47 z "},"Ǽ":{"ha":833,"x_min":33,"x_max":801,"o":"m 740 1110 l 506 867 l 442 867 l 611 1110 l 740 1110 m 433 393 l 433 724 l 318 393 l 433 393 m 675 558 l 675 360 l 628 360 l 628 446 l 485 446 l 485 47 l 738 47 l 754 168 l 801 168 l 785 0 l 433 0 l 433 342 l 300 342 l 197 47 l 329 47 l 329 0 l 33 0 l 33 47 l 143 47 l 383 733 l 163 733 l 163 781 l 785 781 l 797 621 l 750 621 l 738 733 l 485 733 l 485 493 l 628 493 l 628 558 l 675 558 z "},"ǽ":{"ha":833,"x_min":26,"x_max":807,"o":"m 507 933 l 272 690 l 208 690 l 378 933 l 507 933 m 753 343 q 700 508 743 468 q 601 542 665 542 q 449 376 471 542 q 446 343 447 361 l 753 343 m 394 332 l 304 361 q 222 369 265 369 q 99 272 131 369 q 88 199 88 238 q 150 64 88 113 q 243 32 189 32 q 351 92 304 32 q 394 153 364 108 l 394 332 m 431 110 q 356 18 376 36 q 243 -19 311 -19 q 54 79 110 -19 q 26 199 26 129 q 131 401 26 350 q 222 421 171 421 q 363 394 282 421 q 394 385 381 389 l 394 408 q 240 556 394 556 q 94 508 171 556 q 76 497 88 504 l 57 544 q 179 597 93 575 q 240 607 215 607 q 432 492 392 607 q 601 593 483 593 q 797 422 763 593 q 807 296 807 369 l 446 296 q 563 60 446 97 q 615 51 586 51 q 733 107 685 51 q 757 135 715 86 l 789 96 q 632 1 717 8 q 615 0 624 0 q 431 110 483 0 z "},"Ǿ":{"ha":833,"x_min":86,"x_max":747,"o":"m 635 1151 l 400 908 l 336 908 l 506 1151 l 635 1151 m 417 783 q 607 711 522 783 l 685 825 l 724 797 l 642 679 q 747 390 747 560 q 642 101 747 218 q 417 -3 547 -3 q 221 74 308 -3 l 143 -39 l 104 -11 l 188 108 q 86 390 86 225 q 192 679 86 563 q 417 783 286 783 m 250 117 q 417 49 325 49 q 619 156 536 49 q 696 390 696 254 q 611 635 696 533 l 250 117 m 417 732 q 214 625 297 732 q 138 390 138 526 q 218 151 138 250 l 576 669 q 417 732 503 732 z "},"ǿ":{"ha":833,"x_min":104,"x_max":729,"o":"m 676 936 l 442 693 l 378 693 l 547 936 l 676 936 m 417 593 q 594 539 514 593 l 676 632 l 713 601 l 632 510 q 729 296 729 422 q 624 74 729 163 q 417 -1 535 -1 q 233 56 317 -1 l 150 -40 l 114 -10 l 197 85 q 104 296 104 174 q 210 518 104 429 q 417 593 299 593 m 268 94 q 417 50 335 50 q 621 142 542 50 q 678 296 678 210 q 599 471 678 399 l 268 94 m 417 542 q 213 450 292 542 q 156 296 156 382 q 231 124 156 196 l 561 500 q 417 542 496 542 z "},"Ȁ":{"ha":833,"x_min":40,"x_max":793,"o":"m 333 1074 l 444 1074 l 588 867 l 533 867 l 333 1074 m 82 1074 l 192 1074 l 336 867 l 281 867 l 82 1074 m 314 393 l 525 393 l 419 724 l 314 393 m 501 47 l 635 47 l 539 342 l 300 342 l 204 47 l 336 47 l 336 0 l 40 0 l 40 47 l 150 47 l 369 733 l 169 733 l 169 781 l 457 781 l 689 47 l 793 47 l 793 0 l 501 0 l 501 47 z "},"ȁ":{"ha":833,"x_min":-24,"x_max":749,"o":"m 228 897 l 339 897 l 482 690 l 428 690 l 228 897 m -24 897 l 86 897 l 231 690 l 175 690 l -24 897 m 568 332 q 310 369 422 369 q 146 299 206 369 q 108 199 108 254 q 204 61 108 110 q 332 32 263 32 q 517 99 443 32 q 568 153 540 119 l 568 332 m 619 47 l 749 47 l 749 0 l 568 0 l 568 75 q 364 -18 482 -11 q 332 -19 349 -19 q 125 53 208 -19 q 57 199 57 113 q 161 378 57 314 q 310 421 228 421 q 568 385 426 421 l 568 408 q 489 514 568 468 q 329 556 418 556 q 107 496 242 556 l 88 543 q 169 575 88 543 q 329 607 268 607 q 554 533 465 607 q 619 408 619 479 l 619 47 z "},"Ȃ":{"ha":833,"x_min":40,"x_max":793,"o":"m 557 867 l 524 867 q 413 928 496 928 q 303 867 321 928 l 269 867 q 349 985 278 950 q 414 1000 379 1000 q 538 926 497 1000 q 557 867 553 900 m 314 393 l 525 393 l 419 724 l 314 393 m 501 47 l 635 47 l 539 342 l 300 342 l 204 47 l 336 47 l 336 0 l 40 0 l 40 47 l 150 47 l 369 733 l 169 733 l 169 781 l 457 781 l 689 47 l 793 47 l 793 0 l 501 0 l 501 47 z "},"ȃ":{"ha":833,"x_min":57,"x_max":749,"o":"m 474 690 l 440 690 q 329 751 413 751 q 219 690 238 751 l 186 690 q 265 808 194 774 q 331 824 296 824 q 454 750 414 824 q 474 690 469 724 m 568 332 q 310 369 422 369 q 146 299 206 369 q 108 199 108 254 q 204 61 108 110 q 332 32 263 32 q 517 99 443 32 q 568 153 540 119 l 568 332 m 619 47 l 749 47 l 749 0 l 568 0 l 568 75 q 364 -18 482 -11 q 332 -19 349 -19 q 125 53 208 -19 q 57 199 57 113 q 161 378 57 314 q 310 421 228 421 q 568 385 426 421 l 568 408 q 489 514 568 468 q 329 556 418 556 q 107 496 242 556 l 88 543 q 169 575 88 543 q 329 607 268 607 q 554 533 465 607 q 619 408 619 479 l 619 47 z "},"Ȅ":{"ha":833,"x_min":57,"x_max":731,"o":"m 308 1074 l 419 1074 l 563 867 l 508 867 l 308 1074 m 57 1074 l 167 1074 l 311 867 l 256 867 l 57 1074 m 604 558 l 604 360 l 557 360 l 557 446 l 288 446 l 288 47 l 667 47 l 683 168 l 731 168 l 714 0 l 103 0 l 103 47 l 238 47 l 238 733 l 103 733 l 103 781 l 714 781 l 726 621 l 679 621 l 667 733 l 288 733 l 288 493 l 557 493 l 557 558 l 604 558 z "},"ȅ":{"ha":833,"x_min":56,"x_max":721,"o":"m 307 883 l 418 883 l 561 676 l 507 676 l 307 883 m 56 883 l 165 883 l 310 676 l 254 676 l 56 883 m 664 343 q 543 507 642 450 q 408 542 481 542 q 206 450 283 542 q 153 343 165 403 l 664 343 m 721 296 l 147 296 q 243 110 147 183 q 415 51 318 51 q 629 118 526 51 q 643 128 636 124 l 676 89 q 458 3 590 17 q 415 0 436 0 q 178 99 275 0 q 96 296 96 183 q 201 518 96 429 q 408 593 290 593 q 644 493 551 593 q 721 296 721 410 z "},"Ȇ":{"ha":833,"x_min":103,"x_max":731,"o":"m 551 867 l 518 867 q 407 928 490 928 q 297 867 315 928 l 264 867 q 343 985 272 950 q 408 1000 374 1000 q 532 926 492 1000 q 551 867 547 900 m 604 558 l 604 360 l 557 360 l 557 446 l 288 446 l 288 47 l 667 47 l 683 168 l 731 168 l 714 0 l 103 0 l 103 47 l 238 47 l 238 733 l 103 733 l 103 781 l 714 781 l 726 621 l 679 621 l 667 733 l 288 733 l 288 493 l 557 493 l 557 558 l 604 558 z "},"ȇ":{"ha":833,"x_min":96,"x_max":721,"o":"m 551 676 l 518 676 q 407 738 490 738 q 297 676 315 738 l 264 676 q 343 794 272 760 q 408 810 374 810 q 532 736 492 810 q 551 676 547 710 m 664 343 q 543 507 642 450 q 408 542 481 542 q 206 450 283 542 q 153 343 165 403 l 664 343 m 721 296 l 147 296 q 243 110 147 183 q 415 51 318 51 q 629 118 526 51 q 643 128 636 124 l 676 89 q 458 3 590 17 q 415 0 436 0 q 178 99 275 0 q 96 296 96 183 q 201 518 96 429 q 408 593 290 593 q 644 493 551 593 q 721 296 721 410 z "},"Ȉ":{"ha":833,"x_min":65,"x_max":710,"o":"m 317 1074 l 428 1074 l 571 867 l 517 867 l 317 1074 m 65 1074 l 175 1074 l 319 867 l 264 867 l 65 1074 m 396 733 l 125 733 l 125 781 l 710 781 l 710 733 l 446 733 l 446 47 l 708 47 l 708 0 l 124 0 l 124 47 l 396 47 l 396 733 z "},"ȉ":{"ha":833,"x_min":74,"x_max":693,"o":"m 325 883 l 436 883 l 579 676 l 525 676 l 325 883 m 74 883 l 183 883 l 328 676 l 272 676 l 74 883 m 401 544 l 143 544 l 143 592 l 453 592 l 453 47 l 693 47 l 693 0 l 143 0 l 143 47 l 401 47 l 401 544 z "},"Ȋ":{"ha":833,"x_min":124,"x_max":710,"o":"m 561 867 l 528 867 q 417 928 500 928 q 307 867 325 928 l 274 867 q 353 985 282 950 q 418 1000 383 1000 q 542 926 501 1000 q 561 867 557 900 m 396 733 l 125 733 l 125 781 l 710 781 l 710 733 l 446 733 l 446 47 l 708 47 l 708 0 l 124 0 l 124 47 l 396 47 l 396 733 z "},"ȋ":{"ha":833,"x_min":143,"x_max":693,"o":"m 569 676 l 536 676 q 425 738 508 738 q 315 676 333 738 l 282 676 q 361 794 290 760 q 426 810 392 810 q 550 736 510 810 q 569 676 565 710 m 401 544 l 143 544 l 143 592 l 453 592 l 453 47 l 693 47 l 693 0 l 143 0 l 143 47 l 401 47 l 401 544 z "},"Ȍ":{"ha":833,"x_min":65,"x_max":747,"o":"m 317 1074 l 428 1074 l 571 867 l 517 867 l 317 1074 m 65 1074 l 175 1074 l 319 867 l 264 867 l 65 1074 m 417 783 q 657 660 560 783 q 747 390 747 546 q 640 101 747 218 q 417 -3 546 -3 q 176 121 274 -3 q 86 390 86 235 q 193 679 86 563 q 417 783 288 783 m 417 732 q 214 625 297 732 q 138 390 138 526 q 239 126 138 229 q 417 49 317 49 q 619 156 536 49 q 696 390 696 254 q 594 654 696 551 q 417 732 517 732 z "},"ȍ":{"ha":833,"x_min":64,"x_max":729,"o":"m 315 883 l 426 883 l 569 676 l 515 676 l 315 883 m 64 883 l 174 883 l 318 676 l 263 676 l 64 883 m 417 593 q 651 493 557 593 q 729 296 729 408 q 624 74 729 163 q 417 -1 535 -1 q 182 99 276 -1 q 104 296 104 183 q 210 518 104 429 q 417 593 299 593 m 417 542 q 215 451 294 542 q 156 296 156 383 q 249 107 156 181 q 417 50 321 50 q 624 143 549 50 q 678 296 678 208 q 576 492 678 419 q 417 542 507 542 z "},"Ȏ":{"ha":833,"x_min":86,"x_max":747,"o":"m 560 867 l 526 867 q 415 928 499 928 q 306 867 324 928 l 272 867 q 351 985 281 950 q 417 1000 382 1000 q 540 926 500 1000 q 560 867 556 900 m 417 783 q 657 660 560 783 q 747 390 747 546 q 640 101 747 218 q 417 -3 546 -3 q 176 121 274 -3 q 86 390 86 235 q 193 679 86 563 q 417 783 288 783 m 417 732 q 214 625 297 732 q 138 390 138 526 q 239 126 138 229 q 417 49 317 49 q 619 156 536 49 q 696 390 696 254 q 594 654 696 551 q 417 732 517 732 z "},"ȏ":{"ha":833,"x_min":104,"x_max":729,"o":"m 560 676 l 526 676 q 415 738 499 738 q 306 676 324 738 l 272 676 q 351 794 281 760 q 417 810 382 810 q 540 736 500 810 q 560 676 556 710 m 417 593 q 651 493 557 593 q 729 296 729 408 q 624 74 729 163 q 417 -1 535 -1 q 182 99 276 -1 q 104 296 104 183 q 210 518 104 429 q 417 593 299 593 m 417 542 q 215 451 294 542 q 156 296 156 383 q 249 107 156 181 q 417 50 321 50 q 624 143 549 50 q 678 296 678 208 q 576 492 678 419 q 417 542 507 542 z "},"Ȑ":{"ha":833,"x_min":-97,"x_max":736,"o":"m 154 1074 l 265 1074 l 408 867 l 354 867 l 154 1074 m -97 1074 l 13 1074 l 157 867 l 101 867 l -97 1074 m 199 390 l 499 390 q 638 442 581 390 q 689 561 689 488 q 568 724 689 689 q 499 733 535 733 l 199 733 l 199 390 m 461 343 q 603 138 550 263 q 639 47 617 107 l 736 47 l 736 0 l 606 0 q 515 206 547 153 q 388 343 469 279 l 197 343 l 197 47 l 378 47 l 378 0 l 13 0 l 13 47 l 147 47 l 147 733 l 13 733 l 13 781 l 499 781 q 682 710 614 781 q 736 561 736 653 q 610 369 736 428 q 499 343 554 343 l 461 343 z "},"ȑ":{"ha":833,"x_min":28,"x_max":685,"o":"m 279 901 l 390 901 l 533 694 l 479 694 l 279 901 m 28 901 l 138 901 l 282 694 l 226 694 l 28 901 m 642 504 q 558 549 624 525 q 503 560 525 560 q 275 478 414 560 q 249 461 261 469 l 249 49 l 367 49 l 367 0 l 76 0 l 76 49 l 197 49 l 197 544 l 76 544 l 76 592 l 249 592 l 249 522 q 303 551 299 549 q 501 611 407 610 q 667 553 590 611 q 685 538 676 546 l 642 504 z "},"Ȓ":{"ha":833,"x_min":13,"x_max":736,"o":"m 399 867 l 365 867 q 254 928 338 928 q 144 867 163 928 l 111 867 q 190 985 119 950 q 256 1000 221 1000 q 379 926 339 1000 q 399 867 394 900 m 199 390 l 499 390 q 638 442 581 390 q 689 561 689 488 q 568 724 689 689 q 499 733 535 733 l 199 733 l 199 390 m 461 343 q 603 138 550 263 q 639 47 617 107 l 736 47 l 736 0 l 606 0 q 515 206 547 153 q 388 343 469 279 l 197 343 l 197 47 l 378 47 l 378 0 l 13 0 l 13 47 l 147 47 l 147 733 l 13 733 l 13 781 l 499 781 q 682 710 614 781 q 736 561 736 653 q 610 369 736 428 q 499 343 554 343 l 461 343 z "},"ȓ":{"ha":833,"x_min":76,"x_max":685,"o":"m 525 694 l 492 694 q 381 756 464 756 q 271 694 289 756 l 238 694 q 317 813 246 778 q 382 828 347 828 q 506 754 465 828 q 525 694 521 728 m 642 504 q 558 549 624 525 q 503 560 525 560 q 275 478 414 560 q 249 461 261 469 l 249 49 l 367 49 l 367 0 l 76 0 l 76 49 l 197 49 l 197 544 l 76 544 l 76 592 l 249 592 l 249 522 q 303 551 299 549 q 501 611 407 610 q 667 553 590 611 q 685 538 676 546 l 642 504 z "},"Ȕ":{"ha":833,"x_min":39,"x_max":794,"o":"m 317 1074 l 428 1074 l 571 867 l 517 867 l 317 1074 m 65 1074 l 175 1074 l 319 867 l 264 867 l 65 1074 m 794 733 l 696 733 l 696 249 q 624 85 696 165 q 417 -10 538 -10 q 201 99 290 -10 q 138 249 138 176 l 138 733 l 39 733 l 39 781 l 322 781 l 322 733 l 183 733 l 183 249 q 244 125 183 194 q 415 38 322 38 q 600 133 524 38 q 649 249 649 194 l 649 733 l 511 733 l 511 781 l 794 781 l 794 733 z "},"ȕ":{"ha":833,"x_min":3,"x_max":800,"o":"m 254 883 l 365 883 l 508 676 l 454 676 l 254 883 m 3 883 l 113 883 l 257 676 l 201 676 l 3 883 m 629 71 q 575 42 583 46 q 385 -18 464 -18 q 211 58 290 -18 q 149 182 149 119 l 149 544 l 31 544 l 31 592 l 200 592 l 199 183 l 199 182 q 261 82 199 133 q 385 33 321 33 q 622 128 476 33 q 629 132 626 129 l 629 544 l 511 544 l 511 592 l 681 592 l 681 49 l 800 49 l 800 0 l 629 0 l 629 71 z "},"Ȗ":{"ha":833,"x_min":39,"x_max":794,"o":"m 560 867 l 526 867 q 415 928 499 928 q 306 867 324 928 l 272 867 q 351 985 281 950 q 417 1000 382 1000 q 540 926 500 1000 q 560 867 556 900 m 794 733 l 696 733 l 696 249 q 624 85 696 165 q 417 -10 538 -10 q 201 99 290 -10 q 138 249 138 176 l 138 733 l 39 733 l 39 781 l 322 781 l 322 733 l 183 733 l 183 249 q 244 125 183 194 q 415 38 322 38 q 600 133 524 38 q 649 249 649 194 l 649 733 l 511 733 l 511 781 l 794 781 l 794 733 z "},"ȗ":{"ha":833,"x_min":31,"x_max":800,"o":"m 499 676 l 465 676 q 354 738 438 738 q 244 676 263 738 l 211 676 q 290 794 219 760 q 356 810 321 810 q 479 736 439 810 q 499 676 494 710 m 629 71 q 575 42 583 46 q 385 -18 464 -18 q 211 58 290 -18 q 149 182 149 119 l 149 544 l 31 544 l 31 592 l 200 592 l 199 183 l 199 182 q 261 82 199 133 q 385 33 321 33 q 622 128 476 33 q 629 132 626 129 l 629 544 l 511 544 l 511 592 l 681 592 l 681 49 l 800 49 l 800 0 l 629 0 l 629 71 z "}}}
